# Blender v2.82 (sub 7) OBJ File: ''
# www.blender.org
mtllib l_1_0_village_stalker_4_weapon.mtl
v -5.987296 0.779320 -1.331582
v -6.076550 0.839171 -1.354638
v -6.069119 0.873389 -1.573667
v -6.223868 0.810797 -1.101618
v -6.276333 0.867693 -1.164570
v -5.999999 0.819632 -1.539538
v -5.978615 0.858088 -1.522687
v -6.047800 0.911713 -1.556870
v -6.297717 0.829237 -1.181422
v -6.135046 0.737859 -1.116806
v -6.184250 0.800680 -1.197537
v -6.158601 0.733363 -1.076464
v -6.218206 0.794173 -1.139019
v -6.123626 0.830080 -1.273759
v -6.007833 0.752413 -1.243751
v -5.881389 0.688811 -1.260050
v -6.144946 0.791757 -1.290556
v -6.008698 0.740982 -1.348246
v -6.029268 0.714173 -1.260612
v -5.911097 0.691926 -1.360829
v -5.902824 0.650572 -1.276910
v -5.889777 0.730249 -1.344033
v -6.097952 0.800834 -1.371303
v -5.985472 0.857327 -1.528918
v -6.016588 0.860453 -1.546774
v -5.901002 0.882674 -1.745234
v -6.001891 0.827989 -1.541708
v -5.869803 0.879562 -1.727511
v -6.052821 0.886890 -1.564838
v -6.018154 0.860150 -1.547786
v -6.029183 0.891401 -1.605312
v -5.972785 0.868853 -1.625687
v -6.245271 0.772460 -1.118283
v -6.243211 0.797648 -1.117148
v -6.252585 0.808753 -1.130590
v -6.281667 0.839742 -1.164142
v -6.271013 0.827905 -1.150904
v -6.349741 0.731710 -0.830436
v -6.361708 0.757940 -0.875139
v -6.445520 0.805945 -0.877816
v -6.405944 0.792246 -0.896836
v -5.886157 0.850356 -1.740246
v -5.957639 0.917156 -1.755723
v -5.928081 0.877445 -1.702530
v -5.910862 0.880799 -1.732093
vt 0.817800 0.661518
vt 0.780599 0.673014
vt 0.780599 0.661518
vt 0.738311 0.673014
vt 0.738311 0.661405
vt 0.709402 0.748206
vt 0.935092 0.748018
vt 0.690105 0.691784
vt 0.934489 0.691595
vt 0.934904 0.692688
vt 0.935507 0.749111
vt 0.690482 0.692387
vt 0.709704 0.748809
vt 0.935092 0.691294
vt 0.935318 0.703505
vt 0.690708 0.692085
vt 0.709515 0.704184
vt 0.689389 0.627785
vt 0.721086 0.627484
vt 0.689992 0.689598
vt 0.721689 0.689296
vt 0.709817 0.736711
vt 0.710005 0.748809
vt 0.935582 0.735994
vt 0.935695 0.748093
vt 0.934489 0.629218
vt 0.936411 0.690691
vt 0.909613 0.629595
vt 0.908106 0.688806
vt 0.803101 0.672599
vt 0.765184 0.672599
vt 0.803101 0.660501
vt 0.765184 0.660501
vt 0.838793 0.673014
vt 0.783992 0.661405
vt 0.783992 0.673014
vt 0.735786 0.661405
vt 0.735710 0.673014
vt 0.873393 0.643804
vt 0.809508 0.643804
vt 0.873393 0.628991
vt 0.809508 0.628991
vt 0.722782 0.655186
vt 0.785688 0.682210
vt 0.784896 0.644897
vt 0.834007 0.689409
vt 0.847500 0.654282
vt 0.838793 0.661405
vt 0.737783 0.690502
vt 0.784896 0.645198
vt 0.785688 0.682512
vt 0.847500 0.654583
vt 0.834007 0.689711
vt 0.737783 0.690088
vt 0.873581 0.644482
vt 0.809696 0.644482
vt 0.873581 0.627409
vt 0.809696 0.627409
vt 0.809583 0.626089
vt 0.873506 0.626089
vt 0.809583 0.643201
vt 0.873506 0.643201
vt 0.850402 0.687185
vt 0.850213 0.658202
vt 0.898985 0.687185
vt 0.907917 0.656016
vt 0.817687 0.673089
vt 0.801518 0.628313
vt 0.804118 0.643804
vt 0.722782 0.628087
vt 0.723084 0.644407
vt 0.722895 0.643088
vt 0.723084 0.628690
vt 0.807510 0.644595
vt 0.806003 0.627785
vt 0.804797 0.632007
vt 0.779582 0.641618
vt 0.723197 0.632007
vt 0.742118 0.641618
vt 0.722707 0.655488
vt 0.850515 0.655789
vt 0.860013 0.647799
vt 0.869398 0.655789
vt 0.841017 0.734901
vt 0.823114 0.718318
vt 0.841205 0.718393
vn 0.0660 0.3666 -0.9280
vn 0.3645 0.1926 -0.9111
vn 0.3645 0.1925 -0.9111
vn -0.4543 -0.8163 -0.3567
vn -0.4570 -0.8145 -0.3573
vn 0.4557 0.8154 0.3570
vn 0.4558 0.8153 0.3570
vn 0.7365 -0.5695 0.3650
vn 0.7364 -0.5697 0.3649
vn 0.5010 0.0982 -0.8599
vn -0.7364 0.5695 -0.3651
vn -0.7364 0.5696 -0.3651
vn 0.4556 0.8155 0.3569
vn 0.4575 0.8148 0.3561
vn 0.8865 -0.3736 -0.2729
vn 0.8855 -0.3762 -0.2727
vn -0.3668 -0.1954 0.9095
vn -0.0671 -0.3708 0.9263
vn -0.7604 -0.4251 -0.4911
vn -0.7622 -0.4217 -0.4911
vn -0.4550 -0.8160 -0.3564
vn -0.4559 -0.8155 -0.3565
vn -0.4561 -0.8153 -0.3568
vn -0.3663 -0.1950 0.9098
vn 0.4551 0.8160 0.3564
vn 0.4561 0.8154 0.3565
vn 0.4559 0.8154 0.3568
vn -0.4551 -0.8160 -0.3566
vn 0.0269 0.9916 0.1267
vn 0.7358 -0.5707 0.3646
vn 0.7357 -0.5709 0.3646
vn 0.4544 0.8164 0.3564
vn 0.4550 0.8162 0.3562
vn 0.0662 0.3694 -0.9269
vn -0.7190 0.0983 0.6880
vn -0.7183 0.1018 0.6882
vn 0.4550 0.8159 0.3567
vn 0.4553 0.8158 0.3567
vn 0.4539 0.8168 0.3562
vn 0.4590 0.8132 0.3579
vn 0.4558 0.8156 0.3565
vn 0.4550 0.8144 0.3601
vn 0.4550 0.8160 0.3565
vn 0.4989 0.0962 -0.8613
vn 0.4541 0.8163 0.3571
usemtl mesh_22_submesh_0_mat_98.001
s off
f 22/1/1 18/2/1 1/3/1
f 18/2/2 23/4/2 1/3/2
f 1/3/3 23/4/3 2/5/3
f 9/6/4 3/7/4 33/8/4
f 3/7/5 6/9/5 33/8/5
f 7/10/6 8/11/6 4/12/6
f 8/11/7 5/13/7 4/12/7
f 6/14/8 7/15/8 33/16/8
f 7/15/9 4/17/9 33/16/9
f 3/18/10 8/19/10 6/20/10
f 8/19/10 7/21/10 6/20/10
f 9/22/11 5/23/11 3/24/11
f 5/23/12 8/25/12 3/24/12
f 10/26/13 11/27/13 12/28/13
f 11/27/14 13/29/14 12/28/14
f 22/30/15 16/31/15 20/32/15
f 16/31/16 21/33/16 20/32/16
f 14/34/17 19/35/17 15/36/17
f 19/35/18 21/37/18 15/36/18
f 15/36/18 21/37/18 16/38/18
f 42/39/19 27/40/19 26/41/19
f 27/40/20 25/42/20 26/41/20
f 17/43/21 18/44/21 19/45/21
f 18/44/22 20/46/22 19/45/22
f 19/45/23 20/46/23 21/47/23
f 19/35/24 14/34/24 17/48/24
f 2/49/25 15/50/25 1/51/25
f 15/50/26 16/52/26 1/51/26
f 1/51/27 16/52/27 22/53/27
f 18/44/28 17/43/28 23/54/28
f 24/55/29 28/56/29 25/57/29
f 28/56/29 26/58/29 25/57/29
f 27/59/30 42/60/30 24/61/30
f 42/60/31 28/62/31 24/61/31
f 29/63/32 30/64/32 31/65/32
f 30/64/33 32/66/33 31/65/33
f 18/2/34 22/1/34 20/67/34
f 5/13/35 9/22/35 4/17/35
f 9/22/36 33/8/36 4/17/36
f 34/68/37 35/69/37 38/70/37
f 35/69/38 39/71/38 38/70/38
f 40/72/39 41/73/39 36/74/39
f 41/73/40 37/75/40 36/74/40
f 38/76/41 39/77/41 40/78/41
f 39/77/42 41/79/42 40/78/42
f 15/50/43 2/49/43 14/80/43
f 42/81/44 26/82/44 28/83/44
f 43/84/45 44/85/45 45/86/45
