# Blender v2.82 (sub 7) OBJ File: ''
# www.blender.org
mtllib l_1_0_village_stalker_2.mtl
v -4.178500 0.192192 -0.437658
v -4.180240 0.192142 -0.555077
v -4.156164 0.089089 -0.727500
v -4.049775 0.185716 -0.585480
v -4.100125 0.090714 -0.391021
v -4.121112 0.268388 -0.511650
v -4.199538 0.088885 -0.414160
v -3.998025 0.091063 -0.752041
v -4.087348 0.185278 -0.416336
v -4.070542 1.581059 -0.422616
v -3.882290 1.583728 -0.576373
v -3.803302 1.394704 -0.588586
v -4.014400 1.382325 -0.672105
v -3.854603 1.087349 -0.502502
v -4.021347 1.087134 -0.586694
v -4.016496 0.905887 -0.580268
v -3.846448 1.423833 -0.375767
v -3.881945 1.105808 -0.367641
v -3.916914 0.980361 -0.431341
v -4.028224 1.568420 -0.634071
v -4.241720 1.379890 -0.675442
v -4.207222 1.075434 -0.572360
v -4.234563 1.093893 -0.437499
v -4.169901 0.971812 -0.481461
v -4.068823 0.941215 -0.322164
v -4.215874 1.593780 -0.488133
v -4.185795 1.573472 -0.636501
v -4.284867 1.409019 -0.462622
v -3.912369 1.604035 -0.428005
v -4.137931 1.607706 -0.507340
v -4.129026 1.835925 -0.562262
v -4.111447 1.585373 -0.623426
v -4.114249 1.805839 -0.685375
v -3.962292 1.601192 -0.484665
v -3.940325 1.828927 -0.537902
v -3.960024 1.579757 -0.603878
v -3.925547 1.798841 -0.661014
v -4.027550 1.580345 -0.677692
v -4.021222 1.876352 -0.641680
v -4.056012 1.612058 -0.448114
v -4.039582 1.844051 -0.508737
v -4.035449 1.538853 -0.628423
v -4.012480 1.789693 -0.734290
v -3.800175 1.198465 -0.350492
v -3.695962 1.220952 -0.414100
v -3.767002 1.134442 -0.426600
v -3.880045 1.188008 -0.486998
v -3.772289 1.212130 -0.543907
v -3.837881 1.465938 -0.596233
v -3.895984 1.528389 -0.509612
v -3.880802 1.410485 -0.380518
v -3.772939 1.496956 -0.475326
v -3.973950 1.366006 -0.553807
v -3.862439 1.113073 -0.733700
v -3.954522 1.092410 -0.677485
v -3.854020 1.121486 -0.468068
v -3.987670 1.181425 -0.700806
v -4.037447 1.171689 -0.771204
v -3.923198 1.091857 -0.851604
v -4.025000 1.069087 -0.789950
v -3.933919 1.189789 -0.831775
v -3.898234 1.240522 -0.499407
v -3.893738 1.197337 -0.755885
v -3.801119 1.213353 -0.466424
v -3.750381 1.145009 -0.532112
v -3.791926 1.256859 -0.561560
v -4.352599 1.176594 -0.639282
v -4.083504 1.388964 -0.623254
v -4.246102 1.227920 -0.732969
v -4.153469 1.191910 -0.658440
v -4.264954 1.109053 -0.659897
v -4.265375 1.139064 -0.559410
v -4.319692 1.459014 -0.568726
v -4.224015 1.350958 -0.483623
v -4.200931 1.512056 -0.549366
v -4.221673 1.485526 -0.666131
v -4.148004 1.112286 -0.904713
v -4.202892 1.044588 -0.873399
v -4.124375 1.011666 -0.803744
v -4.228225 1.104086 -0.615504
v -4.016183 1.047973 -0.898210
v -4.066429 1.083136 -0.836803
v -4.055000 0.950436 -0.901728
v -4.141687 0.986761 -0.978158
v -4.105928 1.080526 -0.972896
v -4.316378 1.141253 -0.694566
v -4.253794 1.205088 -0.634850
v -4.150763 1.199627 -0.659697
v -4.243559 1.231067 -0.736110
v -4.022872 0.567691 -0.484265
v -4.069959 0.887040 -0.350730
v -3.951673 0.591048 -0.705024
v -4.026831 0.959958 -0.597314
v -3.813744 0.609147 -0.669951
v -3.858590 0.585007 -0.451942
v -3.872565 1.045913 -0.330526
v -3.916496 0.450173 -0.595280
v -3.850086 1.084011 -0.459349
v -3.923291 0.212666 -0.316546
v -3.858640 0.567124 -0.478901
v -3.885866 0.627043 -0.625664
v -3.808911 0.518746 -0.660324
v -3.974236 0.497160 -0.685096
v -4.059965 0.277260 -0.244881
v -4.032032 0.189604 -0.391987
v -3.967850 0.273407 -0.226412
v -4.022385 0.548666 -0.497342
v -4.070385 0.185655 -0.231102
v -3.979143 0.192575 -0.209829
v -3.925313 0.192605 -0.314269
v -3.870289 0.089534 -0.479604
v -4.028897 0.186215 -0.399589
v -4.070145 0.091053 -0.202843
v -3.997756 0.268777 -0.301573
v -4.001297 0.091551 -0.571958
v -3.970659 0.089280 -0.179410
v -4.060321 0.859380 -0.373957
v -4.205509 0.596826 -0.610686
v -4.231774 1.084949 -0.510026
v -4.011465 0.986750 -0.595968
v -4.025178 0.654338 -0.802708
v -4.092793 0.494409 -0.748172
v -4.166805 0.670340 -0.818419
v -4.257316 1.018360 -0.393960
v -4.040390 0.579735 -0.582528
v -4.179438 0.198040 -0.551701
v -4.007563 0.556653 -0.798846
v -4.170927 0.579841 -0.832761
v -4.116945 0.673492 -0.748144
v -4.194194 0.582914 -0.639914
v -4.082091 0.237841 -0.421854
v -4.049745 0.187649 -0.584389
v -4.174060 0.234193 -0.440168
v -4.034757 0.561292 -0.600216
vt 0.318913 0.570187
vt 0.373296 0.599491
vt 0.370594 0.557994
vt 0.422517 0.608393
vt 0.515799 0.585809
vt 0.447803 0.659485
vt 0.520787 0.662707
vt 0.382510 0.693812
vt 0.389195 0.731810
vt 0.408211 0.651691
vt 0.371599 0.504790
vt 0.520198 0.508704
vt 0.333808 0.605796
vt 0.979535 0.975022
vt 0.854474 0.884169
vt 0.954903 0.847184
vt 0.794685 0.788930
vt 0.927493 0.744636
vt 0.766618 0.610001
vt 0.868874 0.584931
vt 0.844022 0.495978
vt 0.760113 0.895498
vt 0.662170 0.785787
vt 0.682636 0.607882
vt 0.713626 0.553428
vt 0.602965 0.497074
vt 0.794685 0.788930
vt 0.766618 0.610001
vt 0.682636 0.607882
vt 0.713626 0.553428
vt 0.668090 0.893378
vt 0.760113 0.895498
vt 0.662170 0.785787
vt 0.871432 0.974583
vt 0.854474 0.884169
vt 0.871432 0.974583
vt 0.668090 0.893378
vt 0.534172 0.019081
vt 0.519668 0.319788
vt 0.660271 0.031712
vt 0.650208 0.325478
vt 0.830992 0.044967
vt 0.810034 0.331100
vt 0.948416 0.073768
vt 0.948832 0.331377
vt 0.660271 0.031712
vt 0.650208 0.325478
vt 0.830992 0.044967
vt 0.810034 0.331100
vt 0.744799 0.473021
vt 0.894215 0.441583
vt 0.576367 0.433602
vt 0.925375 0.018179
vt 0.087701 0.325815
vt 0.183504 0.318873
vt 0.182335 0.461811
vt 0.274996 0.314634
vt 0.299111 0.496595
vt 0.403172 0.494768
vt 0.111378 0.085905
vt 0.069870 0.109801
vt 0.077689 0.074432
vt 0.048020 0.059889
vt 0.090916 0.037601
vt 0.064389 0.019405
vt 0.125993 0.040816
vt 0.073013 0.057478
vt 0.084486 0.115281
vt 0.035378 0.070486
vt 0.512422 0.430607
vt 0.366707 0.313027
vt 0.033478 0.472407
vt 0.454326 0.285404
vt 0.338779 0.141681
vt 0.363315 0.286300
vt 0.270291 0.162081
vt 0.274567 0.313919
vt 0.184487 0.164394
vt 0.181192 0.318266
vt 0.111302 0.144485
vt 0.085925 0.288473
vt 0.343196 0.086301
vt 0.270992 0.074735
vt 0.179580 0.075366
vt 0.104572 0.089176
vt 0.490829 0.018934
vt 0.499521 0.109925
vt 0.417222 0.024823
vt 0.421499 0.117426
vt 0.364577 0.112729
vt 0.456970 0.270387
vt 0.421569 0.127100
vt 0.360791 0.028678
vt 0.066507 0.082095
vt 0.040079 0.106631
vt 0.044215 0.052092
vt 0.091183 0.056298
vt 0.089711 0.110697
vt 0.182978 0.460608
vt 0.301804 0.495981
vt 0.277281 0.310868
vt 0.407625 0.494197
vt 0.370469 0.309307
vt 0.518722 0.428876
vt 0.459570 0.281217
vt 0.184093 0.315327
vt 0.086818 0.322312
vt 0.031678 0.471383
vt 0.090013 0.029223
vt 0.046392 0.051814
vt 0.076637 0.066603
vt 0.068611 0.102570
vt 0.110895 0.078418
vt 0.033610 0.062590
vt 0.083474 0.108218
vt 0.071807 0.049511
vt 0.125683 0.032493
vt 0.062963 0.010719
vt 0.420383 0.126893
vt 0.338209 0.141423
vt 0.362611 0.284776
vt 0.270217 0.161584
vt 0.274597 0.312167
vt 0.185123 0.163879
vt 0.181925 0.316478
vt 0.112613 0.144204
vt 0.087376 0.287001
vt 0.270982 0.074892
vt 0.180326 0.075587
vt 0.105869 0.089283
vt 0.360108 0.029286
vt 0.363793 0.112572
vt 0.416003 0.025393
vt 0.420313 0.117300
vt 0.497621 0.109930
vt 0.489000 0.019622
vt 0.455491 0.268995
vt 0.342589 0.086432
vt 0.046081 0.052506
vt 0.041979 0.106524
vt 0.068189 0.082330
vt 0.092591 0.056677
vt 0.091200 0.110626
vt 0.049617 0.737374
vt 0.029784 0.897680
vt 0.138206 0.729705
vt 0.144023 0.890222
vt 0.200984 0.727696
vt 0.233722 0.931475
vt 0.287722 0.727220
vt 0.293698 0.931422
vt 0.376416 0.879592
vt 0.295391 0.722407
vt 0.283596 0.677399
vt 0.329504 0.693688
vt 0.342884 0.657777
vt 0.357482 0.709079
vt 0.121176 0.986109
vt 0.061411 0.990023
vt 0.360814 0.718810
vt 0.029785 0.556875
vt 0.049987 0.724204
vt 0.105516 0.562591
vt 0.139022 0.729623
vt 0.160307 0.543621
vt 0.201499 0.727603
vt 0.272106 0.680696
vt 0.343895 0.658819
vt 0.352715 0.709323
vt 0.320294 0.695281
vt 0.295904 0.721395
vt 0.285606 0.678085
vt 0.232195 0.495876
vt 0.198000 0.517507
vt 0.032889 0.548696
vt 0.063290 0.501789
vt 0.104383 0.551899
vt 0.108916 0.514698
vt 0.328621 0.634085
vt 0.333803 0.605495
vt 0.318795 0.569698
vt 0.373500 0.599192
vt 0.370784 0.557406
vt 0.422912 0.608106
vt 0.516686 0.585402
vt 0.448297 0.659398
vt 0.521805 0.662706
vt 0.382693 0.694011
vt 0.389413 0.732210
vt 0.408600 0.651598
vt 0.521213 0.507890
vt 0.371689 0.503990
vt 0.376316 0.880325
vt 0.294075 0.931699
vt 0.288081 0.728675
vt 0.234393 0.931805
vt 0.201897 0.729201
vt 0.145212 0.890684
vt 0.139480 0.731094
vt 0.031684 0.898309
vt 0.051403 0.738876
vt 0.357491 0.710691
vt 0.342978 0.659686
vt 0.329674 0.695285
vt 0.284084 0.679194
vt 0.295705 0.723890
vt 0.122496 0.986123
vt 0.063076 0.990014
vt 0.360804 0.720314
vt 0.274381 0.682804
vt 0.203403 0.729908
vt 0.161994 0.544908
vt 0.140597 0.731889
vt 0.106915 0.563977
vt 0.051093 0.726490
vt 0.030785 0.558380
vt 0.287903 0.680079
vt 0.298305 0.723717
vt 0.322823 0.697514
vt 0.355415 0.711482
vt 0.346499 0.660811
vt 0.234310 0.497011
vt 0.199787 0.518705
vt 0.033906 0.550109
vt 0.105677 0.553279
vt 0.064417 0.503004
vt 0.110283 0.515882
vt 0.331194 0.635996
vn -0.2235 0.2592 0.9396
vn -0.9791 0.2027 0.0144
vn -0.9906 -0.0020 -0.1371
vn -0.0792 0.8508 -0.5195
vn -0.0903 0.8536 -0.5131
vn 0.9651 0.1497 0.2148
vn 0.9607 -0.0571 0.2716
vn -0.1580 0.5784 -0.8003
vn -0.7933 0.6087 0.0115
vn -0.1022 0.7316 0.6741
vn 0.0180 -0.9998 0.0018
vn 0.0129 -0.9999 0.0027
vn -0.1987 0.2784 0.9397
vn 0.8193 0.5432 0.1834
vn -0.0749 0.9944 -0.0744
vn 0.3417 0.2021 -0.9178
vn 0.3487 0.2125 -0.9128
vn 0.3656 -0.3071 -0.8786
vn 0.4355 -0.2596 -0.8619
vn 0.4507 -0.0196 -0.8925
vn 0.9173 0.3746 0.1347
vn 0.9720 -0.1031 0.2112
vn 0.8997 -0.3691 0.2329
vn 0.7728 -0.5957 -0.2189
vn 0.3769 -0.9043 0.2002
vn 0.0122 0.2011 -0.9795
vn 0.0173 -0.3189 -0.9476
vn -0.9703 -0.1687 -0.1736
vn -0.8946 -0.4297 -0.1226
vn -0.7557 -0.5359 0.3766
vn -0.3652 -0.9294 0.0532
vn -0.0566 -0.2763 -0.9594
vn -0.0745 -0.0373 -0.9965
vn -0.5908 -0.6418 -0.4890
vn -0.9217 0.3125 -0.2296
vn 0.1347 0.9850 -0.1075
vn 0.0328 0.9981 -0.0531
vn 0.0213 0.1913 -0.9813
vn -0.1473 0.9755 -0.1634
vn 0.5884 -0.4904 0.6428
vn -0.5766 0.2445 0.7796
vn -0.5156 0.2194 0.8283
vn -0.9755 -0.0148 -0.2197
vn -0.9931 -0.0432 -0.1087
vn -0.5378 -0.2344 -0.8098
vn -0.4502 -0.2027 -0.8696
vn 0.3032 0.1891 0.9340
vn 0.9955 -0.0879 0.0348
vn 0.9824 -0.1164 0.1464
vn 0.7071 -0.2805 -0.6491
vn 0.6400 -0.2431 -0.7289
vn -0.5019 0.8244 -0.2617
vn -0.2144 0.7030 -0.6781
vn 0.3763 0.2092 0.9026
vn 0.6106 0.7831 -0.1181
vn 0.2194 0.9407 0.2589
vn 0.5332 -0.6873 -0.4933
vn 0.4300 0.6791 -0.5949
vn -0.4393 -0.6512 -0.6188
vn -0.2087 0.9565 0.2036
vn -0.8288 -0.2439 0.5036
vn 0.4518 0.2912 0.8432
vn 0.4720 0.3143 0.8237
vn 0.8592 0.1299 -0.4948
vn 0.5229 -0.5263 0.6706
vn -0.5542 -0.7401 0.3810
vn -0.1023 -0.8315 -0.5461
vn -0.5521 0.4552 -0.6985
vn -0.8680 0.3115 0.3866
vn 0.0007 0.7384 0.6743
vn -0.1299 -0.2323 -0.9639
vn 0.8528 0.1154 -0.5093
vn -0.8262 -0.2455 0.5071
vn -0.3243 -0.4776 -0.8165
vn 0.7369 -0.5479 -0.3960
vn 0.3294 0.8568 -0.3967
vn 0.8467 0.1829 -0.4996
vn 0.2331 -0.9722 0.0245
vn 0.2344 -0.9719 0.0224
vn -0.8705 -0.2072 0.4465
vn -0.8706 -0.2057 0.4470
vn 0.8597 0.1901 -0.4741
vn 0.8576 0.1930 -0.4767
vn 0.2455 -0.9682 0.0477
vn 0.2458 -0.9682 0.0468
vn -0.8114 -0.1989 0.5497
vn -0.7985 -0.1442 0.5845
vn -0.5329 0.1115 -0.8388
vn -0.5149 0.0932 -0.8522
vn -0.1780 0.9840 -0.0102
vn -0.2463 0.9541 -0.1706
vn -0.2547 0.9539 -0.1588
vn -0.1712 0.9852 -0.0074
vn 0.5493 -0.3300 0.7677
vn 0.8786 0.3964 0.2662
vn 0.1084 0.9001 0.4221
vn -0.2815 0.1451 0.9485
vn -0.7164 -0.0894 0.6919
vn -0.7159 0.2466 -0.6532
vn -0.7039 0.2402 -0.6685
vn 0.4109 0.1923 -0.8912
vn 0.6074 -0.0744 -0.7909
vn -0.6976 -0.1167 0.7069
vn 0.7079 -0.3563 0.6098
vn 0.7049 -0.3595 0.6115
vn 0.4001 -0.5252 -0.7511
vn 0.5777 -0.7814 0.2358
vn -0.5579 -0.7958 0.2353
vn -0.3177 0.3969 0.8611
vn 0.6631 0.1994 0.7215
vn 0.6067 0.7451 -0.2771
vn -0.4898 -0.3989 -0.7753
vn -0.3849 0.9125 -0.1389
vn 0.5189 0.8091 -0.2760
vn -0.7240 0.2996 -0.6214
vn -0.4928 -0.8570 0.1505
vn -0.4940 -0.8567 0.1481
vn 0.7445 -0.3371 0.5762
vn -0.7330 0.3157 -0.6025
vn -0.5055 -0.8456 0.1714
vn -0.5057 -0.8457 0.1704
vn 0.6827 -0.2958 0.6682
vn 0.6828 -0.2334 0.6923
vn 0.4370 0.8879 -0.1439
vn 0.4420 0.8852 -0.1452
vn 0.5818 -0.2031 -0.7876
vn 0.6044 -0.1870 -0.7744
vn 0.5118 0.8092 -0.2886
vn -0.7355 0.3142 -0.6002
vn -0.6742 -0.0293 0.7379
vn -0.7524 0.6523 0.0913
vn 0.1130 0.9596 0.2576
vn 0.2396 0.2408 0.9405
vn -0.9513 -0.0115 -0.3080
vn -0.9683 -0.1361 -0.2096
vn 0.1956 0.3114 -0.9299
vn 0.3729 0.3999 -0.8373
vn 0.9797 -0.0137 0.2000
vn 0.9857 -0.0143 0.1678
vn 0.1031 -0.2505 0.9626
vn 0.2730 -0.5479 -0.7908
vn 0.8587 -0.4979 0.1215
vn -0.0618 -0.7144 0.6970
vn -0.6300 0.7677 0.1168
vn -0.6299 0.7678 0.1171
vn -0.1363 -0.3992 0.9067
vn -0.8326 -0.4545 -0.3166
vn -0.9847 -0.0242 -0.1726
vn -0.9705 -0.0435 -0.2370
vn 0.5262 -0.6364 -0.5640
vn 0.1921 -0.7638 -0.6162
vn 0.9599 -0.0486 0.2761
vn -0.1468 0.9059 0.3971
vn 0.8241 0.5612 0.0762
vn 0.0917 0.3621 -0.9276
vn -0.1184 0.6722 0.7308
vn 0.9040 0.0304 0.4264
vn -0.1532 -0.8614 0.4842
vn -0.1371 -0.8515 0.5061
vn -0.1573 0.6842 0.7121
vn -0.6919 0.6312 -0.3506
vn -0.2381 0.2774 0.9308
vn -0.2170 0.2593 0.9411
vn 0.8702 0.2036 0.4486
vn 0.9484 -0.0023 0.3171
vn 0.3017 0.8509 -0.4300
vn 0.3088 0.8537 -0.4194
vn -0.9602 0.1497 -0.2359
vn -0.9814 -0.0572 -0.1831
vn -0.2069 0.7316 0.6496
vn 0.7046 0.6095 0.3633
vn 0.4964 0.5798 -0.6461
vn -0.0128 -0.9999 -0.0037
vn -0.0163 -0.9998 -0.0063
vn -0.8153 0.5437 -0.1990
vn -0.4436 -0.4523 0.7737
vn -0.9757 -0.0074 -0.2189
vn -0.9821 -0.0141 -0.1880
vn -0.0507 0.5909 -0.8051
vn 0.1519 0.5175 -0.8421
vn 0.9814 -0.1288 0.1421
vn 0.9971 0.0157 0.0742
vn -0.1724 -0.8524 0.4936
vn -0.8207 -0.4732 -0.3203
vn 0.0647 -0.3465 -0.9358
vn 0.5083 0.6940 0.5100
vn -0.1946 -0.5953 0.7796
vn 0.9088 -0.4102 -0.0762
vn -0.9908 -0.0652 -0.1185
vn 0.0824 -0.5920 -0.8017
vn -0.2512 -0.4647 -0.8491
vn 0.9901 -0.0339 0.1363
vn 0.9785 -0.0306 0.2042
vn 0.2438 0.5690 -0.7853
vn -0.8162 0.5676 -0.1075
vn -0.0484 0.7827 0.6205
vn -0.1896 0.4797 0.8567
vn -0.9981 -0.0254 0.0563
vn -0.0023 -0.9556 0.2946
vn -0.0239 -0.9507 0.3093
vn -0.1464 0.4940 0.8570
vn 0.7458 0.6606 0.0867
usemtl pstalker.png
s off
f 5/1/1 1/2/1 7/3/1
f 1/2/2 2/4/2 7/3/2
f 7/3/3 2/4/3 3/5/3
f 2/4/4 4/6/4 3/5/4
f 3/5/5 4/6/5 8/7/5
f 4/6/6 9/8/6 8/7/6
f 8/7/7 9/8/7 5/9/7
f 4/6/8 2/4/8 6/10/8
f 2/4/9 1/2/9 6/10/9
f 6/10/10 1/2/10 9/8/10
f 7/3/11 3/5/11 5/11/11
f 3/5/12 8/12/12 5/11/12
f 1/2/13 5/1/13 9/13/13
f 9/8/14 4/6/14 6/10/14
f 10/14/15 11/15/15 20/16/15
f 11/15/16 12/17/16 20/16/16
f 20/16/17 12/17/17 13/18/17
f 12/17/18 14/19/18 13/18/18
f 13/18/19 14/19/19 15/20/19
f 14/19/20 16/21/20 15/20/20
f 11/22/21 17/23/21 12/17/21
f 17/23/22 18/24/22 12/17/22
f 12/17/22 18/24/22 14/19/22
f 18/24/23 19/25/23 14/19/23
f 14/19/24 19/25/24 16/21/24
f 19/25/25 25/26/25 16/21/25
f 20/16/26 13/18/26 21/27/26
f 13/18/27 22/28/27 21/27/27
f 21/27/28 22/28/28 23/29/28
f 22/28/29 24/30/29 23/29/29
f 23/29/30 24/30/30 25/26/30
f 24/30/31 16/21/31 25/26/31
f 13/18/32 15/20/32 22/28/32
f 15/20/33 16/21/33 22/28/33
f 22/28/34 16/21/34 24/30/34
f 26/31/35 27/32/35 28/33/35
f 27/32/35 21/27/35 28/33/35
f 28/33/28 21/27/28 23/29/28
f 26/34/36 10/14/36 27/35/36
f 10/14/37 20/16/37 27/35/37
f 27/35/38 20/16/38 21/27/38
f 11/15/39 10/14/39 29/36/39
f 17/23/21 11/22/21 29/37/21
f 19/25/40 18/24/40 25/26/40
f 40/38/41 41/39/41 30/40/41
f 41/39/42 31/41/42 30/40/42
f 30/40/43 31/41/43 32/42/43
f 31/41/44 33/43/44 32/42/44
f 32/42/45 33/43/45 38/44/45
f 33/43/46 43/45/46 38/44/46
f 41/39/47 34/46/47 35/47/47
f 34/46/48 36/48/48 35/47/48
f 35/47/49 36/48/49 37/49/49
f 36/48/50 38/44/50 37/49/50
f 37/49/51 38/44/51 43/45/51
f 31/41/52 39/50/52 33/43/52
f 39/50/53 43/51/53 33/43/53
f 34/46/54 41/39/54 40/38/54
f 37/49/55 39/50/55 35/47/55
f 39/50/56 41/52/56 35/47/56
f 36/48/57 42/53/57 38/44/57
f 43/51/58 39/50/58 37/49/58
f 38/44/59 42/53/59 32/42/59
f 41/52/60 39/50/60 31/41/60
f 47/54/61 44/55/61 51/56/61
f 44/55/62 45/57/62 51/56/62
f 51/56/63 45/57/63 52/58/63
f 45/57/64 49/59/64 52/58/64
f 45/60/65 44/61/65 46/62/65
f 44/61/66 47/63/66 46/62/66
f 46/62/67 47/63/67 48/64/67
f 49/65/68 53/66/68 50/67/68
f 53/66/69 51/68/69 50/67/69
f 50/67/70 51/68/70 52/69/70
f 53/70/71 49/59/71 48/71/71
f 49/59/72 45/57/72 48/71/72
f 47/54/73 51/56/73 53/72/73
f 47/73/74 53/70/74 48/71/74
f 46/62/75 48/64/75 45/60/75
f 50/67/76 52/69/76 49/65/76
f 63/74/77 66/75/77 54/76/77
f 66/75/77 65/77/77 54/76/77
f 54/76/78 65/77/78 55/78/78
f 65/77/79 56/79/79 55/78/79
f 55/78/80 56/79/80 57/80/80
f 56/79/81 62/81/81 57/80/81
f 61/82/82 63/74/82 59/83/82
f 63/74/83 54/76/83 59/83/83
f 59/83/84 54/76/84 60/84/84
f 54/76/85 55/78/85 60/84/85
f 60/84/86 55/78/86 58/85/86
f 55/78/87 57/80/87 58/85/87
f 59/86/88 60/87/88 61/88/88
f 60/87/89 58/89/89 61/88/89
f 61/88/90 58/89/90 57/90/90
f 62/91/91 66/75/91 57/92/91
f 66/75/92 63/74/92 57/92/92
f 61/88/93 57/90/93 63/93/93
f 64/94/94 56/95/94 65/96/94
f 64/94/95 65/96/95 66/97/95
f 64/94/96 66/97/96 62/98/96
f 64/94/97 62/98/97 56/95/97
f 74/99/98 73/100/98 67/101/98
f 73/100/99 76/102/99 67/101/99
f 67/101/100 76/102/100 69/103/100
f 76/102/101 68/104/101 69/103/101
f 69/103/102 68/104/102 70/105/102
f 67/101/103 72/106/103 74/99/103
f 72/106/104 70/107/104 74/99/104
f 74/99/105 70/107/105 68/108/105
f 69/109/106 70/110/106 71/111/106
f 70/110/107 72/112/107 71/111/107
f 71/111/108 72/112/108 67/113/108
f 73/114/109 74/115/109 75/116/109
f 74/115/110 68/117/110 75/116/110
f 75/116/111 68/117/111 76/118/111
f 67/113/112 69/109/112 71/111/112
f 76/118/113 73/114/113 75/116/113
f 82/119/114 77/120/114 89/121/114
f 77/120/115 78/122/115 89/121/115
f 89/121/115 78/122/115 86/123/115
f 78/122/116 79/124/116 86/123/116
f 86/123/117 79/124/117 80/125/117
f 79/124/118 82/126/118 80/125/118
f 80/125/118 82/126/118 88/127/118
f 77/120/119 84/128/119 78/122/119
f 84/128/120 83/129/120 78/122/120
f 78/122/121 83/129/121 79/124/121
f 83/129/122 81/130/122 79/124/122
f 79/124/123 81/130/123 82/126/123
f 77/131/124 82/132/124 85/133/124
f 82/132/125 81/134/125 85/133/125
f 85/133/126 81/134/126 83/135/126
f 85/133/127 83/135/127 84/136/127
f 89/121/128 88/137/128 82/119/128
f 84/128/129 77/120/129 85/138/129
f 86/139/130 80/140/130 87/141/130
f 89/142/131 86/139/131 87/141/131
f 88/143/132 89/142/132 87/141/132
f 80/140/133 88/143/133 87/141/133
f 90/144/134 91/145/134 92/146/134
f 91/145/135 93/147/135 92/146/135
f 92/146/136 93/147/136 94/148/136
f 93/147/137 98/149/137 94/148/137
f 94/148/138 98/149/138 95/150/138
f 98/149/139 96/151/139 95/150/139
f 95/150/140 96/151/140 91/152/140
f 92/153/141 94/154/141 97/155/141
f 94/154/142 95/156/142 97/155/142
f 97/155/143 95/156/143 90/157/143
f 93/147/144 91/145/144 98/158/144
f 91/145/145 96/159/145 98/158/145
f 95/150/146 91/152/146 90/160/146
f 97/155/147 90/157/147 92/153/147
f 104/161/148 107/162/148 105/163/148
f 107/162/149 103/164/149 105/163/149
f 105/163/150 103/164/150 99/165/150
f 103/164/151 102/166/151 99/165/151
f 99/165/152 102/166/152 100/167/152
f 107/168/153 100/169/153 101/170/153
f 100/169/154 102/171/154 101/170/154
f 101/170/155 102/171/155 103/172/155
f 104/173/156 106/174/156 100/167/156
f 106/174/157 99/165/157 100/167/157
f 105/175/158 99/176/158 104/177/158
f 99/176/159 106/178/159 104/177/159
f 104/173/160 100/167/160 107/179/160
f 101/170/161 103/172/161 107/168/161
f 108/180/162 113/181/162 109/182/162
f 113/181/163 116/183/163 109/182/163
f 109/182/164 116/183/164 110/184/164
f 116/183/165 111/185/165 110/184/165
f 110/184/166 111/185/166 112/186/166
f 111/185/167 115/187/167 112/186/167
f 112/186/168 115/187/168 108/188/168
f 115/187/169 113/189/169 108/188/169
f 108/188/170 109/182/170 114/190/170
f 109/182/171 110/184/171 114/190/171
f 114/190/172 110/184/172 112/186/172
f 115/191/173 111/185/173 113/192/173
f 111/185/174 116/183/174 113/192/174
f 114/190/175 112/186/175 108/188/175
f 117/193/176 124/194/176 118/195/176
f 124/194/177 119/196/177 118/195/177
f 118/195/178 119/196/178 123/197/178
f 119/196/179 120/198/179 123/197/179
f 123/197/180 120/198/180 121/199/180
f 120/198/181 117/200/181 121/199/181
f 121/199/182 117/200/182 125/201/182
f 125/202/183 118/203/183 122/204/183
f 118/203/184 123/205/184 122/204/184
f 122/204/185 123/205/185 121/206/185
f 120/198/186 119/207/186 117/200/186
f 119/207/186 124/208/186 117/200/186
f 125/209/187 117/193/187 118/195/187
f 121/206/188 125/202/188 122/204/188
f 130/210/189 128/211/189 126/212/189
f 128/211/190 127/213/190 126/212/190
f 126/212/191 127/213/191 132/214/191
f 127/213/192 134/215/192 132/214/192
f 132/214/193 134/215/193 131/216/193
f 127/217/194 128/218/194 129/219/194
f 128/218/195 130/220/195 129/219/195
f 129/219/196 130/220/196 134/221/196
f 131/222/197 130/210/197 133/223/197
f 130/210/198 126/212/198 133/223/198
f 132/224/199 131/225/199 126/226/199
f 131/225/200 133/227/200 126/226/200
f 130/210/201 131/222/201 134/228/201
f 134/221/202 127/217/202 129/219/202
