# Blender v2.82 (sub 7) OBJ File: ''
# www.blender.org
mtllib l_1_0_village_stalker_4.mtl
v -6.238519 0.818697 -1.179481
v -6.504827 0.532190 -1.197879
v -6.216532 0.789050 -1.040846
v -6.513734 0.362896 -1.005726
v -6.089629 0.611708 -1.091515
v -6.321712 0.355512 -1.254750
v -6.057906 0.799435 -1.167876
v -6.114512 0.636758 -1.256094
v -6.418059 0.270600 -1.035387
v -6.434919 1.048272 -1.105499
v -6.468948 1.028111 -1.258128
v -6.345626 0.871967 -1.050171
v -6.387675 0.551464 -1.045794
v -6.415073 0.548253 -1.230539
v -6.546103 0.863338 -0.962213
v -6.514716 0.545996 -0.990056
v -6.460641 0.429201 -1.056782
v -6.627482 0.359072 -1.118221
v -6.396589 0.852411 -1.270878
v -6.522878 0.828594 -1.458429
v -6.530239 0.516580 -1.374155
v -6.657279 0.511112 -1.318417
v -6.562923 0.404173 -1.292366
v -6.384346 0.369537 -1.224894
v -6.557625 1.018247 -1.388125
v -6.723355 0.819965 -1.370471
v -6.697389 1.012231 -1.326805
v -6.664848 1.003563 -1.170466
v -6.574682 1.042257 -1.044179
v -6.646926 1.036501 -1.263877
v -6.627006 1.269474 -1.286378
v -6.542979 1.028160 -1.325535
v -6.525209 1.253617 -1.361652
v -6.541586 1.036245 -1.121367
v -6.513832 1.269199 -1.133269
v -6.452163 1.027939 -1.202672
v -6.412035 1.253342 -1.208542
v -6.445782 1.033160 -1.302376
v -6.633499 1.038468 -1.163611
v -6.500420 1.323502 -1.261467
v -6.418303 1.247881 -1.322302
v -6.481886 0.986255 -1.275773
v -6.604737 1.276176 -1.184444
v -6.479799 0.991024 -0.972390
v -6.397514 0.992832 -1.086513
v -6.305957 0.814292 -0.816194
v -6.362400 0.711346 -0.856545
v -6.258208 0.722355 -0.860404
v -6.236542 0.829404 -0.949260
v -6.395436 0.829709 -1.147241
v -6.514759 0.962078 -1.095855
v -6.513364 0.827173 -0.983623
v -6.288469 0.726646 -0.995911
v -6.066647 0.800091 -1.102608
v -6.115414 0.707591 -1.136251
v -6.322175 0.758539 -1.029148
v -6.042348 0.703200 -1.249396
v -6.128657 0.757223 -1.275198
v -5.988719 0.805185 -1.211898
v -6.072096 0.856522 -1.234514
v -6.169535 0.759899 -1.198711
v -6.117784 0.849703 -1.161734
v -6.194708 0.793100 -0.908274
v -6.262586 0.858954 -0.986756
v -6.299673 0.780372 -0.927785
v -6.249937 0.688454 -0.945623
v -6.708014 0.827339 -1.288078
v -6.708092 0.942533 -1.409746
v -6.676188 0.672080 -1.517603
v -6.644926 0.621548 -1.408510
v -6.521227 0.783692 -1.350449
v -6.769556 0.585209 -1.457937
v -6.798018 0.633226 -1.369152
v -6.822080 0.682137 -1.480619
v -6.596871 0.952736 -1.340331
v -6.577792 0.912086 -1.453255
v -6.757967 0.455117 -1.601925
v -6.735956 0.409097 -1.504466
v -6.784472 0.602767 -1.382406
v -6.732752 0.340651 -1.667700
v -6.616047 0.339696 -1.556935
v -6.667436 0.461784 -1.620252
v -6.640381 0.416135 -1.523814
v -6.645494 0.390281 -1.663075
v -6.708349 0.289695 -1.560538
v -6.808888 0.654288 -1.492644
v -6.732213 0.685100 -1.423875
v -6.688782 0.663133 -1.516959
v -6.656706 0.612176 -1.408271
v -6.056647 0.289922 -1.293981
v -6.055387 0.782627 -1.067760
v -6.175334 0.629890 -1.071151
v -6.186629 0.786059 -1.107953
v -6.076699 0.785509 -1.234942
v -5.919882 0.394579 -1.315104
v -5.934001 0.341437 -1.192530
v -6.032209 0.278007 -1.203970
v -6.201132 0.628223 -1.234935
v -6.091892 0.375884 -1.281642
v -6.117479 0.281282 -1.269647
v -6.073206 0.382805 -1.189835
v -6.097321 0.279509 -1.169446
v -5.955834 0.382835 -1.184427
v -5.782609 0.279765 -1.203309
v -5.921443 0.376445 -1.314143
v -5.997566 0.459006 -1.244989
v -5.753252 0.281782 -1.360885
v -6.676003 0.325646 -1.322928
v -6.295554 0.441052 -1.586149
v -6.287637 0.659773 -1.539739
v -6.455694 0.513656 -1.187409
v -6.433372 0.268911 -1.274014
v -6.122370 0.551066 -1.587002
v -6.185375 0.639924 -1.441202
v -6.687674 0.453598 -1.277651
v -6.179193 0.408680 -1.468842
v -6.263850 0.467219 -1.598366
v -6.237439 0.659391 -1.587729
v -6.117750 0.622817 -1.474979
v -5.869694 0.388698 -1.734962
v -6.148136 0.424992 -1.487502
v -6.279712 0.579601 -1.484331
v -5.936795 0.229471 -1.723680
v -5.991308 0.248361 -1.797698
v -5.961395 0.357772 -1.827866
v -6.069870 0.393042 -1.697571
v -5.992795 0.392992 -1.786168
v -5.859782 0.289938 -1.898494
v -5.875351 0.386566 -1.721728
v -6.042636 0.291564 -1.610530
v -5.977750 0.469238 -1.714365
v -6.101220 0.289734 -1.694114
v -5.725643 0.291913 -1.811218
v -6.016225 0.386128 -1.620853
vt 0.049617 0.737374
vt 0.029784 0.897680
vt 0.138206 0.729705
vt 0.144023 0.890222
vt 0.200984 0.727696
vt 0.233722 0.931475
vt 0.287722 0.727220
vt 0.293698 0.931422
vt 0.376416 0.879592
vt 0.295391 0.722407
vt 0.283596 0.677399
vt 0.329504 0.693688
vt 0.342884 0.657777
vt 0.357482 0.709079
vt 0.121176 0.986109
vt 0.061411 0.990023
vt 0.360814 0.718810
vt 0.979535 0.975022
vt 0.854474 0.884169
vt 0.954903 0.847184
vt 0.794685 0.788930
vt 0.927493 0.744636
vt 0.766618 0.610001
vt 0.868874 0.584931
vt 0.844022 0.495978
vt 0.760113 0.895498
vt 0.662170 0.785787
vt 0.682636 0.607882
vt 0.713626 0.553428
vt 0.602965 0.497074
vt 0.794685 0.788930
vt 0.766618 0.610001
vt 0.682636 0.607882
vt 0.713626 0.553428
vt 0.668090 0.893378
vt 0.760113 0.895498
vt 0.662170 0.785787
vt 0.871432 0.974583
vt 0.854474 0.884169
vt 0.871432 0.974583
vt 0.668090 0.893378
vt 0.534172 0.019081
vt 0.519668 0.319788
vt 0.660271 0.031712
vt 0.650208 0.325478
vt 0.830992 0.044967
vt 0.810034 0.331100
vt 0.948416 0.073768
vt 0.948832 0.331377
vt 0.660271 0.031712
vt 0.650208 0.325478
vt 0.830992 0.044967
vt 0.810034 0.331100
vt 0.744799 0.473021
vt 0.894215 0.441583
vt 0.576367 0.433602
vt 0.925375 0.018179
vt 0.087701 0.325815
vt 0.183504 0.318873
vt 0.182335 0.461811
vt 0.274996 0.314634
vt 0.299111 0.496595
vt 0.403172 0.494768
vt 0.111378 0.085905
vt 0.069870 0.109801
vt 0.077689 0.074432
vt 0.048020 0.059889
vt 0.090916 0.037601
vt 0.064389 0.019405
vt 0.125993 0.040816
vt 0.073013 0.057478
vt 0.084486 0.115281
vt 0.035378 0.070486
vt 0.512422 0.430607
vt 0.366707 0.313027
vt 0.033478 0.472407
vt 0.454326 0.285404
vt 0.338779 0.141681
vt 0.363315 0.286300
vt 0.270291 0.162081
vt 0.274567 0.313919
vt 0.184487 0.164394
vt 0.181192 0.318266
vt 0.111302 0.144485
vt 0.085925 0.288473
vt 0.343196 0.086301
vt 0.270992 0.074735
vt 0.179580 0.075366
vt 0.104572 0.089176
vt 0.490829 0.018934
vt 0.499521 0.109925
vt 0.417222 0.024823
vt 0.421499 0.117426
vt 0.364577 0.112729
vt 0.456970 0.270387
vt 0.421569 0.127100
vt 0.360791 0.028678
vt 0.066507 0.082095
vt 0.040079 0.106631
vt 0.044215 0.052092
vt 0.091183 0.056298
vt 0.089711 0.110697
vt 0.182978 0.460608
vt 0.301804 0.495981
vt 0.277281 0.310868
vt 0.407625 0.494197
vt 0.370469 0.309307
vt 0.518722 0.428876
vt 0.459570 0.281217
vt 0.184093 0.315327
vt 0.086818 0.322312
vt 0.031678 0.471383
vt 0.090013 0.029223
vt 0.046392 0.051814
vt 0.076637 0.066603
vt 0.068611 0.102570
vt 0.110895 0.078418
vt 0.033610 0.062590
vt 0.083474 0.108218
vt 0.071807 0.049511
vt 0.125683 0.032493
vt 0.062963 0.010719
vt 0.420383 0.126893
vt 0.338209 0.141423
vt 0.362611 0.284776
vt 0.270217 0.161584
vt 0.274597 0.312167
vt 0.185123 0.163879
vt 0.181925 0.316478
vt 0.112613 0.144204
vt 0.087376 0.287001
vt 0.270982 0.074892
vt 0.180326 0.075587
vt 0.105869 0.089283
vt 0.360108 0.029286
vt 0.363793 0.112572
vt 0.416003 0.025393
vt 0.420313 0.117300
vt 0.497621 0.109930
vt 0.489000 0.019622
vt 0.455491 0.268995
vt 0.342589 0.086432
vt 0.046081 0.052506
vt 0.041979 0.106524
vt 0.068189 0.082330
vt 0.092591 0.056677
vt 0.091200 0.110626
vt 0.029785 0.556875
vt 0.049987 0.724204
vt 0.105516 0.562591
vt 0.139022 0.729623
vt 0.160307 0.543621
vt 0.201499 0.727603
vt 0.272106 0.680696
vt 0.343895 0.658819
vt 0.352715 0.709323
vt 0.320294 0.695281
vt 0.295904 0.721395
vt 0.285606 0.678085
vt 0.232195 0.495876
vt 0.198000 0.517507
vt 0.032889 0.548696
vt 0.063290 0.501789
vt 0.104383 0.551899
vt 0.108916 0.514698
vt 0.328621 0.634085
vt 0.333803 0.605495
vt 0.318795 0.569698
vt 0.373500 0.599192
vt 0.370784 0.557406
vt 0.422912 0.608106
vt 0.516686 0.585402
vt 0.448297 0.659398
vt 0.521805 0.662706
vt 0.382693 0.694011
vt 0.389413 0.732210
vt 0.408600 0.651598
vt 0.521213 0.507890
vt 0.371689 0.503990
vt 0.376316 0.880325
vt 0.294075 0.931699
vt 0.288081 0.728675
vt 0.234393 0.931805
vt 0.201897 0.729201
vt 0.145212 0.890684
vt 0.139480 0.731094
vt 0.031684 0.898309
vt 0.051403 0.738876
vt 0.357491 0.710691
vt 0.342978 0.659686
vt 0.329674 0.695285
vt 0.284084 0.679194
vt 0.295705 0.723890
vt 0.122496 0.986123
vt 0.063076 0.990014
vt 0.360804 0.720314
vt 0.274381 0.682804
vt 0.203403 0.729908
vt 0.161994 0.544908
vt 0.140597 0.731889
vt 0.106915 0.563977
vt 0.051093 0.726490
vt 0.030785 0.558380
vt 0.287903 0.680079
vt 0.298305 0.723717
vt 0.322823 0.697514
vt 0.355415 0.711482
vt 0.346499 0.660811
vt 0.234310 0.497011
vt 0.199787 0.518705
vt 0.033906 0.550109
vt 0.105677 0.553279
vt 0.064417 0.503004
vt 0.110283 0.515882
vt 0.331194 0.635996
vt 0.318913 0.570187
vt 0.373296 0.599491
vt 0.370594 0.557994
vt 0.422517 0.608393
vt 0.515799 0.585809
vt 0.447803 0.659485
vt 0.520787 0.662707
vt 0.382510 0.693812
vt 0.389195 0.731810
vt 0.408211 0.651691
vt 0.371599 0.504790
vt 0.520198 0.508704
vt 0.333808 0.605796
vn -0.2816 0.2030 -0.9378
vn -0.1278 0.1814 -0.9751
vn -0.7167 0.6500 0.2527
vn -0.7190 0.5377 0.4404
vn 0.2510 -0.0956 0.9633
vn 0.2356 -0.0673 0.9695
vn 0.7236 -0.6883 0.0514
vn 0.0917 0.9766 0.1943
vn 0.6025 0.2113 0.7696
vn 0.9552 -0.2347 -0.1801
vn -0.6754 -0.5375 -0.5049
vn -0.6753 -0.5378 -0.5048
vn 0.7871 -0.5809 -0.2074
vn 0.1047 0.4457 -0.8890
vn -0.1647 0.9820 -0.0930
vn 0.8933 0.3744 -0.2486
vn 0.8914 0.3845 -0.2399
vn 0.9686 -0.1300 -0.2121
vn 0.9863 -0.0792 -0.1449
vn 0.9755 0.1631 -0.1475
vn 0.3458 0.4359 0.8309
vn 0.4029 -0.0404 0.9144
vn 0.3929 -0.3122 0.8649
vn 0.7242 -0.4770 0.4980
vn 0.2193 -0.8838 0.4132
vn 0.7554 0.3512 -0.5532
vn 0.8277 -0.1644 -0.5365
vn -0.3823 -0.2325 -0.8943
vn -0.3325 -0.4897 -0.8060
vn -0.6341 -0.6583 -0.4056
vn -0.0807 -0.9572 -0.2778
vn 0.7873 -0.1278 -0.6032
vn 0.7632 0.1111 -0.6365
vn 0.1729 -0.6119 -0.7718
vn -0.3977 0.2540 -0.8816
vn -0.3977 0.2540 -0.8817
vn -0.0171 0.9981 0.0589
vn -0.1211 0.9926 0.0073
vn 0.7638 0.3427 -0.5470
vn -0.1311 0.9702 -0.2037
vn -0.0907 -0.5254 0.8460
vn -0.9830 0.1303 0.1291
vn -0.9731 0.1031 0.2058
vn -0.5121 -0.0391 -0.8580
vn -0.6007 -0.0801 -0.7955
vn 0.2367 -0.1718 -0.9563
vn 0.3364 -0.1296 -0.9328
vn -0.4821 0.1019 0.8702
vn 0.6700 -0.0420 0.7412
vn 0.5841 -0.0830 0.8074
vn 0.9833 -0.1737 0.0538
vn 0.9902 -0.1312 -0.0483
vn -0.2502 0.8220 -0.5115
vn 0.2598 0.7607 -0.5949
vn -0.4116 0.1289 0.9022
vn 0.4170 0.8204 0.3911
vn -0.1400 0.9169 0.3737
vn 0.7976 -0.6029 0.0195
vn 0.6462 0.7597 -0.0721
vn 0.2143 -0.6015 -0.7696
vn -0.3968 0.9175 0.0264
vn -0.4022 -0.8622 -0.3080
vn -0.6262 0.0381 0.7787
vn -0.6236 0.0744 0.7782
vn 0.4845 0.7964 0.3619
vn 0.0761 -0.3998 0.9135
vn 0.1029 -0.9932 -0.0544
vn 0.9075 -0.3614 -0.2141
vn -0.0168 0.3487 -0.9371
vn -0.7226 -0.4465 -0.5277
vn -0.9567 0.1803 0.2286
vn 0.7580 0.2360 -0.6080
vn 0.5022 0.7900 0.3517
vn -0.4026 -0.8636 -0.3036
vn 0.7751 -0.1092 -0.6223
vn 0.8550 0.2177 0.4707
vn -0.2388 0.9583 -0.1570
vn 0.4416 0.8378 0.3211
vn 0.7121 -0.5390 0.4499
vn 0.7136 -0.5371 0.4497
vn -0.3954 -0.8434 -0.3637
vn -0.3968 -0.8427 -0.3639
vn 0.4229 0.8384 0.3440
vn 0.4220 0.8404 0.3401
vn 0.6970 -0.5400 0.4718
vn 0.6977 -0.5393 0.4715
vn -0.4550 -0.8515 -0.2608
vn -0.5125 -0.8230 -0.2451
vn 0.3475 0.1571 -0.9244
vn 0.3739 0.1612 -0.9133
vn -0.7149 0.5720 -0.4021
vn -0.6044 0.5864 -0.5394
vn -0.6145 0.5761 -0.5390
vn -0.7159 0.5754 -0.3955
vn -0.1453 -0.2637 0.9536
vn -0.2144 0.6490 0.7300
vn -0.8727 0.4797 0.0904
vn -0.8175 -0.4984 0.2888
vn -0.9017 0.3137 0.2976
vn -0.2235 0.3459 -0.9113
vn -0.2101 0.3326 -0.9193
vn 0.7734 -0.1521 -0.6154
vn 0.7852 -0.4447 -0.4310
vn -0.9034 0.2852 0.3201
vn 0.1896 -0.4520 0.8716
vn 0.1852 -0.4534 0.8718
vn 0.4152 -0.7743 -0.4776
vn 0.0595 -0.8699 0.4896
vn -0.8769 -0.4802 -0.0214
vn -0.4442 0.6504 0.6161
vn 0.3350 0.0938 0.9375
vn 0.9129 0.4081 0.0073
vn -0.2528 -0.3482 -0.9027
vn 0.1131 0.9408 -0.3196
vn 0.9646 0.1940 -0.1788
vn -0.2095 0.4286 -0.8788
vn -0.2095 0.4286 -0.8789
vn -0.9544 -0.2877 0.0797
vn -0.9546 -0.2877 0.0770
vn 0.2077 -0.4838 0.8502
vn -0.2088 0.4523 -0.8671
vn -0.9599 -0.2647 0.0927
vn -0.9599 -0.2650 0.0917
vn 0.1734 -0.3855 0.9063
vn 0.2106 -0.3314 0.9197
vn 0.9333 0.3453 -0.0984
vn 0.9354 0.3400 -0.0975
vn 0.4316 -0.7619 -0.4829
vn 0.4562 -0.7589 -0.4647
vn 0.9619 0.1938 -0.1930
vn -0.2120 0.4534 -0.8657
vn -0.6439 0.6285 0.4363
vn -0.1274 0.9504 -0.2837
vn 0.6723 0.7265 0.1422
vn 0.1593 0.3616 0.9186
vn -0.2115 0.0797 -0.9741
vn -0.1680 0.1329 -0.9768
vn 0.9164 0.3177 0.2433
vn 0.9488 0.2938 -0.1159
vn 0.2336 -0.2046 0.9506
vn -0.9872 -0.0347 0.1558
vn -0.2821 0.2007 0.9382
vn 0.0217 0.9997 0.0145
vn -0.8845 -0.4290 0.1834
vn 0.0951 -0.3174 0.9435
vn 0.5570 -0.7835 -0.2755
vn 0.5455 -0.7988 -0.2538
vn -0.9003 -0.4100 0.1460
vn -0.6480 0.5127 -0.5632
vn -0.9453 0.2774 0.1715
vn -0.9459 0.2593 0.1949
vn -0.0451 0.2036 0.9780
vn 0.1070 -0.0023 0.9943
vn 0.5167 0.8509 0.0951
vn 0.5099 0.8537 0.1059
vn -0.1857 0.1496 -0.9712
vn -0.2425 -0.0572 -0.9685
vn -0.6768 0.7316 0.0826
vn -0.0367 0.6095 0.7919
vn 0.7942 0.5798 0.1820
vn -0.0019 -0.9999 -0.0132
vn -0.0011 -0.9998 -0.0175
vn -0.1589 0.5437 -0.8241
vn -0.0961 -0.8531 -0.5129
vn -0.5991 0.2180 -0.7704
vn -0.6038 0.1863 -0.7751
vn -0.3255 0.9183 0.2256
vn -0.1318 0.9363 0.3254
vn 0.7160 -0.1739 0.6761
vn 0.6324 -0.0752 0.7710
vn 0.4242 -0.6725 -0.6064
vn -0.1384 0.2104 -0.9678
vn 0.4594 0.8328 -0.3090
vn -0.2621 -0.3431 0.9020
vn 0.1716 -0.8928 -0.4166
vn 0.9122 -0.0245 0.4091
vn -0.5711 0.1234 -0.8115
vn 0.5483 0.7671 -0.3332
vn 0.2410 0.8243 -0.5123
vn 0.6464 -0.1467 0.7488
vn 0.6332 -0.2141 0.7438
vn -0.2474 0.8134 0.5265
vn -0.9501 0.1458 -0.2759
vn -0.6653 -0.5759 0.4750
vn -0.5321 -0.8272 0.1807
vn -0.6149 -0.0489 -0.7871
vn 0.7227 -0.3469 -0.5978
vn 0.7045 -0.3611 -0.6110
vn -0.5157 -0.8271 0.2233
vn -0.0425 -0.0566 0.9975
vn -0.7936 0.2592 0.5505
vn -0.7387 0.2027 -0.6428
vn -0.6461 -0.0020 -0.7633
vn 0.2878 0.8508 -0.4397
vn 0.2752 0.8536 -0.4424
vn 0.5753 0.1497 0.8041
vn 0.5341 -0.0571 0.8435
vn 0.4165 0.5784 -0.7014
vn -0.5984 0.6087 -0.5210
vn -0.5260 0.7316 0.4337
vn 0.0122 -0.9998 0.0134
vn 0.0078 -0.9999 0.0106
vn -0.7752 0.2784 0.5671
vn 0.4877 0.5432 0.6834
usemtl pstalker.png
s off
f 8/1/1 6/2/1 1/3/1
f 6/2/2 2/4/2 1/3/2
f 1/3/3 2/4/3 3/5/3
f 2/4/4 4/6/4 3/5/4
f 3/5/5 4/6/5 5/7/5
f 4/6/6 9/8/6 5/7/6
f 5/7/7 9/8/7 6/9/7
f 1/10/8 3/11/8 7/12/8
f 3/11/9 5/13/9 7/12/9
f 7/12/10 5/13/10 8/14/10
f 2/4/11 6/2/11 4/15/11
f 6/2/12 9/16/12 4/15/12
f 5/7/13 6/9/13 8/17/13
f 7/12/14 8/14/14 1/10/14
f 28/18/15 10/19/15 11/20/15
f 10/19/16 12/21/16 11/20/16
f 11/20/17 12/21/17 19/22/17
f 12/21/18 13/23/18 19/22/18
f 19/22/19 13/23/19 14/24/19
f 13/23/20 24/25/20 14/24/20
f 10/26/21 15/27/21 12/21/21
f 15/27/22 16/28/22 12/21/22
f 12/21/22 16/28/22 13/23/22
f 16/28/23 17/29/23 13/23/23
f 13/23/24 17/29/24 24/25/24
f 17/29/25 18/30/25 24/25/25
f 11/20/26 19/22/26 20/31/26
f 19/22/27 21/32/27 20/31/27
f 20/31/28 21/32/28 22/33/28
f 21/32/29 23/34/29 22/33/29
f 22/33/30 23/34/30 18/30/30
f 23/34/31 24/25/31 18/30/31
f 19/22/32 14/24/32 21/32/32
f 14/24/33 24/25/33 21/32/33
f 21/32/34 24/25/34 23/34/34
f 27/35/35 25/36/35 26/37/35
f 25/36/36 20/31/36 26/37/36
f 26/37/28 20/31/28 22/33/28
f 27/38/37 28/18/37 25/39/37
f 28/18/38 11/20/38 25/39/38
f 25/39/39 11/20/39 20/31/39
f 10/19/40 28/18/40 29/40/40
f 15/27/21 10/26/21 29/41/21
f 17/29/41 16/28/41 18/30/41
f 39/42/42 43/43/42 30/44/42
f 43/43/43 31/45/43 30/44/43
f 30/44/44 31/45/44 32/46/44
f 31/45/45 33/47/45 32/46/45
f 32/46/46 33/47/46 38/48/46
f 33/47/47 41/49/47 38/48/47
f 43/43/48 34/50/48 35/51/48
f 34/50/49 36/52/49 35/51/49
f 35/51/50 36/52/50 37/53/50
f 36/52/51 38/48/51 37/53/51
f 37/53/52 38/48/52 41/49/52
f 31/45/53 40/54/53 33/47/53
f 40/54/54 41/55/54 33/47/54
f 34/50/55 43/43/55 39/42/55
f 37/53/56 40/54/56 35/51/56
f 40/54/57 43/56/57 35/51/57
f 36/52/58 42/57/58 38/48/58
f 41/55/59 40/54/59 37/53/59
f 38/48/60 42/57/60 32/46/60
f 43/56/61 40/54/61 31/45/61
f 53/58/62 47/59/62 52/60/62
f 47/59/63 46/61/63 52/60/63
f 52/60/64 46/61/64 44/62/64
f 46/61/65 45/63/65 44/62/65
f 46/64/66 47/65/66 48/66/66
f 47/65/67 53/67/67 48/66/67
f 48/66/68 53/67/68 49/68/68
f 45/69/69 50/70/69 51/71/69
f 50/70/70 52/72/70 51/71/70
f 51/71/71 52/72/71 44/73/71
f 50/74/72 45/63/72 49/75/72
f 45/63/73 46/61/73 49/75/73
f 53/58/74 52/60/74 50/76/74
f 53/77/75 50/74/75 49/75/75
f 48/66/76 49/68/76 46/64/76
f 51/71/77 44/73/77 45/69/77
f 62/78/78 64/79/78 54/80/78
f 64/79/78 63/81/78 54/80/78
f 54/80/79 63/81/79 55/82/79
f 63/81/80 66/83/80 55/82/80
f 55/82/81 66/83/81 61/84/81
f 66/83/82 56/85/82 61/84/82
f 60/86/83 62/78/83 59/87/83
f 62/78/84 54/80/84 59/87/84
f 59/87/85 54/80/85 57/88/85
f 54/80/86 55/82/86 57/88/86
f 57/88/87 55/82/87 58/89/87
f 55/82/88 61/84/88 58/89/88
f 59/90/89 57/91/89 60/92/89
f 57/91/90 58/93/90 60/92/90
f 60/92/91 58/93/91 61/94/91
f 56/95/92 64/79/92 61/96/92
f 64/79/93 62/78/93 61/96/93
f 60/92/94 61/94/94 62/97/94
f 65/98/95 66/99/95 63/100/95
f 65/98/96 63/100/96 64/101/96
f 65/98/97 64/101/97 56/102/97
f 65/98/98 56/102/98 66/99/98
f 67/103/99 68/104/99 74/105/99
f 68/104/100 76/106/100 74/105/100
f 74/105/101 76/106/101 69/107/101
f 76/106/102 71/108/102 69/107/102
f 69/107/103 71/108/103 70/109/103
f 74/105/104 73/110/104 67/103/104
f 73/110/105 70/111/105 67/103/105
f 67/103/106 70/111/106 71/112/106
f 69/113/107 70/114/107 72/115/107
f 70/114/108 73/116/108 72/115/108
f 72/115/109 73/116/109 74/117/109
f 68/118/110 67/119/110 75/120/110
f 67/119/111 71/121/111 75/120/111
f 75/120/112 71/121/112 76/122/112
f 74/117/113 69/113/113 72/115/113
f 76/122/114 68/118/114 75/120/114
f 83/123/115 82/124/115 88/125/115
f 82/124/116 77/126/116 88/125/116
f 88/125/117 77/126/117 86/127/117
f 77/126/118 78/128/118 86/127/118
f 86/127/119 78/128/119 79/129/119
f 78/128/120 83/130/120 79/129/120
f 79/129/120 83/130/120 89/131/120
f 82/124/121 80/132/121 77/126/121
f 80/132/122 85/133/122 77/126/122
f 77/126/123 85/133/123 78/128/123
f 85/133/124 81/134/124 78/128/124
f 78/128/125 81/134/125 83/130/125
f 82/135/126 83/136/126 84/137/126
f 83/136/127 81/138/127 84/137/127
f 84/137/128 81/138/128 85/139/128
f 84/137/129 85/139/129 80/140/129
f 88/125/130 89/141/130 83/123/130
f 80/132/131 82/124/131 84/142/131
f 86/143/132 79/144/132 87/145/132
f 88/146/133 86/143/133 87/145/133
f 89/147/134 88/146/134 87/145/134
f 79/144/135 89/147/135 87/145/135
f 90/148/136 98/149/136 95/150/136
f 98/149/137 94/151/137 95/150/137
f 95/150/138 94/151/138 96/152/138
f 94/151/139 91/153/139 96/152/139
f 96/152/140 91/153/140 92/154/140
f 98/155/141 92/156/141 93/157/141
f 92/156/142 91/158/142 93/157/142
f 93/157/143 91/158/143 94/159/143
f 90/160/144 97/161/144 92/154/144
f 97/161/145 96/152/145 92/154/145
f 95/162/146 96/163/146 90/164/146
f 96/163/147 97/165/147 90/164/147
f 90/160/148 92/154/148 98/166/148
f 93/157/149 94/159/149 98/155/149
f 99/167/150 100/168/150 101/169/150
f 100/168/151 102/170/151 101/169/151
f 101/169/152 102/170/152 103/171/152
f 102/170/153 104/172/153 103/171/153
f 103/171/154 104/172/154 105/173/154
f 104/172/155 107/174/155 105/173/155
f 105/173/156 107/174/156 99/175/156
f 107/174/157 100/176/157 99/175/157
f 99/175/158 101/169/158 106/177/158
f 101/169/159 103/171/159 106/177/159
f 106/177/160 103/171/160 105/173/160
f 107/178/161 104/172/161 100/179/161
f 104/172/162 102/170/162 100/179/162
f 106/177/163 105/173/163 99/175/163
f 112/180/164 108/181/164 109/182/164
f 108/181/165 115/183/165 109/182/165
f 109/182/166 115/183/166 110/184/166
f 115/183/167 111/185/167 110/184/167
f 110/184/168 111/185/168 114/186/168
f 111/185/169 112/187/169 114/186/169
f 114/186/170 112/187/170 116/188/170
f 116/189/171 109/190/171 113/191/171
f 109/190/172 110/192/172 113/191/172
f 113/191/173 110/192/173 114/193/173
f 111/185/174 115/194/174 112/187/174
f 115/194/174 108/195/174 112/187/174
f 116/196/175 112/180/175 109/182/175
f 114/193/176 116/189/176 113/191/176
f 117/197/177 118/198/177 125/199/177
f 118/198/178 119/200/178 125/199/178
f 125/199/179 119/200/179 120/201/179
f 119/200/180 121/202/180 120/201/180
f 120/201/181 121/202/181 123/203/181
f 119/204/182 118/205/182 122/206/182
f 118/205/183 117/207/183 122/206/183
f 122/206/184 117/207/184 121/208/184
f 123/209/185 117/197/185 124/210/185
f 117/197/186 125/199/186 124/210/186
f 120/211/187 123/212/187 125/213/187
f 123/212/188 124/214/188 125/213/188
f 117/197/189 123/209/189 121/215/189
f 121/208/190 119/204/190 122/206/190
f 130/216/191 126/217/191 132/218/191
f 126/217/192 127/219/192 132/218/192
f 132/218/193 127/219/193 128/220/193
f 127/219/194 129/221/194 128/220/194
f 128/220/195 129/221/195 133/222/195
f 129/221/196 134/223/196 133/222/196
f 133/222/197 134/223/197 130/224/197
f 129/221/198 127/219/198 131/225/198
f 127/219/199 126/217/199 131/225/199
f 131/225/200 126/217/200 134/223/200
f 132/218/201 128/220/201 130/226/201
f 128/220/202 133/227/202 130/226/202
f 126/217/203 130/216/203 134/228/203
f 134/223/204 129/221/204 131/225/204
