# Blender v2.82 (sub 7) OBJ File: ''
# www.blender.org
mtllib l_1_0_village_stalker_3.mtl
v -5.742450 0.285655 0.048623
v -5.657207 0.292576 0.087498
v -5.583811 0.292605 -0.004254
v -5.497218 0.189534 -0.155466
v -5.668504 0.286215 -0.108351
v -5.747797 0.191053 0.076373
v -5.657334 0.368777 -0.006115
v -5.607405 0.191551 -0.271874
v -5.654898 0.189280 0.118992
v -5.704782 1.681059 -0.139150
v -5.489871 1.683728 -0.252699
v -5.410027 1.494704 -0.249071
v -5.600472 1.482325 -0.372637
v -5.477318 1.187349 -0.174815
v -5.624151 1.187135 -0.290279
v -5.620664 1.005887 -0.283022
v -5.494354 1.523834 -0.048965
v -5.530756 1.205808 -0.048010
v -5.552455 1.080361 -0.117361
v -5.621535 1.668420 -0.338082
v -5.822656 1.479890 -0.420802
v -5.809195 1.175434 -0.312938
v -5.862633 1.193893 -0.186133
v -5.790562 1.071812 -0.216458
v -5.722935 1.041215 -0.040336
v -5.834311 1.693780 -0.232079
v -5.775522 1.673472 -0.371584
v -5.906983 1.509020 -0.220696
v -5.548660 1.704036 -0.113194
v -5.754111 1.707706 -0.235514
v -5.734534 1.935925 -0.287596
v -5.705221 1.685373 -0.344083
v -5.695734 1.905839 -0.405365
v -5.586409 1.701193 -0.178598
v -5.554360 1.928927 -0.226447
v -5.560641 1.679757 -0.295014
v -5.515560 1.898842 -0.344216
v -5.612259 1.680345 -0.380711
v -5.613168 1.976352 -0.344158
v -5.685502 1.712058 -0.161275
v -5.657423 1.944052 -0.217460
v -5.629734 1.638854 -0.333972
v -5.586308 1.889693 -0.433217
v -5.453984 1.298465 -0.015049
v -5.339261 1.320952 -0.056823
v -5.406433 1.234442 -0.083107
v -5.505321 1.288008 -0.164641
v -5.388447 1.312130 -0.199148
v -5.442414 1.565938 -0.263397
v -5.516480 1.628390 -0.189958
v -5.527092 1.510486 -0.060407
v -5.402630 1.596956 -0.132046
v -5.584182 1.466007 -0.248680
v -5.439340 1.213073 -0.403007
v -5.540711 1.192410 -0.366085
v -5.483547 1.221486 -0.140944
v -5.568601 1.281425 -0.395493
v -5.603494 1.271689 -0.474335
v -5.475616 1.191857 -0.530588
v -5.587589 1.169087 -0.490254
v -5.490042 1.289789 -0.513267
v -5.520701 1.340522 -0.180398
v -5.465640 1.297337 -0.430936
v -5.432014 1.313353 -0.128884
v -5.369301 1.245009 -0.183258
v -5.404213 1.356859 -0.220331
v -5.938492 1.276594 -0.407253
v -5.677863 1.488964 -0.338396
v -5.815589 1.327920 -0.478062
v -5.739501 1.291910 -0.386707
v -5.848502 1.209053 -0.410153
v -5.868761 1.239064 -0.311728
v -5.920167 1.559014 -0.331588
v -5.843182 1.450958 -0.229266
v -5.807569 1.612056 -0.289154
v -5.804842 1.585526 -0.407716
v -5.685504 1.212286 -0.627049
v -5.745496 1.144588 -0.607192
v -5.682282 1.111666 -0.523403
v -5.821263 1.204086 -0.359380
v -5.557565 1.147973 -0.594641
v -5.618948 1.183136 -0.544366
v -5.594922 1.050436 -0.605756
v -5.664807 1.086761 -0.697800
v -5.630792 1.180526 -0.685579
v -5.892066 1.241253 -0.454295
v -5.842508 1.305088 -0.383395
v -5.736599 1.299627 -0.387404
v -5.812476 1.331067 -0.480639
v -5.645875 0.667691 -0.190170
v -5.718408 0.987040 -0.068565
v -5.532479 0.691048 -0.392519
v -5.627429 1.059958 -0.301774
v -5.404193 0.709147 -0.330896
v -5.491212 0.685007 -0.126039
v -5.528892 1.145913 -0.009774
v -5.519669 0.550173 -0.277989
v -5.481413 1.184011 -0.131619
v -5.581379 0.312666 -0.006087
v -5.485937 0.667124 -0.152476
v -5.483642 0.727043 -0.301725
v -5.401357 0.618746 -0.320504
v -5.558534 0.597160 -0.377440
v -5.729515 0.377260 0.037174
v -5.673079 0.289604 -0.101518
v -5.642862 0.373407 0.073471
v -5.642815 0.648666 -0.202893
v -5.704371 0.959380 -0.089431
v -5.799946 0.696826 -0.350171
v -5.845574 1.184949 -0.256681
v -5.612632 1.086750 -0.297419
v -5.585244 0.754338 -0.502796
v -5.662297 0.594409 -0.462688
v -5.720978 0.770340 -0.546169
v -5.893536 1.118360 -0.147945
v -5.643641 0.679735 -0.289957
v -5.786038 0.298040 -0.287199
v -5.568738 0.656653 -0.495531
v -5.722186 0.679841 -0.561042
v -5.685979 0.773492 -0.467430
v -5.783082 0.682914 -0.376588
v -5.716253 0.337841 -0.140683
v -5.652444 0.287649 -0.293628
v -5.802794 0.334193 -0.176800
v -5.634625 0.661292 -0.306184
v -5.807642 0.292192 -0.175217
v -5.786158 0.292142 -0.290667
v -5.728503 0.189089 -0.454939
v -5.652258 0.285716 -0.294704
v -5.740022 0.190714 -0.114020
v -5.736772 0.368388 -0.236417
v -5.832906 0.188885 -0.156337
v -5.568632 0.191063 -0.447764
v -5.722497 0.285278 -0.136312
vt 0.333803 0.605495
vt 0.318795 0.569698
vt 0.373500 0.599192
vt 0.370784 0.557406
vt 0.422912 0.608106
vt 0.516686 0.585402
vt 0.448297 0.659398
vt 0.521805 0.662706
vt 0.382693 0.694011
vt 0.389413 0.732210
vt 0.408600 0.651598
vt 0.521213 0.507890
vt 0.371689 0.503990
vt 0.979535 0.975022
vt 0.854474 0.884169
vt 0.954903 0.847184
vt 0.794685 0.788930
vt 0.927493 0.744636
vt 0.766618 0.610001
vt 0.868874 0.584931
vt 0.844022 0.495978
vt 0.760113 0.895498
vt 0.662170 0.785787
vt 0.682636 0.607882
vt 0.713626 0.553428
vt 0.602965 0.497074
vt 0.794685 0.788930
vt 0.766618 0.610001
vt 0.682636 0.607882
vt 0.713626 0.553428
vt 0.668090 0.893378
vt 0.760113 0.895498
vt 0.662170 0.785787
vt 0.871432 0.974583
vt 0.854474 0.884169
vt 0.871432 0.974583
vt 0.668090 0.893378
vt 0.534172 0.019081
vt 0.519668 0.319788
vt 0.660271 0.031712
vt 0.650208 0.325478
vt 0.830992 0.044967
vt 0.810034 0.331100
vt 0.948416 0.073768
vt 0.948832 0.331377
vt 0.660271 0.031712
vt 0.650208 0.325478
vt 0.830992 0.044967
vt 0.810034 0.331100
vt 0.744799 0.473021
vt 0.894215 0.441583
vt 0.576367 0.433602
vt 0.925375 0.018179
vt 0.087701 0.325815
vt 0.183504 0.318873
vt 0.182335 0.461811
vt 0.274996 0.314634
vt 0.299111 0.496595
vt 0.403172 0.494768
vt 0.111378 0.085905
vt 0.069870 0.109801
vt 0.077689 0.074432
vt 0.048020 0.059889
vt 0.090916 0.037601
vt 0.064389 0.019405
vt 0.125993 0.040816
vt 0.073013 0.057478
vt 0.084486 0.115281
vt 0.035378 0.070486
vt 0.512422 0.430607
vt 0.366707 0.313027
vt 0.033478 0.472407
vt 0.454326 0.285404
vt 0.338779 0.141681
vt 0.363315 0.286300
vt 0.270291 0.162081
vt 0.274567 0.313919
vt 0.184487 0.164394
vt 0.181192 0.318266
vt 0.111302 0.144485
vt 0.085925 0.288473
vt 0.343196 0.086301
vt 0.270992 0.074735
vt 0.179580 0.075366
vt 0.104572 0.089176
vt 0.490829 0.018934
vt 0.499521 0.109925
vt 0.417222 0.024823
vt 0.421499 0.117426
vt 0.364577 0.112729
vt 0.456970 0.270387
vt 0.421569 0.127100
vt 0.360791 0.028678
vt 0.066507 0.082095
vt 0.040079 0.106631
vt 0.044215 0.052092
vt 0.091183 0.056298
vt 0.089711 0.110697
vt 0.182978 0.460608
vt 0.301804 0.495981
vt 0.277281 0.310868
vt 0.407625 0.494197
vt 0.370469 0.309307
vt 0.518722 0.428876
vt 0.459570 0.281217
vt 0.184093 0.315327
vt 0.086818 0.322312
vt 0.031678 0.471383
vt 0.090013 0.029223
vt 0.046392 0.051814
vt 0.076637 0.066603
vt 0.068611 0.102570
vt 0.110895 0.078418
vt 0.033610 0.062590
vt 0.083474 0.108218
vt 0.071807 0.049511
vt 0.125683 0.032493
vt 0.062963 0.010719
vt 0.420383 0.126893
vt 0.338209 0.141423
vt 0.362611 0.284776
vt 0.270217 0.161584
vt 0.274597 0.312167
vt 0.185123 0.163879
vt 0.181925 0.316478
vt 0.112613 0.144204
vt 0.087376 0.287001
vt 0.270982 0.074892
vt 0.180326 0.075587
vt 0.105869 0.089283
vt 0.360108 0.029286
vt 0.363793 0.112572
vt 0.416003 0.025393
vt 0.420313 0.117300
vt 0.497621 0.109930
vt 0.489000 0.019622
vt 0.455491 0.268995
vt 0.342589 0.086432
vt 0.046081 0.052506
vt 0.041979 0.106524
vt 0.068189 0.082330
vt 0.092591 0.056677
vt 0.091200 0.110626
vt 0.049617 0.737374
vt 0.029784 0.897680
vt 0.138206 0.729705
vt 0.144023 0.890222
vt 0.200984 0.727696
vt 0.233722 0.931475
vt 0.287722 0.727220
vt 0.293698 0.931422
vt 0.376416 0.879592
vt 0.295391 0.722407
vt 0.283596 0.677399
vt 0.329504 0.693688
vt 0.342884 0.657777
vt 0.357482 0.709079
vt 0.121176 0.986109
vt 0.061411 0.990023
vt 0.360814 0.718810
vt 0.029785 0.556875
vt 0.049987 0.724204
vt 0.105516 0.562591
vt 0.139022 0.729623
vt 0.160307 0.543621
vt 0.201499 0.727603
vt 0.272106 0.680696
vt 0.343895 0.658819
vt 0.352715 0.709323
vt 0.320294 0.695281
vt 0.295904 0.721395
vt 0.285606 0.678085
vt 0.232195 0.495876
vt 0.198000 0.517507
vt 0.032889 0.548696
vt 0.063290 0.501789
vt 0.104383 0.551899
vt 0.108916 0.514698
vt 0.328621 0.634085
vt 0.376316 0.880325
vt 0.294075 0.931699
vt 0.288081 0.728675
vt 0.234393 0.931805
vt 0.201897 0.729201
vt 0.145212 0.890684
vt 0.139480 0.731094
vt 0.031684 0.898309
vt 0.051403 0.738876
vt 0.357491 0.710691
vt 0.342978 0.659686
vt 0.329674 0.695285
vt 0.284084 0.679194
vt 0.295705 0.723890
vt 0.122496 0.986123
vt 0.063076 0.990014
vt 0.360804 0.720314
vt 0.274381 0.682804
vt 0.203403 0.729908
vt 0.161994 0.544908
vt 0.140597 0.731889
vt 0.106915 0.563977
vt 0.051093 0.726490
vt 0.030785 0.558380
vt 0.287903 0.680079
vt 0.298305 0.723717
vt 0.322823 0.697514
vt 0.355415 0.711482
vt 0.346499 0.660811
vt 0.234310 0.497011
vt 0.199787 0.518705
vt 0.033906 0.550109
vt 0.105677 0.553279
vt 0.064417 0.503004
vt 0.110283 0.515882
vt 0.331194 0.635996
vt 0.318913 0.570187
vt 0.373296 0.599491
vt 0.370594 0.557994
vt 0.422517 0.608393
vt 0.515799 0.585809
vt 0.447803 0.659485
vt 0.520787 0.662707
vt 0.382510 0.693812
vt 0.389195 0.731810
vt 0.408211 0.651691
vt 0.371599 0.504790
vt 0.520198 0.508704
vt 0.333808 0.605796
vn -0.4172 0.2774 0.8654
vn -0.3986 0.2593 0.8797
vn 0.7645 0.2036 0.6116
vn 0.8671 -0.0024 0.4982
vn 0.3807 0.8509 -0.3620
vn 0.3855 0.8537 -0.3501
vn -0.8947 0.1496 -0.4209
vn -0.9259 -0.0572 -0.3734
vn -0.3312 0.7316 0.5959
vn 0.6190 0.6095 0.4953
vn 0.6142 0.5798 -0.5353
vn -0.0118 -0.9999 -0.0062
vn -0.0148 -0.9998 -0.0094
vn -0.7600 0.5437 -0.3561
vn -0.0587 0.9944 -0.0877
vn 0.5162 0.2021 -0.8323
vn 0.5221 0.2125 -0.8260
vn 0.5320 -0.3071 -0.7891
vn 0.5972 -0.2596 -0.7589
vn 0.6180 -0.0196 -0.7859
vn 0.8727 0.3746 0.3132
vn 0.9111 -0.1031 0.3990
vn 0.8360 -0.3691 0.4060
vn 0.8008 -0.5957 -0.0619
vn 0.3300 -0.9044 0.2707
vn 0.2054 0.2011 -0.9578
vn 0.2041 -0.3189 -0.9255
vn -0.9169 -0.1687 -0.3618
vn -0.8528 -0.4297 -0.2968
vn -0.8152 -0.5359 0.2199
vn -0.3685 -0.9294 -0.0200
vn 0.1340 -0.2763 -0.9517
vn 0.1238 -0.0373 -0.9916
vn -0.4826 -0.6418 -0.5961
vn -0.8582 0.3125 -0.4072
vn 0.1533 0.9850 -0.0788
vn 0.0427 0.9981 -0.0456
vn 0.2147 0.1913 -0.9578
vn -0.1121 0.9755 -0.1892
vn 0.4498 -0.4904 0.7464
vn -0.7192 0.2445 0.6503
vn -0.6690 0.2194 0.7101
vn -0.9129 -0.0148 -0.4080
vn -0.9521 -0.0432 -0.3027
vn -0.3673 -0.2344 -0.9001
vn -0.2695 -0.2027 -0.9414
vn 0.1128 0.1891 0.9755
vn 0.9691 -0.0879 0.2307
vn 0.9341 -0.1164 0.3375
vn 0.8214 -0.2806 -0.4967
vn 0.7713 -0.2431 -0.5882
vn -0.4404 0.8244 -0.3557
vn -0.0762 0.7030 -0.7071
vn 0.1906 0.2092 0.9591
vn 0.6219 0.7831 0.0048
vn 0.1639 0.9407 0.2971
vn 0.6202 -0.6873 -0.3783
vn 0.5390 0.6791 -0.4983
vn -0.3084 -0.6512 -0.6934
vn -0.2448 0.9565 0.1583
vn -0.9119 -0.2439 0.3300
vn 0.2764 0.2912 0.9159
vn 0.3000 0.3143 0.9007
vn 0.9400 0.1299 -0.3154
vn 0.3801 -0.5262 0.7606
vn -0.6186 -0.7401 0.2640
vn 0.0076 -0.8315 -0.5555
vn -0.4033 0.4552 -0.7938
vn -0.9273 0.3115 0.2076
vn -0.1325 0.7384 0.6612
vn 0.0630 -0.2323 -0.9706
vn 0.9366 0.1154 -0.3308
vn -0.9100 -0.2455 0.3340
vn -0.1567 -0.4776 -0.8645
vn 0.8006 -0.5479 -0.2427
vn 0.4013 0.8568 -0.3239
vn 0.9287 0.1830 -0.3226
vn 0.9287 0.1829 -0.3226
vn 0.2236 -0.9722 0.0700
vn 0.2254 -0.9719 0.0683
vn -0.9415 -0.2072 0.2658
vn -0.9417 -0.2057 0.2662
vn 0.9364 0.1901 -0.2950
vn 0.9349 0.1931 -0.2979
vn 0.2312 -0.9682 0.0953
vn 0.2317 -0.9682 0.0944
vn -0.9039 -0.1989 0.3786
vn -0.8982 -0.1442 0.4153
vn -0.3568 0.1115 -0.9275
vn -0.3364 0.0932 -0.9371
vn -0.1725 0.9840 -0.0452
vn -0.2078 0.9541 -0.2159
vn -0.2183 0.9539 -0.2059
vn -0.1664 0.9852 -0.0410
vn 0.3869 -0.3300 0.8610
vn 0.8087 0.3964 0.4345
vn 0.0230 0.9001 0.4352
vn -0.4633 0.1451 0.8742
vn -0.8390 -0.0894 0.5368
vn -0.5727 0.2466 -0.7818
vn -0.5580 0.2402 -0.7943
vn 0.5788 0.1923 -0.7925
vn 0.7516 -0.0744 -0.6554
vn -0.8235 -0.1167 0.5553
vn 0.5735 -0.3563 0.7376
vn 0.5702 -0.3595 0.7387
vn 0.5406 -0.5252 -0.6572
vn 0.5198 -0.7814 0.3453
vn -0.5934 -0.7958 0.1205
vn -0.4815 0.3969 0.7814
vn 0.5075 0.1994 0.8383
vn 0.6495 0.7451 -0.1518
vn -0.3270 -0.3989 -0.8567
vn -0.3499 0.9124 -0.2122
vn 0.5631 0.8091 -0.1680
vn -0.5870 0.2996 -0.7521
vn -0.5129 -0.8570 0.0502
vn -0.5135 -0.8567 0.0476
vn 0.6160 -0.3371 0.7119
vn -0.5996 0.3156 -0.7354
vn -0.5294 -0.8456 0.0682
vn -0.5294 -0.8457 0.0672
vn 0.5373 -0.2958 0.7898
vn 0.5326 -0.2334 0.8135
vn 0.4568 0.8879 -0.0547
vn 0.4619 0.8852 -0.0551
vn 0.7258 -0.2031 -0.6572
vn 0.7454 -0.1870 -0.6398
vn 0.5587 0.8092 -0.1818
vn -0.6025 0.3142 -0.7337
vn -0.8067 -0.0293 0.5903
vn -0.7557 0.6523 -0.0591
vn 0.0599 0.9596 0.2749
vn 0.0491 0.2408 0.9693
vn -0.8717 -0.0115 -0.4898
vn -0.9078 -0.1361 -0.3967
vn 0.3754 0.3114 -0.8730
vn 0.5309 0.3999 -0.7471
vn 0.9209 -0.0137 0.3896
vn 0.9332 -0.0143 0.3591
vn -0.0891 -0.2505 0.9640
vn 0.4238 -0.5479 -0.7213
vn 0.8178 -0.4979 0.2887
vn -0.1983 -0.7144 0.6711
vn -0.6407 0.7677 -0.0099
vn -0.6407 0.7678 -0.0096
vn -0.3127 -0.3992 0.8619
vn -0.7536 -0.4545 -0.4748
vn -0.9312 -0.0242 -0.3636
vn -0.9046 -0.0435 -0.4240
vn 0.6273 -0.6364 -0.4490
vn 0.3100 -0.7638 -0.5661
vn 0.8865 -0.0486 0.4602
vn -0.2224 0.9059 0.3603
vn 0.7929 0.5612 0.2375
vn 0.2731 0.3621 -0.8912
vn -0.2604 0.6722 0.6930
vn 0.8020 0.0304 0.5966
vn -0.2458 -0.8614 0.4444
vn -0.2343 -0.8515 0.4690
vn -0.2949 0.6842 0.6670
vn -0.6090 0.6312 -0.4803
vn -0.5877 -0.4523 0.6709
vn -0.9133 -0.0074 -0.4073
vn -0.9256 -0.0141 -0.3782
vn 0.1093 0.5909 -0.7993
vn 0.3152 0.5175 -0.7955
vn 0.9341 -0.1288 0.3331
vn 0.9628 0.0157 0.2697
vn -0.2665 -0.8524 0.4499
vn -0.7412 -0.4732 -0.4761
vn 0.2482 -0.3465 -0.9046
vn 0.3975 0.6940 0.6003
vn -0.3447 -0.5953 0.7258
vn 0.9060 -0.4102 0.1048
vn -0.9479 -0.0652 -0.3119
vn 0.2391 -0.5920 -0.7696
vn -0.0786 -0.4647 -0.8820
vn 0.9437 -0.0339 0.3292
vn 0.9189 -0.0306 0.3934
vn 0.3941 0.5690 -0.7217
vn -0.7789 0.5676 -0.2666
vn -0.1700 0.7827 0.5988
vn -0.3551 0.4798 0.8023
vn -0.9896 -0.0254 -0.1419
vn -0.0604 -0.9556 0.2884
vn -0.0845 -0.9507 0.2985
vn -0.3128 0.4940 0.8112
vn 0.7140 0.6606 0.2323
vn -0.4046 0.2592 0.8770
vn -0.9627 0.2027 -0.1792
vn -0.9440 -0.0020 -0.3300
vn 0.0250 0.8508 -0.5249
vn 0.0128 0.8536 -0.5208
vn 0.9037 0.1497 0.4012
vn 0.8881 -0.0571 0.4560
vn 0.0032 0.5784 -0.8158
vn -0.7800 0.6087 -0.1454
vn -0.2333 0.7316 0.6406
vn 0.0173 -0.9998 0.0053
vn 0.0121 -0.9999 0.0052
vn -0.3804 0.2784 0.8819
vn 0.7670 0.5432 0.3416
usemtl pstalker.png
s off
f 1/1/1 6/2/1 2/3/1
f 6/2/2 9/4/2 2/3/2
f 2/3/3 9/4/3 3/5/3
f 9/4/4 4/6/4 3/5/4
f 3/5/5 4/6/5 5/7/5
f 4/6/6 8/8/6 5/7/6
f 5/7/7 8/8/7 1/9/7
f 8/8/8 6/10/8 1/9/8
f 1/9/9 2/3/9 7/11/9
f 2/3/10 3/5/10 7/11/10
f 7/11/11 3/5/11 5/7/11
f 8/12/12 4/6/12 6/13/12
f 4/6/13 9/4/13 6/13/13
f 7/11/14 5/7/14 1/9/14
f 10/14/15 11/15/15 20/16/15
f 11/15/16 12/17/16 20/16/16
f 20/16/17 12/17/17 13/18/17
f 12/17/18 14/19/18 13/18/18
f 13/18/19 14/19/19 15/20/19
f 14/19/20 16/21/20 15/20/20
f 11/22/21 17/23/21 12/17/21
f 17/23/22 18/24/22 12/17/22
f 12/17/22 18/24/22 14/19/22
f 18/24/23 19/25/23 14/19/23
f 14/19/24 19/25/24 16/21/24
f 19/25/25 25/26/25 16/21/25
f 20/16/26 13/18/26 21/27/26
f 13/18/27 22/28/27 21/27/27
f 21/27/28 22/28/28 23/29/28
f 22/28/29 24/30/29 23/29/29
f 23/29/30 24/30/30 25/26/30
f 24/30/31 16/21/31 25/26/31
f 13/18/32 15/20/32 22/28/32
f 15/20/33 16/21/33 22/28/33
f 22/28/34 16/21/34 24/30/34
f 26/31/35 27/32/35 28/33/35
f 27/32/35 21/27/35 28/33/35
f 28/33/28 21/27/28 23/29/28
f 26/34/36 10/14/36 27/35/36
f 10/14/37 20/16/37 27/35/37
f 27/35/38 20/16/38 21/27/38
f 11/15/39 10/14/39 29/36/39
f 17/23/21 11/22/21 29/37/21
f 19/25/40 18/24/40 25/26/40
f 40/38/41 41/39/41 30/40/41
f 41/39/42 31/41/42 30/40/42
f 30/40/43 31/41/43 32/42/43
f 31/41/44 33/43/44 32/42/44
f 32/42/45 33/43/45 38/44/45
f 33/43/46 43/45/46 38/44/46
f 41/39/47 34/46/47 35/47/47
f 34/46/48 36/48/48 35/47/48
f 35/47/49 36/48/49 37/49/49
f 36/48/50 38/44/50 37/49/50
f 37/49/51 38/44/51 43/45/51
f 31/41/52 39/50/52 33/43/52
f 39/50/53 43/51/53 33/43/53
f 34/46/54 41/39/54 40/38/54
f 37/49/55 39/50/55 35/47/55
f 39/50/56 41/52/56 35/47/56
f 36/48/57 42/53/57 38/44/57
f 43/51/58 39/50/58 37/49/58
f 38/44/59 42/53/59 32/42/59
f 41/52/60 39/50/60 31/41/60
f 47/54/61 44/55/61 51/56/61
f 44/55/62 45/57/62 51/56/62
f 51/56/63 45/57/63 52/58/63
f 45/57/64 49/59/64 52/58/64
f 45/60/65 44/61/65 46/62/65
f 44/61/66 47/63/66 46/62/66
f 46/62/67 47/63/67 48/64/67
f 49/65/68 53/66/68 50/67/68
f 53/66/69 51/68/69 50/67/69
f 50/67/70 51/68/70 52/69/70
f 53/70/71 49/59/71 48/71/71
f 49/59/72 45/57/72 48/71/72
f 47/54/73 51/56/73 53/72/73
f 47/73/74 53/70/74 48/71/74
f 46/62/75 48/64/75 45/60/75
f 50/67/76 52/69/76 49/65/76
f 63/74/77 66/75/77 54/76/77
f 66/75/78 65/77/78 54/76/78
f 54/76/79 65/77/79 55/78/79
f 65/77/80 56/79/80 55/78/80
f 55/78/81 56/79/81 57/80/81
f 56/79/82 62/81/82 57/80/82
f 61/82/83 63/74/83 59/83/83
f 63/74/84 54/76/84 59/83/84
f 59/83/85 54/76/85 60/84/85
f 54/76/86 55/78/86 60/84/86
f 60/84/87 55/78/87 58/85/87
f 55/78/88 57/80/88 58/85/88
f 59/86/89 60/87/89 61/88/89
f 60/87/90 58/89/90 61/88/90
f 61/88/91 58/89/91 57/90/91
f 62/91/92 66/75/92 57/92/92
f 66/75/93 63/74/93 57/92/93
f 61/88/94 57/90/94 63/93/94
f 64/94/95 56/95/95 65/96/95
f 64/94/96 65/96/96 66/97/96
f 64/94/97 66/97/97 62/98/97
f 64/94/98 62/98/98 56/95/98
f 74/99/99 73/100/99 67/101/99
f 73/100/100 76/102/100 67/101/100
f 67/101/101 76/102/101 69/103/101
f 76/102/102 68/104/102 69/103/102
f 69/103/103 68/104/103 70/105/103
f 67/101/104 72/106/104 74/99/104
f 72/106/105 70/107/105 74/99/105
f 74/99/106 70/107/106 68/108/106
f 69/109/107 70/110/107 71/111/107
f 70/110/108 72/112/108 71/111/108
f 71/111/109 72/112/109 67/113/109
f 73/114/110 74/115/110 75/116/110
f 74/115/111 68/117/111 75/116/111
f 75/116/112 68/117/112 76/118/112
f 67/113/113 69/109/113 71/111/113
f 76/118/114 73/114/114 75/116/114
f 82/119/115 77/120/115 89/121/115
f 77/120/116 78/122/116 89/121/116
f 89/121/116 78/122/116 86/123/116
f 78/122/117 79/124/117 86/123/117
f 86/123/118 79/124/118 80/125/118
f 79/124/119 82/126/119 80/125/119
f 80/125/119 82/126/119 88/127/119
f 77/120/120 84/128/120 78/122/120
f 84/128/121 83/129/121 78/122/121
f 78/122/122 83/129/122 79/124/122
f 83/129/123 81/130/123 79/124/123
f 79/124/124 81/130/124 82/126/124
f 77/131/125 82/132/125 85/133/125
f 82/132/126 81/134/126 85/133/126
f 85/133/127 81/134/127 83/135/127
f 85/133/128 83/135/128 84/136/128
f 89/121/129 88/137/129 82/119/129
f 84/128/130 77/120/130 85/138/130
f 86/139/131 80/140/131 87/141/131
f 89/142/132 86/139/132 87/141/132
f 88/143/133 89/142/133 87/141/133
f 80/140/134 88/143/134 87/141/134
f 90/144/135 91/145/135 92/146/135
f 91/145/136 93/147/136 92/146/136
f 92/146/137 93/147/137 94/148/137
f 93/147/138 98/149/138 94/148/138
f 94/148/139 98/149/139 95/150/139
f 98/149/140 96/151/140 95/150/140
f 95/150/141 96/151/141 91/152/141
f 92/153/142 94/154/142 97/155/142
f 94/154/143 95/156/143 97/155/143
f 97/155/144 95/156/144 90/157/144
f 93/147/145 91/145/145 98/158/145
f 91/145/146 96/159/146 98/158/146
f 95/150/147 91/152/147 90/160/147
f 97/155/148 90/157/148 92/153/148
f 104/161/149 107/162/149 105/163/149
f 107/162/150 103/164/150 105/163/150
f 105/163/151 103/164/151 99/165/151
f 103/164/152 102/166/152 99/165/152
f 99/165/153 102/166/153 100/167/153
f 107/168/154 100/169/154 101/170/154
f 100/169/155 102/171/155 101/170/155
f 101/170/156 102/171/156 103/172/156
f 104/173/157 106/174/157 100/167/157
f 106/174/158 99/165/158 100/167/158
f 105/175/159 99/176/159 104/177/159
f 99/176/160 106/178/160 104/177/160
f 104/173/161 100/167/161 107/179/161
f 101/170/162 103/172/162 107/168/162
f 108/180/163 115/181/163 109/182/163
f 115/181/164 110/183/164 109/182/164
f 109/182/165 110/183/165 114/184/165
f 110/183/166 111/185/166 114/184/166
f 114/184/167 111/185/167 112/186/167
f 111/185/168 108/187/168 112/186/168
f 112/186/169 108/187/169 116/188/169
f 116/189/170 109/190/170 113/191/170
f 109/190/171 114/192/171 113/191/171
f 113/191/172 114/192/172 112/193/172
f 111/185/173 110/194/173 108/187/173
f 110/194/173 115/195/173 108/187/173
f 116/196/174 108/180/174 109/182/174
f 112/193/175 116/189/175 113/191/175
f 121/197/176 119/198/176 117/199/176
f 119/198/177 118/200/177 117/199/177
f 117/199/178 118/200/178 123/201/178
f 118/200/179 125/202/179 123/201/179
f 123/201/180 125/202/180 122/203/180
f 118/204/181 119/205/181 120/206/181
f 119/205/182 121/207/182 120/206/182
f 120/206/183 121/207/183 125/208/183
f 122/209/184 121/197/184 124/210/184
f 121/197/185 117/199/185 124/210/185
f 123/211/186 122/212/186 117/213/186
f 122/212/187 124/214/187 117/213/187
f 121/197/188 122/209/188 125/215/188
f 125/208/189 118/204/189 120/206/189
f 130/216/190 126/217/190 132/218/190
f 126/217/191 127/219/191 132/218/191
f 132/218/192 127/219/192 128/220/192
f 127/219/193 129/221/193 128/220/193
f 128/220/194 129/221/194 133/222/194
f 129/221/195 134/223/195 133/222/195
f 133/222/196 134/223/196 130/224/196
f 129/221/197 127/219/197 131/225/197
f 127/219/198 126/217/198 131/225/198
f 131/225/199 126/217/199 134/223/199
f 132/218/200 128/220/200 130/226/200
f 128/220/201 133/227/201 130/226/201
f 126/217/202 130/216/202 134/228/202
f 134/223/203 129/221/203 131/225/203
