# Blender v3.0.0 OBJ File: ''
# www.blender.org
mtllib collider.mtl
v -2.703255 -0.013251 -4.569931
v -2.703255 3.745585 -4.569931
v -2.703255 -0.013251 -5.588330
v -2.703255 3.745585 -5.588330
v -1.684856 -0.013251 -4.569931
v -1.684856 3.745585 -4.569931
v -1.684856 -0.013251 -5.588330
v -1.684856 3.745585 -5.588330
v 0.034638 0.015713 -1.203937
v 0.061530 1.358658 -1.200286
v -0.052157 0.021221 -2.453343
v -0.025265 1.364166 -2.449691
v 2.157904 -0.029416 -1.366715
v 2.184797 1.313529 -1.363063
v 2.071109 -0.023908 -2.616121
v 2.098002 1.319037 -2.612469
v 2.859481 0.015713 -1.427289
v 2.885079 1.367992 -1.418271
v 3.027323 0.021221 -2.668408
v 3.052920 1.373500 -2.659390
v 4.971757 -0.029416 -1.157017
v 4.997355 1.322863 -1.147998
v 5.139599 -0.023908 -2.398136
v 5.165197 1.328371 -2.389117
v 6.536180 0.044546 1.258222
v 6.536180 3.106685 1.258222
v 6.536180 0.044546 -4.994627
v 6.536180 3.106685 -4.994627
v 11.102273 0.044546 1.192582
v 11.102273 3.106685 1.192582
v 11.102273 0.044546 -5.060267
v 11.102273 3.106685 -5.060267
vt 0.375000 0.000000
vt 0.625000 0.000000
vt 0.625000 0.250000
vt 0.375000 0.250000
vt 0.625000 0.500000
vt 0.375000 0.500000
vt 0.625000 0.750000
vt 0.375000 0.750000
vt 0.625000 1.000000
vt 0.375000 1.000000
vt 0.875000 0.500000
vt 0.875000 0.750000
vt 0.375000 0.000000
vt 0.625000 0.000000
vt 0.625000 0.250000
vt 0.375000 0.250000
vt 0.625000 0.500000
vt 0.375000 0.500000
vt 0.625000 0.750000
vt 0.375000 0.750000
vt 0.625000 1.000000
vt 0.375000 1.000000
vt 0.875000 0.500000
vt 0.875000 0.750000
vt 0.375000 0.000000
vt 0.625000 0.000000
vt 0.625000 0.250000
vt 0.375000 0.250000
vt 0.625000 0.500000
vt 0.375000 0.500000
vt 0.625000 0.750000
vt 0.375000 0.750000
vt 0.625000 1.000000
vt 0.375000 1.000000
vt 0.875000 0.500000
vt 0.875000 0.750000
vt 0.375000 0.000000
vt 0.625000 0.000000
vt 0.625000 0.250000
vt 0.375000 0.250000
vt 0.625000 0.500000
vt 0.375000 0.500000
vt 0.625000 0.750000
vt 0.375000 0.750000
vt 0.625000 1.000000
vt 0.375000 1.000000
vt 0.875000 0.500000
vt 0.875000 0.750000
vn -1.0000 0.0000 0.0000
vn 0.0000 0.0000 -1.0000
vn 1.0000 0.0000 0.0000
vn 0.0000 0.0000 1.0000
vn 0.0000 1.0000 0.0000
vn -0.9974 0.0198 0.0694
vn -0.0763 0.0042 -0.9971
vn 0.9974 -0.0198 -0.0694
vn 0.0763 -0.0042 0.9971
vn 0.0215 0.9998 0.0029
vn -0.9908 0.0196 -0.1339
vn 0.1270 0.0042 -0.9919
vn 0.9908 -0.0196 0.1339
vn -0.1270 -0.0042 0.9919
vn 0.0204 0.9998 0.0072
vn -0.0144 0.0000 -0.9999
vn 0.0144 0.0000 0.9999
usemtl None
s off
f 1/1/1 2/2/1 4/3/1 3/4/1
f 3/4/2 4/3/2 8/5/2 7/6/2
f 7/6/3 8/5/3 6/7/3 5/8/3
f 5/8/4 6/7/4 2/9/4 1/10/4
f 8/5/5 4/11/5 2/12/5 6/7/5
f 9/13/6 10/14/6 12/15/6 11/16/6
f 11/16/7 12/15/7 16/17/7 15/18/7
f 15/18/8 16/17/8 14/19/8 13/20/8
f 13/20/9 14/19/9 10/21/9 9/22/9
f 16/17/10 12/23/10 10/24/10 14/19/10
f 17/25/11 18/26/11 20/27/11 19/28/11
f 19/28/12 20/27/12 24/29/12 23/30/12
f 23/30/13 24/29/13 22/31/13 21/32/13
f 21/32/14 22/31/14 18/33/14 17/34/14
f 24/29/15 20/35/15 18/36/15 22/31/15
f 25/37/1 26/38/1 28/39/1 27/40/1
f 27/40/16 28/39/16 32/41/16 31/42/16
f 31/42/3 32/41/3 30/43/3 29/44/3
f 29/44/17 30/43/17 26/45/17 25/46/17
f 32/41/5 28/47/5 26/48/5 30/43/5
