# Blender v2.82 (sub 7) OBJ File: ''
# www.blender.org
mtllib fps_oc_groza.mtl
v -0.153928 -0.204346 0.235229
v -0.182334 -0.234173 0.155001
v -0.162226 -0.118644 0.214396
v -0.192026 -0.132168 0.130299
v -0.163993 -0.030838 0.211314
v -0.194308 -0.027767 0.126539
v -0.231539 -0.028071 0.139840
v -0.229265 -0.132587 0.143593
v -0.219535 -0.234604 0.168404
v -0.199347 -0.118954 0.227659
v -0.201193 -0.031269 0.224718
v -0.236989 0.090318 -0.005993
v -0.068583 0.059692 0.464796
v -0.226674 -0.021893 0.019974
v -0.069924 -0.040454 0.458712
v -0.117259 -0.040801 0.475617
v -0.115918 0.059346 0.481701
v -0.274017 -0.022355 0.036871
v -0.284223 0.089851 0.010866
v -0.238781 -0.072198 -0.015280
v -0.286124 -0.072660 0.001617
v -0.191158 -0.204651 0.248531
v -0.115279 -0.007152 0.481062
v -0.029057 -0.022800 0.722285
v -0.091725 0.041031 0.475782
v -0.005502 0.025383 0.717005
v -0.069483 -0.006739 0.464693
v 0.016740 -0.022387 0.705917
v -0.138148 -0.144374 0.340691
v -0.116410 -0.038982 0.404227
v -0.150732 -0.127940 0.305798
v -0.140646 -0.036540 0.336597
v -0.172162 0.075469 0.250605
v -0.158893 0.073122 0.287502
v -0.164799 0.152910 0.273187
v -0.158769 0.115145 0.289081
v -0.097851 0.140835 0.460153
v -0.104816 0.105458 0.439926
v -0.092823 0.061007 0.472663
v -0.106050 0.063486 0.435517
vt 0.692382 0.558886
vt 0.691587 0.509595
vt 0.736487 0.554684
vt 0.744097 0.504711
vt 0.778699 0.561082
vt 0.794297 0.512207
vt 0.914004 0.586409
vt 0.914004 0.591899
vt 0.885989 0.586409
vt 0.885989 0.591899
vt 0.859110 0.586409
vt 0.859110 0.591899
vt 0.794713 0.512094
vt 0.736411 0.554798
vt 0.743983 0.504787
vt 0.692609 0.559113
vt 0.691890 0.509784
vt 0.936984 0.628091
vt 0.689694 0.628091
vt 0.919910 0.564906
vt 0.689694 0.566912
vt 0.689808 0.566988
vt 0.689808 0.628205
vt 0.919986 0.565095
vt 0.937211 0.628205
vt 0.934183 0.566912
vt 0.934183 0.581488
vt 0.690982 0.566912
vt 0.690982 0.581488
vt 0.937098 0.610714
vt 0.937098 0.628091
vt 0.689202 0.610714
vt 0.689202 0.628091
vt 0.873799 0.608405
vt 0.873799 0.601515
vt 0.917412 0.608405
vt 0.917412 0.601515
vt 0.866417 0.600303
vt 0.866417 0.593413
vt 0.894507 0.600303
vt 0.894507 0.593413
vt 0.863312 0.591899
vt 0.863312 0.586409
vt 0.885913 0.591899
vt 0.885913 0.586409
vt 0.909386 0.591899
vt 0.909386 0.586409
vt 0.852788 0.528108
vt 0.828218 0.528108
vt 0.852788 0.502705
vt 0.828218 0.502705
vt 0.828218 0.503500
vt 0.852788 0.503500
vt 0.828218 0.526404
vt 0.852788 0.526404
vt 0.827915 0.503916
vt 0.852598 0.503916
vt 0.827915 0.526518
vt 0.852598 0.526518
vt 0.873912 0.608291
vt 0.873912 0.601401
vt 0.887806 0.608291
vt 0.887806 0.601401
vt 0.778888 0.561006
vt 0.858088 0.503008
vt 0.910900 0.501607
vt 0.859413 0.523602
vt 0.911013 0.523413
vt 0.936984 0.500395
vt 0.914610 0.500395
vt 0.936492 0.563619
vt 0.915291 0.535301
vt 0.805881 0.563619
vt 0.824697 0.535301
vt 0.802890 0.500395
vt 0.825795 0.500395
vt 0.689089 0.567783
vt 0.723994 0.567518
vt 0.689694 0.627712
vt 0.724600 0.627410
vt 0.785400 0.509216
vt 0.793615 0.500812
vt 0.801793 0.509216
vt 0.936795 0.553094
vt 0.936909 0.553208
vn 0.9415 0.0093 -0.3368
vn 0.9418 0.0088 -0.3360
vn 0.9418 0.0091 -0.3362
vn 0.9422 0.0075 -0.3350
vn 0.9422 0.0072 -0.3350
vn 0.9417 0.0085 -0.3364
vn -0.3358 -0.0411 -0.9410
vn -0.3355 -0.0412 -0.9411
vn -0.3228 -0.2526 -0.9121
vn -0.3249 -0.2519 -0.9116
vn -0.3233 -0.2525 -0.9120
vn -0.3255 -0.2516 -0.9115
vn -0.9417 -0.0080 0.3365
vn -0.9417 -0.0083 0.3365
vn -0.9417 -0.0082 0.3364
vn -0.9417 -0.0085 0.3364
vn -0.9417 -0.0084 0.3364
vn 0.9417 0.0088 -0.3362
vn 0.9417 0.0085 -0.3362
vn 0.9418 0.0083 -0.3361
vn 0.9418 0.0078 -0.3361
vn -0.9418 -0.0078 0.3362
vn -0.9418 -0.0078 0.3360
vn -0.9420 -0.0079 0.3354
vn -0.0069 -0.9992 -0.0398
vn -0.0052 -0.9992 -0.0402
vn -0.0062 -0.9992 -0.0400
vn -0.0047 -0.9992 -0.0403
vn 0.0118 0.9981 0.0607
vn 0.0134 0.9981 0.0600
vn 0.0124 0.9981 0.0604
vn 0.0140 0.9981 0.0597
vn -0.3361 0.0574 -0.9401
vn 0.1223 -0.9431 0.3092
vn 0.1189 -0.9436 0.3090
vn 0.1215 -0.9432 0.3092
vn 0.1181 -0.9437 0.3090
vn 0.3237 0.2530 0.9117
vn 0.3359 0.0386 0.9411
vn 0.3383 0.0398 0.9402
vn -0.8344 0.4437 0.3270
vn -0.0125 -0.9981 -0.0603
vn 0.8464 0.4574 -0.2729
vn 0.2752 -0.5953 0.7549
vn -0.9419 -0.0082 0.3358
vn -0.9418 -0.0084 0.3361
vn -0.9415 -0.0093 0.3369
vn -0.9414 -0.0097 0.3370
vn -0.9411 -0.0090 0.3379
vn -0.9421 -0.0096 0.3352
vn -0.9420 -0.0098 0.3354
vn -0.9418 -0.0077 0.3362
vn -0.9417 -0.0079 0.3364
vn -0.9420 -0.0072 0.3356
vn -0.9419 -0.0068 0.3359
vn -0.9422 -0.0075 0.3350
vn 0.3361 -0.0616 0.9398
vn 0.3364 -0.0615 0.9397
vn -0.9422 -0.0080 0.3350
usemtl mesh_23_submesh_0_mat_98
s 1
f 1/1/1 2/2/2 3/3/3
f 2/2/2 4/4/4 3/3/3
f 3/3/3 4/4/4 5/5/5
f 4/4/6 6/6/6 5/5/6
f 7/7/7 6/8/7 8/9/7
f 6/8/8 4/10/8 8/9/8
f 8/9/9 4/10/10 9/11/11
f 4/10/10 2/12/12 9/11/11
f 9/13/13 10/14/14 8/15/15
f 10/14/14 11/16/16 8/15/15
f 8/15/15 11/16/16 7/17/17
f 12/18/18 13/19/19 14/20/20
f 13/19/19 15/21/21 14/20/20
f 16/22/22 17/23/22 18/24/23
f 17/23/22 19/25/24 18/24/23
f 15/26/25 16/27/26 14/28/27
f 16/27/26 18/29/28 14/28/27
f 12/30/29 19/31/30 13/32/31
f 19/31/30 17/33/32 13/32/31
f 20/34/33 21/35/33 12/36/33
f 21/35/33 19/37/33 12/36/33
f 9/38/34 2/39/35 22/40/36
f 2/39/35 1/41/37 22/40/36
f 22/42/38 1/43/38 10/44/38
f 1/43/38 3/45/38 10/44/38
f 10/44/39 3/45/39 11/46/39
f 3/45/40 5/47/40 11/46/40
f 23/48/41 24/49/41 25/50/41
f 24/49/41 26/51/41 25/50/41
f 27/52/42 28/53/42 23/54/42
f 28/53/42 24/55/42 23/54/42
f 25/56/43 26/57/43 27/58/43
f 26/57/43 28/59/43 27/58/43
f 21/60/44 20/61/44 18/62/44
f 20/61/44 14/63/44 18/62/44
f 10/14/14 9/13/13 22/64/13
f 29/65/45 30/66/46 31/67/47
f 30/66/46 32/68/48 31/67/47
f 33/69/49 34/70/50 35/71/51
f 34/70/50 36/72/52 35/71/51
f 35/71/51 36/72/52 37/73/53
f 36/72/52 38/74/54 37/73/53
f 37/73/53 38/74/54 39/75/55
f 38/74/54 40/76/56 39/75/55
f 16/77/57 15/78/57 17/79/57
f 15/78/57 13/80/57 17/79/57
f 28/81/58 26/82/58 24/83/58
f 20/84/2 12/18/18 14/20/20
f 21/85/59 18/24/23 19/25/24
