# Blender v2.82 (sub 7) OBJ File: ''
# www.blender.org
mtllib fps_ak74.mtl
v -0.146782 0.039659 0.296243
v -0.029474 0.007226 0.644228
v -0.163650 -0.033371 0.266434
v -0.037466 -0.068188 0.639970
v -0.073344 -0.064961 0.652321
v -0.065232 0.010436 0.656539
v -0.199370 -0.030176 0.278864
v -0.182660 0.042885 0.308594
v -0.037466 -0.068188 0.639970
v -0.073344 -0.064961 0.652321
v -0.163650 -0.033371 0.266434
v -0.199370 -0.030176 0.278864
v -0.029474 0.007226 0.644228
v -0.065232 0.010436 0.656539
v -0.037466 -0.068188 0.639970
v -0.073344 -0.064961 0.652321
v -0.146782 0.039659 0.296243
v -0.182660 0.042885 0.308594
v -0.029474 0.007226 0.644228
v -0.065232 0.010436 0.656539
v -0.176553 -0.116795 0.306350
v -0.154669 -0.038992 0.349760
v -0.188629 -0.113411 0.270554
v -0.172257 -0.034200 0.297938
v -0.122234 -0.219546 0.550379
v -0.146015 -0.262910 0.492686
v -0.086475 -0.222755 0.538069
v -0.110236 -0.265995 0.480384
v 0.018997 -0.078808 0.819120
v -0.040362 -0.062385 0.642964
v 0.008133 -0.052589 0.825206
v -0.051306 -0.036165 0.649212
v -0.112056 -0.047618 0.419203
v -0.092404 -0.142448 0.500472
v -0.117941 -0.161932 0.431693
v -0.086475 -0.222755 0.538069
v -0.110236 -0.265995 0.480384
v -0.123603 -0.051067 0.503236
v -0.153720 -0.158847 0.443995
v -0.128123 -0.139254 0.512903
v -0.146015 -0.262910 0.492686
v -0.122234 -0.219546 0.550379
v -0.087882 -0.054263 0.490805
v -0.067728 -0.059971 0.652475
v -0.008250 -0.076411 0.828589
v -0.051306 -0.036165 0.649212
v 0.008133 -0.052589 0.825206
v -0.040362 -0.062385 0.642964
v 0.018997 -0.078808 0.819120
v -0.067728 -0.059971 0.652475
v -0.008250 -0.076411 0.828589
v -0.046074 0.002521 0.650998
v -0.050169 -0.035176 0.648969
v -0.033958 -0.000877 0.686913
v -0.026826 -0.041632 0.718045
v -0.182660 0.042885 0.308594
v -0.146782 0.039659 0.296243
v -0.199370 -0.030176 0.278864
v -0.163650 -0.033371 0.266434
v -0.178590 -0.022092 0.274657
v -0.174966 -0.008108 0.281534
v -0.262992 -0.051466 0.038095
v -0.250502 -0.021808 0.066601
v -0.251731 0.052921 0.043966
v -0.245410 0.026377 0.069211
v -0.166109 0.031835 0.297064
v -0.169585 0.016762 0.290674
v -0.262992 -0.051466 0.038095
v -0.250502 -0.021808 0.066601
v -0.251731 0.052921 0.043966
v -0.245410 0.026377 0.069211
v -0.147815 -0.044409 0.431514
v 0.018997 -0.078808 0.819120
v 0.008133 -0.052589 0.825206
v -0.008250 -0.076411 0.828589
v 0.010740 0.000742 0.815575
v -0.003792 -0.047968 0.786161
v 0.005039 -0.050392 0.812392
v -0.122234 -0.219546 0.550379
v -0.092404 -0.142448 0.500472
v -0.128123 -0.139254 0.512903
v -0.087882 -0.054263 0.490805
v -0.123603 -0.051067 0.503236
v -0.147815 -0.044409 0.431514
v -0.117941 -0.161932 0.431693
v -0.153720 -0.158847 0.443995
v -0.110236 -0.265995 0.480384
v -0.146015 -0.262910 0.492686
v -0.172257 -0.034200 0.297938
v -0.172257 -0.034200 0.297938
v -0.154669 -0.038992 0.349760
v -0.112056 -0.047618 0.419203
v -0.086475 -0.222755 0.538069
vt 0.709402 0.748206
vt 0.935092 0.748018
vt 0.690105 0.691784
vt 0.934489 0.691595
vt 0.934904 0.692688
vt 0.935507 0.749111
vt 0.690482 0.692387
vt 0.709704 0.748809
vt 0.935092 0.691294
vt 0.935318 0.703505
vt 0.690708 0.692085
vt 0.709515 0.704184
vt 0.689389 0.627785
vt 0.721086 0.627484
vt 0.689992 0.689598
vt 0.721689 0.689296
vt 0.709817 0.736711
vt 0.710005 0.748809
vt 0.935582 0.735994
vt 0.935695 0.748093
vt 0.934489 0.629218
vt 0.936411 0.690691
vt 0.909613 0.629595
vt 0.908106 0.688806
vt 0.803101 0.672599
vt 0.765184 0.672599
vt 0.803101 0.660501
vt 0.765184 0.660501
vt 0.873393 0.643804
vt 0.809508 0.643804
vt 0.873393 0.628992
vt 0.809508 0.628992
vt 0.722782 0.655186
vt 0.785688 0.682210
vt 0.784896 0.644897
vt 0.834007 0.689409
vt 0.847500 0.654282
vt 0.737783 0.690502
vt 0.784896 0.645198
vt 0.785688 0.682512
vt 0.847500 0.654583
vt 0.834007 0.689711
vt 0.737783 0.690088
vt 0.873581 0.644482
vt 0.809696 0.644482
vt 0.873581 0.627409
vt 0.809696 0.627409
vt 0.809583 0.626089
vt 0.873506 0.626089
vt 0.809583 0.643201
vt 0.873506 0.643201
vt 0.850402 0.687185
vt 0.850213 0.658202
vt 0.898985 0.687185
vt 0.907917 0.656016
vt 0.709704 0.748809
vt 0.709817 0.736711
vt 0.709515 0.704184
vt 0.690105 0.691784
vt 0.801518 0.628313
vt 0.804118 0.643804
vt 0.722782 0.628087
vt 0.723084 0.644407
vt 0.722895 0.643088
vt 0.723084 0.628690
vt 0.807510 0.644595
vt 0.806003 0.627785
vt 0.804797 0.632007
vt 0.779582 0.641618
vt 0.723197 0.632007
vt 0.742118 0.641618
vt 0.722707 0.655488
vt 0.850515 0.655789
vt 0.860013 0.647799
vt 0.869398 0.655789
vt 0.841017 0.734901
vt 0.823114 0.718318
vt 0.841205 0.718393
vt 0.817800 0.661518
vt 0.780599 0.673014
vt 0.780599 0.661518
vt 0.738311 0.673014
vt 0.738311 0.661405
vt 0.838793 0.673014
vt 0.783992 0.661405
vt 0.783992 0.673014
vt 0.735786 0.661405
vt 0.735710 0.673014
vt 0.908106 0.688806
vt 0.908106 0.688806
vt 0.936411 0.690691
vt 0.838793 0.661405
vt 0.817687 0.673089
vn 0.9418 -0.0847 -0.3254
vn 0.9419 -0.0814 -0.3258
vn -0.9419 0.0831 0.3256
vn -0.9419 0.0829 0.3256
vn -0.1085 -0.9925 -0.0559
vn -0.1082 -0.9926 -0.0559
vn 0.3173 -0.0870 0.9443
vn 0.1085 0.9925 0.0559
vn 0.1084 0.9925 0.0560
vn -0.9418 0.0832 0.3256
vn -0.9415 0.0815 0.3271
vn 0.1209 -0.8168 0.5641
vn 0.1229 -0.8177 0.5623
vn 0.8711 0.4200 -0.2544
vn 0.8695 0.4235 -0.2541
vn 0.9417 -0.0841 -0.3258
vn 0.9417 -0.0831 -0.3261
vn 0.9418 -0.0828 -0.3259
vn -0.9417 0.0840 0.3259
vn -0.9417 0.0829 0.3262
vn -0.9418 0.0830 0.3258
vn 0.9417 -0.0840 -0.3257
vn -0.7621 0.5682 0.3104
vn -0.1072 -0.9926 -0.0564
vn -0.1070 -0.9927 -0.0565
vn -0.9417 0.0848 0.3257
vn -0.9416 0.0843 0.3261
vn -0.2627 0.4146 -0.8713
vn -0.2654 0.4163 -0.8696
vn -0.9418 0.0839 0.3256
vn -0.9418 0.0836 0.3256
vn -0.9416 0.0855 0.3257
vn -0.9421 0.0791 0.3260
vn -0.9417 0.0832 0.3260
vn -0.9430 0.0822 0.3225
vn -0.9417 0.0841 0.3257
vn 0.3203 -0.0863 0.9434
vn -0.9419 0.0848 0.3249
vn 0.3296 0.4199 0.8456
vn 0.3377 0.2564 0.9057
vn 0.3381 0.2562 0.9056
vn 0.3343 0.0858 0.9386
vn -0.3311 -0.0856 -0.9397
vn -0.3341 -0.2566 -0.9070
vn -0.3340 -0.2569 -0.9069
vn -0.3272 -0.4202 -0.8464
vn 0.0000 0.0000 1.0000
vn 0.4893 0.6969 -0.5244
vn -0.3312 -0.0856 -0.9397
vn 0.3289 0.4202 0.8457
usemtl _98
s off
f 1/1/1 2/2/1 3/3/1
f 3/3/2 2/2/2 4/4/2
f 5/5/3 6/6/3 7/7/3
f 7/7/4 6/6/4 8/8/4
f 9/9/5 10/10/5 11/11/5
f 11/11/6 10/10/6 12/12/6
f 13/13/7 14/14/7 15/15/7
f 15/15/7 14/14/7 16/16/7
f 17/17/8 18/18/8 19/19/8
f 19/19/9 18/18/9 20/20/9
f 21/21/10 22/22/10 23/23/10
f 23/23/11 22/22/11 24/24/11
f 25/25/12 26/26/12 27/27/12
f 27/27/13 26/26/13 28/28/13
f 29/29/14 30/30/14 31/31/14
f 31/31/15 30/30/15 32/32/15
f 33/33/16 34/34/16 35/35/16
f 35/35/17 34/34/17 36/36/17
f 35/35/18 36/36/18 37/37/18
f 38/38/19 39/39/19 40/40/19
f 40/40/20 39/39/20 41/41/20
f 40/40/21 41/41/21 42/42/21
f 34/34/22 33/33/22 43/43/22
f 44/44/23 45/45/23 46/46/23
f 46/46/23 45/45/23 47/47/23
f 48/48/24 49/49/24 50/50/24
f 50/50/25 49/49/25 51/51/25
f 52/52/26 53/53/26 54/54/26
f 54/54/27 53/53/27 55/55/27
f 56/56/28 57/57/28 58/58/28
f 58/58/29 57/57/29 59/59/29
f 60/60/30 61/61/30 62/62/30
f 62/62/31 61/61/31 63/63/31
f 64/64/32 65/65/32 66/66/32
f 66/66/33 65/65/33 67/67/33
f 68/68/34 69/69/34 70/70/34
f 70/70/35 69/69/35 71/71/35
f 39/39/36 38/38/36 72/72/36
f 73/73/37 74/74/37 75/75/37
f 76/76/38 77/77/38 78/78/38
s 1
f 79/79/39 80/80/40 81/81/41
f 81/81/41 80/80/40 82/82/42
f 81/81/41 82/82/42 83/83/42
f 84/84/43 85/85/44 86/86/45
f 86/86/45 85/85/44 87/87/46
f 86/86/45 87/87/46 88/88/46
f 89/89/47 90/90/47 91/91/48
f 85/85/44 84/84/43 92/92/49
f 80/80/40 79/79/39 93/93/50
