# Blender v2.82 (sub 7) OBJ File: ''
# www.blender.org
mtllib fps_hands.mtl
v -0.230291 -0.041188 0.304074
v -0.287572 -0.090654 0.089731
v -0.256038 -0.128759 0.319584
v -0.321748 -0.206893 0.110320
v -0.153961 -0.163652 0.298869
v -0.206694 -0.246764 0.086470
v -0.126654 -0.071188 0.282402
v -0.170321 -0.123056 0.064559
v -0.207511 -0.008057 0.380324
v -0.222273 -0.085782 0.442287
v -0.109530 -0.124064 0.419774
v -0.093316 -0.041552 0.356824
v -0.257981 -0.172453 0.030898
v -0.095869 -0.104018 0.467824
v 0.005791 -0.066305 0.486769
v 0.062082 -0.115290 0.272064
v 0.038081 -0.151548 0.503118
v 0.104920 -0.228380 0.293753
v -0.061780 -0.194010 0.485083
v -0.007486 -0.276735 0.273023
v -0.053056 -0.156432 0.249951
v 0.003718 -0.109047 0.625907
v -0.106387 -0.155618 0.606323
v -0.129728 -0.075540 0.542486
v -0.017824 -0.033717 0.562981
v 0.037239 -0.200029 0.215183
vt 0.338779 0.141681
vt 0.363315 0.286300
vt 0.270291 0.162081
vt 0.274567 0.313919
vt 0.184487 0.164394
vt 0.181192 0.318266
vt 0.111302 0.144485
vt 0.085925 0.288473
vt 0.343196 0.086301
vt 0.270992 0.074735
vt 0.179580 0.075366
vt 0.104572 0.089176
vt 0.490829 0.018934
vt 0.499521 0.109925
vt 0.417222 0.024823
vt 0.421499 0.117426
vt 0.364577 0.112729
vt 0.456970 0.270387
vt 0.421569 0.127100
vt 0.360791 0.028678
vt 0.066507 0.082095
vt 0.040079 0.106631
vt 0.044215 0.052092
vt 0.091183 0.056298
vt 0.089711 0.110697
vt 0.420383 0.126893
vt 0.338209 0.141423
vt 0.362611 0.284776
vt 0.270217 0.161584
vt 0.274597 0.312167
vt 0.185123 0.163879
vt 0.181925 0.316478
vt 0.112613 0.144204
vt 0.087376 0.287001
vt 0.270982 0.074892
vt 0.180326 0.075587
vt 0.105869 0.089283
vt 0.360108 0.029286
vt 0.363793 0.112572
vt 0.416003 0.025393
vt 0.420313 0.117300
vt 0.497621 0.109930
vt 0.489000 0.019622
vt 0.455491 0.268995
vt 0.342589 0.086432
vt 0.046081 0.052506
vt 0.041979 0.106524
vt 0.068189 0.082330
vt 0.092591 0.056677
vt 0.091200 0.110626
vn -0.9348 0.3066 0.1791
vn -0.2222 -0.8885 0.4015
vn -0.2225 -0.8883 0.4018
vn -0.2237 -0.8876 0.4027
vn -0.2240 -0.8874 0.4029
vn 0.9465 -0.3005 -0.1174
vn 0.9466 -0.3003 -0.1177
vn 0.9467 -0.2995 -0.1185
vn 0.9468 -0.2994 -0.1185
vn -0.9420 0.2995 0.1513
vn -0.9419 0.2999 0.1514
vn -0.9412 0.3016 0.1519
vn -0.9405 0.3035 0.1525
vn -0.2293 -0.8972 0.3774
vn -0.2296 -0.8970 0.3777
vn -0.2295 -0.8970 0.3777
vn -0.2298 -0.8968 0.3781
vn 0.9112 -0.3477 -0.2210
vn 0.9062 -0.3174 -0.2795
vn 0.3385 0.5464 0.7661
vn 0.3180 0.5348 0.7829
vn 0.1710 0.8865 -0.4300
vn 0.1716 0.8865 -0.4299
vn 0.1660 0.8856 -0.4337
vn 0.2035 0.9425 -0.2652
vn 0.2142 0.9377 -0.2736
vn 0.1655 0.8855 -0.4342
vn -0.3699 -0.7065 -0.6033
vn -0.8001 0.1316 -0.5853
vn -0.0144 0.5804 -0.8142
vn 0.4804 -0.2880 -0.8284
vn -0.2866 0.9150 -0.2839
vn 0.9139 0.3757 0.1539
vn 0.2931 -0.8635 0.4104
vn 0.2946 -0.8624 0.4116
vn 0.2934 -0.8633 0.4107
vn 0.2949 -0.8622 0.4119
vn -0.9250 -0.3683 -0.0932
vn 0.9203 0.3698 0.1273
vn 0.9197 0.3712 0.1277
vn 0.9190 0.3727 0.1282
vn 0.3003 -0.8723 0.3860
vn 0.3008 -0.8718 0.3866
vn 0.3006 -0.8720 0.3864
vn 0.3008 -0.8717 0.3867
vn -0.8886 -0.4149 -0.1956
vn -0.8869 -0.3849 -0.2554
vn -0.2380 0.8642 -0.4433
vn -0.2385 0.8642 -0.4430
vn -0.2423 0.8646 -0.4402
vn -0.2426 0.8647 -0.4398
vn -0.3390 0.5241 0.7813
vn -0.3619 0.5345 0.7638
vn -0.2760 0.9207 -0.2757
vn 0.9205 0.3695 0.1272
vn 0.4070 -0.6893 -0.5993
vn 0.7764 0.1782 -0.6045
vn -0.0440 0.5656 -0.8235
vn -0.4753 -0.3360 -0.8131
usemtl pstalker.png
s 1
f 1/1/1 2/2/1 3/3/1
f 2/2/1 4/4/1 3/3/1
f 3/3/2 4/4/3 5/5/4
f 4/4/3 6/6/5 5/5/4
f 5/5/6 6/6/7 7/7/8
f 6/6/7 8/8/9 7/7/8
f 9/9/10 1/1/11 10/10/12
f 1/1/11 3/3/13 10/10/12
f 10/10/14 3/3/15 11/11/16
f 3/3/15 5/5/17 11/11/16
f 11/11/18 5/5/18 12/12/18
f 5/5/19 7/7/19 12/12/19
f 10/13/20 11/14/20 9/15/20
f 11/14/21 12/16/21 9/15/21
f 9/15/22 12/16/23 7/17/24
f 8/18/25 2/2/25 7/19/25
f 2/2/26 1/1/26 7/19/26
f 9/15/22 7/17/24 1/20/27
f 13/21/28 6/22/28 4/23/28
f 13/21/29 4/23/29 2/24/29
f 13/21/30 2/24/30 8/25/30
f 13/21/31 8/25/31 6/22/31
f 14/26/32 15/27/32 16/28/32
f 15/27/33 17/29/33 16/28/33
f 16/28/33 17/29/33 18/30/33
f 17/29/34 19/31/35 18/30/36
f 18/30/36 19/31/35 20/32/37
f 19/31/38 14/33/38 20/32/38
f 20/32/38 14/33/38 21/34/38
f 15/27/39 22/35/40 17/29/41
f 22/35/42 23/36/43 17/29/44
f 17/29/44 23/36/43 19/31/45
f 23/36/46 24/37/46 19/31/46
f 19/31/47 24/37/47 14/33/47
f 15/38/48 14/39/49 25/40/50
f 14/39/49 24/41/51 25/40/50
f 25/40/52 24/41/52 23/42/52
f 25/40/53 23/42/53 22/43/53
f 16/28/54 21/44/54 14/26/54
f 22/35/40 15/27/39 25/45/55
f 18/46/56 20/47/56 26/48/56
f 16/49/57 18/46/57 26/48/57
f 21/50/58 16/49/58 26/48/58
f 20/47/59 21/50/59 26/48/59
