# Blender v2.82 (sub 7) OBJ File: ''
# www.blender.org
mtllib fps_lr_300.mtl
v -0.248687 -0.199253 0.134116
v -0.223654 -0.100166 0.180719
v -0.248004 -0.109121 0.112667
v -0.217971 -0.019223 0.176587
v -0.241609 -0.016737 0.107529
v -0.105522 0.055174 0.371087
v -0.238519 -0.018693 0.005674
v -0.235825 0.091235 -0.014784
v -0.251832 -0.058291 -0.022869
v -0.025790 -0.051022 0.589257
v -0.088690 -0.045501 0.610876
v -0.103714 -0.041462 0.361372
v -0.166431 -0.035846 0.383082
v -0.032975 0.034442 0.599587
v -0.063113 0.037079 0.610028
v -0.025790 -0.051022 0.589257
v -0.088690 -0.045501 0.610876
v -0.109230 0.061210 0.372756
v -0.139246 0.063829 0.383156
v -0.032975 0.034442 0.599587
v -0.063113 0.037079 0.610028
v -0.068261 -0.007580 0.607643
v -0.004258 -0.025304 0.797068
v -0.049853 0.022372 0.604206
v 0.014110 0.004664 0.793509
v -0.038244 -0.010200 0.597243
v 0.025759 -0.027922 0.786669
v -0.068261 -0.007580 0.607643
v -0.004258 -0.025304 0.797068
v -0.049853 0.022372 0.604206
v 0.014110 0.004664 0.793509
v -0.038244 -0.010200 0.597243
v 0.025759 -0.027922 0.786669
v -0.290045 -0.054923 -0.009601
v -0.251832 -0.058291 -0.022869
v -0.276649 -0.015325 0.018778
v -0.238519 -0.018693 0.005674
v -0.152431 -0.021811 0.379771
v -0.143775 0.058558 0.384232
v -0.276649 -0.015325 0.018778
v -0.274037 0.094604 -0.001516
v -0.290045 -0.054923 -0.009601
v -0.169032 0.135850 0.145622
v -0.123447 0.123189 0.280713
v -0.200918 0.083919 0.151487
v -0.155394 0.071387 0.286751
v -0.221093 0.140501 0.163644
v -0.175508 0.127841 0.298735
v -0.169032 0.135850 0.145622
v -0.123447 0.123189 0.280713
v -0.200918 0.083919 0.151487
v -0.155394 0.071387 0.286751
v -0.221093 0.140501 0.163644
v -0.175508 0.127841 0.298735
v -0.114341 -0.025163 0.366545
v -0.114341 -0.025163 0.366545
v -0.152431 -0.021811 0.379771
v -0.238519 -0.018693 0.005674
v -0.276649 -0.015325 0.018778
v -0.235825 0.091235 -0.014784
v -0.274037 0.094604 -0.001516
v -0.105522 0.055174 0.371087
v -0.143775 0.058558 0.384232
v -0.251832 -0.058291 -0.022869
v -0.290045 -0.054923 -0.009601
v -0.235825 0.091235 -0.014784
v -0.274037 0.094604 -0.001516
v -0.194087 -0.179796 0.188653
v -0.218570 -0.202017 0.123667
v -0.193597 -0.102802 0.170443
v -0.217948 -0.111755 0.102391
v -0.187954 -0.021842 0.166188
v -0.211491 -0.019502 0.097079
v -0.248687 -0.199253 0.134116
v -0.218570 -0.202017 0.123667
v -0.224265 -0.177144 0.198970
v -0.194087 -0.179796 0.188653
v -0.224265 -0.177144 0.198970
v -0.178895 -0.103375 0.262957
v -0.154804 -0.023742 0.312392
v -0.187491 -0.089245 0.234630
v -0.173131 -0.022190 0.258966
v 0.025759 -0.027922 0.786669
v 0.014110 0.004664 0.793509
v -0.004258 -0.025304 0.797068
v -0.200918 0.083919 0.151487
v -0.221093 0.140501 0.163644
v -0.169032 0.135850 0.145622
v -0.175508 0.127841 0.298735
v -0.155394 0.071387 0.286751
v -0.123447 0.123189 0.280713
v -0.025790 -0.051022 0.589257
v -0.103714 -0.041462 0.361372
v -0.032975 0.034442 0.599587
v -0.109230 0.061210 0.372756
v -0.088690 -0.045501 0.610876
v -0.063113 0.037079 0.610028
v -0.166431 -0.035846 0.383082
v -0.139246 0.063829 0.383156
v -0.224265 -0.177144 0.198970
v -0.194087 -0.179796 0.188653
v -0.223654 -0.100166 0.180719
v -0.193597 -0.102802 0.170443
v -0.217971 -0.019223 0.176587
v -0.187954 -0.021842 0.166188
v -0.241609 -0.016737 0.107529
v -0.211491 -0.019502 0.097079
v -0.248004 -0.109121 0.112667
v -0.217948 -0.111755 0.102391
v -0.248687 -0.199253 0.134116
v -0.218570 -0.202017 0.123667
vt 0.868715 0.380901
vt 0.836890 0.415896
vt 0.873207 0.415783
vt 0.833191 0.446512
vt 0.869092 0.450703
vt 0.873811 0.488416
vt 0.643792 0.442284
vt 0.627181 0.489285
vt 0.626993 0.423899
vt 0.775091 0.386790
vt 0.775091 0.399399
vt 0.627483 0.386790
vt 0.627483 0.399399
vt 0.765503 0.413782
vt 0.750591 0.413216
vt 0.775318 0.382297
vt 0.744286 0.381202
vt 0.627899 0.413404
vt 0.627899 0.423711
vt 0.776186 0.413404
vt 0.776186 0.423711
vt 0.726883 0.442284
vt 0.683507 0.442284
vt 0.726883 0.427297
vt 0.683507 0.427297
vt 0.683884 0.427486
vt 0.727185 0.427486
vt 0.683884 0.442699
vt 0.727185 0.442699
vt 0.683695 0.427599
vt 0.726996 0.427599
vt 0.683695 0.442586
vt 0.726996 0.442586
vt 0.645906 0.396605
vt 0.645906 0.381882
vt 0.671917 0.396605
vt 0.671917 0.381882
vt 0.873019 0.453194
vt 0.873283 0.488416
vt 0.643301 0.442209
vt 0.626691 0.489285
vt 0.626502 0.422993
vt 0.731791 0.424919
vt 0.806916 0.424919
vt 0.731791 0.445116
vt 0.806916 0.445116
vt 0.807218 0.445418
vt 0.732206 0.445418
vt 0.807218 0.424919
vt 0.732206 0.424919
vt 0.807218 0.445908
vt 0.732206 0.445908
vt 0.807218 0.423295
vt 0.732206 0.423295
vt 0.873509 0.453194
vt 0.869696 0.455006
vt 0.867092 0.464293
vt 0.646586 0.445418
vt 0.643905 0.454704
vt 0.627786 0.484415
vt 0.627786 0.499213
vt 0.872792 0.484415
vt 0.872792 0.499213
vt 0.643113 0.382486
vt 0.643188 0.397700
vt 0.748212 0.382184
vt 0.748288 0.397511
vt 0.833304 0.446097
vt 0.869017 0.451194
vt 0.836890 0.416311
vt 0.873207 0.416198
vt 0.832889 0.385695
vt 0.868790 0.381316
vt 0.842213 0.404797
vt 0.842213 0.398908
vt 0.866903 0.404797
vt 0.866903 0.398908
vt 0.833115 0.386186
vt 0.828812 0.379692
vt 0.829793 0.431487
vt 0.812314 0.380108
vt 0.808086 0.427788
vt 0.675503 0.427410
vt 0.669690 0.433186
vt 0.663800 0.427410
vt 0.794118 0.412612
vt 0.779697 0.381693
vt 0.808501 0.381693
vt 0.808388 0.381882
vt 0.794005 0.412914
vt 0.779584 0.381882
vt 0.775582 0.381202
vt 0.626389 0.375615
vt 0.775582 0.421408
vt 0.626389 0.424013
vt 0.776413 0.380712
vt 0.776413 0.420917
vt 0.627181 0.375087
vt 0.627181 0.423484
vt 0.865506 0.439981
vt 0.842100 0.439981
vt 0.865695 0.416915
vt 0.842289 0.416915
vt 0.865808 0.392301
vt 0.842402 0.392188
vt 0.841987 0.388489
vt 0.865393 0.388489
vt 0.841798 0.416613
vt 0.865204 0.416689
vt 0.841685 0.443719
vt 0.865091 0.443719
vn -0.9416 0.0847 0.3258
vn -0.9417 0.0828 0.3261
vn -0.9419 0.0833 0.3254
vn 0.9417 -0.0837 -0.3258
vn 0.9424 -0.0834 -0.3239
vn -0.0911 -0.9958 -0.0106
vn -0.0928 -0.9956 -0.0105
vn 0.3193 -0.0872 0.9436
vn 0.3168 -0.0884 0.9444
vn 0.1137 0.9904 0.0787
vn 0.1139 0.9904 0.0786
vn -0.7916 0.5228 0.3164
vn -0.1064 -0.9927 -0.0569
vn -0.1063 -0.9927 -0.0570
vn 0.8888 0.3735 -0.2654
vn 0.8889 0.3734 -0.2654
vn 0.2096 -0.6154 0.7598
vn 0.2065 -0.6169 0.7595
vn -0.9418 0.0834 0.3256
vn -0.9418 0.0825 0.3258
vn -0.9409 0.0830 0.3284
vn 0.7921 -0.5221 -0.3162
vn 0.7910 -0.5245 -0.3148
vn 0.1082 0.9925 0.0565
vn -0.8890 -0.3738 0.2646
vn -0.8891 -0.3731 0.2651
vn 0.9417 -0.0850 -0.3256
vn -0.0839 -0.9964 0.0110
vn -0.0842 -0.9964 0.0111
vn 0.1072 0.9926 0.0566
vn 0.1072 0.9926 0.0565
vn -0.3201 0.0853 -0.9435
vn 0.9416 -0.0832 -0.3263
vn 0.9417 -0.0833 -0.3260
vn 0.9417 -0.0828 -0.3261
vn 0.9423 -0.0846 -0.3238
vn 0.0222 -0.9488 0.3151
vn 0.0244 -0.9487 0.3152
vn -0.9417 0.0847 0.3257
vn -0.9416 0.0821 0.3267
vn -0.9418 0.0836 0.3255
vn 0.3197 -0.0838 0.9438
vn -0.3187 0.0891 -0.9437
vn 0.3190 -0.0867 0.9438
vn 0.9412 0.1174 -0.3169
vn 0.9461 0.0923 -0.3104
vn 0.9429 0.1091 -0.3148
vn 0.9474 0.0851 -0.3085
vn -0.9039 0.2832 0.3205
vn -0.9054 0.2742 0.3241
vn -0.9082 0.2557 0.3313
vn -0.9093 0.2478 0.3344
vn 0.3328 0.2150 0.9182
vn 0.3306 0.1208 0.9360
vn 0.3311 0.1209 0.9358
vn 0.3284 0.0264 0.9442
vn 0.3293 0.0267 0.9438
vn -0.3301 -0.0296 -0.9435
vn -0.3292 -0.0300 -0.9438
vn -0.3312 -0.1242 -0.9354
vn -0.3312 -0.1240 -0.9354
vn -0.3366 -0.2142 -0.9169
vn -0.3377 -0.2137 -0.9167
usemtl _98
s off
f 1/1/1 2/2/1 3/3/1
f 3/3/2 2/2/2 4/4/2
f 3/3/3 4/4/3 5/5/3
f 6/6/4 7/7/4 8/8/4
f 8/8/5 7/7/5 9/9/5
f 10/10/6 11/11/6 12/12/6
f 12/12/7 11/11/7 13/13/7
f 14/14/8 15/15/8 16/16/8
f 16/16/9 15/15/9 17/17/9
f 18/18/10 19/19/10 20/20/10
f 20/20/11 19/19/11 21/21/11
f 22/22/12 23/23/12 24/24/12
f 24/24/12 23/23/12 25/25/12
f 26/26/13 27/27/13 28/28/13
f 28/28/14 27/27/14 29/29/14
f 30/30/15 31/31/15 32/32/15
f 32/32/16 31/31/16 33/33/16
f 34/34/17 35/35/17 36/36/17
f 36/36/18 35/35/18 37/37/18
f 38/38/19 39/39/19 40/40/19
f 40/40/20 39/39/20 41/41/20
f 40/40/21 41/41/21 42/42/21
f 43/43/22 44/44/22 45/45/22
f 45/45/23 44/44/23 46/46/23
f 47/47/24 48/48/24 49/49/24
f 49/49/24 48/48/24 50/50/24
f 51/51/25 52/52/25 53/53/25
f 53/53/26 52/52/26 54/54/26
f 7/7/27 6/6/27 55/55/27
f 56/56/28 57/57/28 58/58/28
f 58/58/29 57/57/29 59/59/29
f 60/60/30 61/61/30 62/62/30
f 62/62/31 61/61/31 63/63/31
f 64/64/32 65/65/32 66/66/32
f 66/66/32 65/65/32 67/67/32
f 68/68/33 69/69/33 70/70/33
f 70/70/34 69/69/34 71/71/34
f 70/70/35 71/71/35 72/72/35
f 72/72/36 71/71/36 73/73/36
f 74/74/37 75/75/37 76/76/37
f 76/76/38 75/75/38 77/77/38
f 2/2/39 1/1/39 78/78/39
f 79/79/40 80/80/40 81/81/40
f 81/81/41 80/80/41 82/82/41
f 83/83/42 84/84/42 85/85/42
f 86/86/43 87/87/43 88/88/43
f 89/89/44 90/90/44 91/91/44
s 1
f 92/92/45 93/93/46 94/94/47
f 94/94/47 93/93/46 95/95/48
f 96/96/49 97/97/50 98/98/51
f 98/98/51 97/97/50 99/99/52
f 100/100/53 101/101/53 102/102/54
f 102/102/54 101/101/53 103/103/55
f 102/102/54 103/103/55 104/104/56
f 104/104/56 103/103/55 105/105/57
f 106/106/58 107/107/59 108/108/60
f 108/108/60 107/107/59 109/109/61
f 108/108/60 109/109/61 110/110/62
f 110/110/62 109/109/61 111/111/63
