# Blender v2.82 (sub 7) OBJ File: 'garbage_camp.blend'
# www.blender.org
mtllib krot_npc.mtl
v 1.501801 0.748273 -0.032638
v 1.645625 0.728112 0.028748
v 1.404776 0.571967 0.007619
v 1.425748 0.251464 -0.029090
v 1.591791 0.248254 0.056417
v 1.450268 0.563338 -0.206527
v 1.454576 0.245996 -0.164791
v 1.477234 0.129201 -0.081947
v 1.624455 0.059072 -0.181629
v 1.613775 0.552412 0.094959
v 1.839778 0.528594 0.101777
v 1.775620 0.216580 0.046642
v 1.804448 0.211112 -0.089060
v 1.728251 0.104173 -0.027614
v 1.569282 0.069538 0.078083
v 1.802941 0.718247 0.032545
v 1.885271 0.519965 -0.112368
v 1.834656 0.712231 -0.116747
v 1.688688 0.703563 -0.181506
v 1.533516 0.742257 -0.181930
v 1.771564 0.720378 -0.045588
v 1.778916 0.951862 -0.084837
v 1.724977 0.746824 0.063069
v 1.741884 0.973530 0.035327
v 1.601978 0.712110 -0.096361
v 1.596718 0.942980 -0.139386
v 1.578772 0.739696 0.019296
v 1.559685 0.964647 -0.019222
v 1.633575 0.766873 0.098460
v 1.700882 0.704053 -0.116122
v 1.665024 1.024482 -0.048528
v 1.632571 0.981939 0.066796
v 1.644553 0.709005 0.071216
v 1.700363 0.941543 -0.153058
v 1.419860 0.691024 -0.146734
v 1.464562 0.692832 -0.013330
v 1.191587 0.514292 -0.096636
v 1.257285 0.411346 -0.118946
v 1.199646 0.422356 -0.032065
v 1.259183 0.529404 0.037363
v 1.512677 0.529710 0.023780
v 1.540538 0.662078 -0.103115
v 1.448563 0.527173 -0.167445
v 1.327364 0.426646 0.022396
v 1.284643 0.500091 0.264809
v 1.340416 0.407591 0.244821
v 1.374021 0.458539 0.014404
v 1.389700 0.403200 0.370166
v 1.461001 0.457223 0.315110
v 1.327960 0.505186 0.391855
v 1.394964 0.556522 0.337323
v 1.422717 0.459899 0.237293
v 1.362496 0.549703 0.257760
v 1.201489 0.493101 0.047436
v 1.304830 0.558954 0.038079
v 1.278563 0.480372 -0.026442
v 1.264041 0.388455 0.024362
v 1.809397 0.527339 -0.147966
v 1.908269 0.642533 -0.077062
v 1.977267 0.372080 0.011765
v 1.870421 0.321548 -0.026475
v 1.751107 0.483693 0.040134
v 1.983265 0.285209 -0.098877
v 1.927750 0.333227 -0.173783
v 2.032325 0.382138 -0.128310
v 1.787012 0.652736 -0.027210
v 1.867607 0.612086 0.054154
v 2.093460 0.155117 -0.005477
v 2.001459 0.109097 -0.044445
v 1.930613 0.302767 -0.155049
v 2.132179 0.040652 0.053370
v 1.974135 0.039697 0.083557
v 2.055540 0.161784 0.078749
v 1.961427 0.116135 0.044473
v 2.077526 0.090281 0.121549
v 2.030901 -0.010304 0.010686
v 2.034398 0.354288 -0.110581
v 1.933815 0.385101 -0.088413
v 1.984090 0.363133 0.001160
v 1.877098 0.312176 -0.036183
v 1.447335 0.518697 0.170043
v 1.617615 0.232190 -0.035538
v 1.321902 0.489050 0.107038
v 1.466731 0.062896 -0.154853
v 1.289037 0.311708 0.239671
v 1.556999 0.055513 0.146373
v 1.332559 0.499435 0.309979
v 1.437232 0.336758 0.315457
v 1.435016 -0.029400 -0.059839
v 1.434255 -0.010078 0.384558
v 1.249769 0.482627 0.253629
v 1.322487 0.329890 0.158178
v 1.358969 0.486059 0.170470
v 1.397995 0.485509 0.333834
v 1.371638 0.094579 0.507968
v 1.280312 0.041437 0.425002
v 1.346888 -0.021993 0.351905
v 1.470571 0.328223 0.232757
v 1.444791 0.075884 0.348733
v 1.449973 -0.018718 0.320953
v 1.359320 0.082805 0.310360
v 1.356825 -0.020491 0.278880
v 1.286465 0.082835 0.402542
v 1.200761 -0.020235 0.554260
v 1.371769 0.076445 0.506139
v 1.359998 0.159007 0.403971
v 1.311631 -0.018218 0.670018
v 1.819033 0.025647 -0.101638
v 1.810925 0.141052 0.360922
v 1.768610 0.359773 0.340282
v 1.580451 0.213656 -0.001736
v 1.637776 -0.031089 0.066912
v 1.710601 0.251066 0.502090
v 1.628923 0.339924 0.365870
v 1.789063 0.153598 -0.137527
v 1.647768 0.108680 0.387014
v 1.802355 0.167219 0.393800
v 1.778309 0.359391 0.409048
v 1.616913 0.322817 0.440500
v 1.683399 0.088698 0.793633
v 1.644809 0.124992 0.423124
v 1.718981 0.279601 0.314400
v 1.713374 -0.070529 0.732549
v 1.805293 -0.051639 0.731444
v 1.812350 0.057772 0.773338
v 1.769789 0.093042 0.609228
v 1.796796 0.092992 0.723511
v 1.810449 -0.010061 0.897071
v 1.675949 0.086566 0.781319
v 1.683204 -0.008436 0.580579
v 1.729698 0.169238 0.693849
v 1.785267 -0.010265 0.581748
v 1.661315 -0.008087 0.955120
v 1.676183 0.086128 0.608053
vt 0.979535 0.975022
vt 0.854474 0.884169
vt 0.954903 0.847184
vt 0.794685 0.788930
vt 0.927493 0.744636
vt 0.766618 0.610001
vt 0.868874 0.584931
vt 0.844022 0.495978
vt 0.760113 0.895498
vt 0.662170 0.785787
vt 0.682636 0.607882
vt 0.713626 0.553428
vt 0.602965 0.497074
vt 0.794685 0.788930
vt 0.766618 0.610001
vt 0.682636 0.607882
vt 0.713626 0.553428
vt 0.668090 0.893378
vt 0.760113 0.895498
vt 0.662170 0.785787
vt 0.871432 0.974583
vt 0.854474 0.884169
vt 0.871432 0.974583
vt 0.668090 0.893378
vt 0.534172 0.019081
vt 0.519668 0.319788
vt 0.660271 0.031712
vt 0.650208 0.325478
vt 0.830992 0.044967
vt 0.810034 0.331100
vt 0.948416 0.073768
vt 0.948832 0.331377
vt 0.660271 0.031712
vt 0.650208 0.325478
vt 0.830992 0.044967
vt 0.810034 0.331100
vt 0.744799 0.473021
vt 0.894215 0.441583
vt 0.576367 0.433602
vt 0.925375 0.018179
vt 0.087701 0.325815
vt 0.183504 0.318873
vt 0.182335 0.461811
vt 0.274996 0.314634
vt 0.299111 0.496595
vt 0.403172 0.494768
vt 0.111378 0.085905
vt 0.069870 0.109801
vt 0.077689 0.074432
vt 0.048020 0.059889
vt 0.090916 0.037601
vt 0.064389 0.019405
vt 0.125993 0.040816
vt 0.073013 0.057478
vt 0.084486 0.115281
vt 0.035378 0.070486
vt 0.512422 0.430607
vt 0.366707 0.313027
vt 0.033478 0.472407
vt 0.454326 0.285404
vt 0.338779 0.141681
vt 0.363315 0.286300
vt 0.270291 0.162081
vt 0.274567 0.313919
vt 0.184487 0.164394
vt 0.181192 0.318266
vt 0.111302 0.144485
vt 0.085925 0.288473
vt 0.343196 0.086301
vt 0.270992 0.074735
vt 0.179580 0.075366
vt 0.104572 0.089176
vt 0.490829 0.018934
vt 0.499521 0.109925
vt 0.417222 0.024823
vt 0.421499 0.117426
vt 0.364577 0.112729
vt 0.456970 0.270387
vt 0.421569 0.127100
vt 0.360791 0.028678
vt 0.066507 0.082095
vt 0.040079 0.106631
vt 0.044215 0.052092
vt 0.091183 0.056298
vt 0.089711 0.110697
vt 0.182978 0.460608
vt 0.301804 0.495981
vt 0.277281 0.310868
vt 0.407625 0.494197
vt 0.370469 0.309307
vt 0.518722 0.428876
vt 0.459570 0.281217
vt 0.184093 0.315327
vt 0.086818 0.322312
vt 0.031678 0.471383
vt 0.090013 0.029223
vt 0.046392 0.051814
vt 0.076637 0.066603
vt 0.068611 0.102570
vt 0.110895 0.078418
vt 0.033610 0.062590
vt 0.083474 0.108218
vt 0.071807 0.049511
vt 0.125683 0.032493
vt 0.062963 0.010719
vt 0.420383 0.126893
vt 0.338209 0.141423
vt 0.362611 0.284776
vt 0.270217 0.161584
vt 0.274597 0.312167
vt 0.185123 0.163879
vt 0.181925 0.316478
vt 0.112613 0.144204
vt 0.087376 0.287001
vt 0.270982 0.074892
vt 0.180326 0.075587
vt 0.105869 0.089283
vt 0.360108 0.029286
vt 0.363793 0.112572
vt 0.416003 0.025393
vt 0.420313 0.117300
vt 0.497621 0.109930
vt 0.489000 0.019622
vt 0.455491 0.268995
vt 0.342589 0.086432
vt 0.046081 0.052506
vt 0.041979 0.106524
vt 0.068189 0.082330
vt 0.092591 0.056677
vt 0.091200 0.110626
vt 0.049617 0.737374
vt 0.029784 0.897680
vt 0.138206 0.729705
vt 0.144023 0.890222
vt 0.200984 0.727696
vt 0.233722 0.931475
vt 0.287722 0.727220
vt 0.293698 0.931422
vt 0.376416 0.879592
vt 0.295391 0.722407
vt 0.283596 0.677399
vt 0.329504 0.693688
vt 0.342884 0.657777
vt 0.357482 0.709079
vt 0.121176 0.986109
vt 0.061411 0.990023
vt 0.360814 0.718810
vt 0.029785 0.556875
vt 0.049987 0.724204
vt 0.105516 0.562591
vt 0.139022 0.729623
vt 0.160307 0.543621
vt 0.201499 0.727603
vt 0.272106 0.680696
vt 0.343895 0.658819
vt 0.352715 0.709323
vt 0.320294 0.695281
vt 0.295904 0.721395
vt 0.285606 0.678085
vt 0.232195 0.495876
vt 0.198000 0.517507
vt 0.032889 0.548696
vt 0.063290 0.501789
vt 0.104383 0.551899
vt 0.108916 0.514698
vt 0.328621 0.634085
vt 0.333803 0.605495
vt 0.318795 0.569698
vt 0.373500 0.599192
vt 0.370784 0.557406
vt 0.422912 0.608106
vt 0.516686 0.585402
vt 0.448297 0.659398
vt 0.521805 0.662706
vt 0.382693 0.694011
vt 0.389413 0.732210
vt 0.408600 0.651598
vt 0.521213 0.507890
vt 0.371689 0.503990
vt 0.376316 0.880325
vt 0.294075 0.931699
vt 0.288081 0.728675
vt 0.234393 0.931805
vt 0.201897 0.729201
vt 0.145212 0.890684
vt 0.139480 0.731094
vt 0.031684 0.898309
vt 0.051403 0.738876
vt 0.357491 0.710691
vt 0.342978 0.659686
vt 0.329674 0.695285
vt 0.284084 0.679194
vt 0.295705 0.723890
vt 0.122496 0.986123
vt 0.063076 0.990014
vt 0.360804 0.720314
vt 0.274381 0.682804
vt 0.203403 0.729908
vt 0.161994 0.544908
vt 0.140597 0.731889
vt 0.106915 0.563977
vt 0.051093 0.726490
vt 0.030785 0.558380
vt 0.287903 0.680079
vt 0.298305 0.723717
vt 0.322823 0.697514
vt 0.355415 0.711482
vt 0.346499 0.660811
vt 0.234310 0.497011
vt 0.199787 0.518705
vt 0.033906 0.550109
vt 0.105677 0.553279
vt 0.064417 0.503004
vt 0.110283 0.515882
vt 0.331194 0.635996
vt 0.318913 0.570187
vt 0.373296 0.599491
vt 0.370594 0.557994
vt 0.422517 0.608393
vt 0.515799 0.585809
vt 0.447803 0.659485
vt 0.520787 0.662707
vt 0.382510 0.693812
vt 0.389195 0.731810
vt 0.408211 0.651691
vt 0.371599 0.504790
vt 0.520198 0.508704
vt 0.333808 0.605796
vn 0.1716 0.9820 -0.0795
vn -0.3191 0.3744 0.8706
vn -0.3251 0.3845 0.8640
vn -0.3926 -0.1300 0.9105
vn -0.4576 -0.0792 0.8856
vn -0.4492 0.1631 0.8784
vn -0.8766 0.4359 -0.2038
vn -0.9777 -0.0404 -0.2061
vn -0.9317 -0.3122 -0.1854
vn -0.8269 -0.4770 0.2978
vn -0.4636 -0.8838 -0.0629
vn 0.0088 0.3512 0.9362
vn -0.0471 -0.1644 0.9853
vn 0.9494 -0.2325 0.2111
vn 0.8486 -0.4897 0.2000
vn 0.6993 -0.6583 -0.2785
vn 0.2727 -0.9572 0.0965
vn 0.0307 -0.1278 0.9913
vn 0.0719 0.1111 0.9912
vn 0.5260 -0.6119 0.5907
vn 0.9481 0.2540 0.1912
vn -0.0379 0.9981 -0.0483
vn 0.0647 0.9926 -0.1026
vn -0.0012 0.3427 0.9394
vn 0.2419 0.9702 0.0123
vn -0.6343 -0.5254 -0.5672
vn 0.7145 -0.1060 -0.6915
vn 0.6595 -0.1460 -0.7374
vn 0.9216 0.0362 0.3863
vn 0.9533 -0.0344 0.3000
vn 0.3759 0.0849 0.9228
vn 0.2839 0.1410 0.9484
vn -0.1311 -0.1845 -0.9741
vn -0.9814 -0.0565 -0.1834
vn -0.9541 -0.1274 -0.2711
vn -0.8261 0.0263 0.5629
vn -0.7687 0.0897 0.6333
vn 0.5410 0.8409 0.0151
vn 0.1804 0.9052 0.3847
vn -0.2055 -0.1508 -0.9670
vn -0.5332 0.7885 -0.3065
vn -0.0731 0.7691 -0.6349
vn -0.6751 -0.4152 0.6099
vn -0.4418 0.8749 0.1984
vn 0.2640 -0.3694 0.8910
vn 0.3403 0.7892 -0.5112
vn 0.4848 -0.8622 -0.1470
vn -0.2672 0.0381 -0.9629
vn -0.2684 0.0744 -0.9604
vn -0.5766 0.7964 0.1824
vn -0.7863 -0.3998 -0.4710
vn -0.0158 -0.9932 0.1154
vn -0.3554 -0.3614 0.8620
vn 0.7710 0.3487 0.5330
vn 0.8501 -0.4465 -0.2791
vn 0.3723 0.1803 -0.9104
vn 0.0517 0.2360 0.9704
vn -0.5786 0.7900 0.2028
vn 0.4814 -0.8636 -0.1499
vn 0.0533 -0.1092 0.9926
vn -0.8811 0.2177 0.4199
vn 0.2669 0.9583 -0.1024
vn -0.5184 0.8378 0.1714
vn -0.7808 -0.5390 0.3160
vn -0.7815 -0.5371 0.3174
vn 0.5261 -0.8434 -0.1090
vn 0.5270 -0.8427 -0.1100
vn -0.5261 0.8384 0.1428
vn -0.5224 0.8404 0.1444
vn -0.7898 -0.5400 0.2909
vn -0.7900 -0.5393 0.2917
vn 0.4772 -0.8515 -0.2175
vn 0.4980 -0.8230 -0.2733
vn 0.5482 0.1571 0.8215
vn 0.5237 0.1612 0.8365
vn 0.7436 0.5720 -0.3462
vn 0.7906 0.5864 -0.1763
vn 0.7963 0.5761 -0.1848
vn 0.7388 0.5754 -0.3508
vn -0.6898 -0.2637 -0.6742
vn -0.4679 0.6490 -0.5999
vn 0.4356 0.4797 -0.7616
vn 0.2422 -0.4984 -0.8324
vn 0.2842 0.3137 -0.9060
vn 0.8706 0.3459 0.3500
vn 0.8693 0.3326 0.3656
vn 0.0488 -0.1521 0.9872
vn -0.1079 -0.4447 0.8892
vn 0.2669 0.2852 -0.9206
vn -0.8186 -0.4520 -0.3544
vn -0.8162 -0.4534 -0.3581
vn 0.1458 -0.7743 0.6158
vn -0.4324 -0.8699 -0.2372
vn 0.5289 -0.4802 -0.6998
vn -0.2414 0.6504 -0.7202
vn -0.9569 0.0938 -0.2748
vn -0.5385 0.4081 0.7372
vn 0.8807 -0.3482 0.3212
vn 0.1936 0.9408 0.2783
vn -0.4174 0.1940 0.8878
vn 0.8360 0.4286 0.3425
vn 0.4920 -0.2877 -0.8217
vn 0.4943 -0.2877 -0.8203
vn -0.8117 -0.4838 -0.3272
vn 0.8261 0.4523 0.3361
vn 0.4846 -0.2647 -0.8337
vn 0.4854 -0.2650 -0.8331
vn -0.8373 -0.3855 -0.3877
vn -0.8699 -0.3314 -0.3654
vn -0.4645 0.3453 0.8155
vn -0.4664 0.3400 0.8166
vn 0.1405 -0.7619 0.6322
vn 0.1114 -0.7589 0.6417
vn -0.4043 0.1938 0.8939
vn 0.8269 0.4534 0.3327
vn 0.0212 0.6285 -0.7775
vn 0.3048 0.9504 0.0620
vn -0.5077 0.7265 0.4631
vn -0.8391 0.3616 -0.4064
vn 0.9260 0.2030 0.3183
vn 0.8666 0.1814 0.4649
vn 0.2128 0.6500 -0.7296
vn 0.0616 0.5377 -0.8409
vn -0.9288 -0.0956 -0.3580
vn -0.9249 -0.0673 -0.3741
vn -0.4638 -0.6883 0.5578
vn -0.2113 0.9766 -0.0389
vn -0.9766 0.2113 0.0405
vn -0.4109 -0.2347 0.8810
vn 0.8041 -0.5375 -0.2541
vn 0.8039 -0.5378 -0.2541
vn -0.2906 -0.5809 0.7603
vn 0.6611 0.4457 0.6036
vn 0.9146 0.0797 0.3964
vn 0.8914 0.1329 0.4333
vn -0.7322 0.3177 0.6025
vn -0.4593 0.2938 0.8383
vn -0.9084 -0.2046 -0.3647
vn 0.4492 -0.0347 -0.8927
vn -0.5975 0.2007 -0.7763
vn -0.0244 0.9997 0.0092
vn 0.3670 -0.4290 -0.8254
vn -0.8218 -0.3174 -0.4731
vn -0.1011 -0.7835 0.6131
vn -0.1120 -0.7988 0.5911
vn 0.4066 -0.4100 -0.8165
vn 0.8355 0.5127 -0.1979
vn 0.4121 0.2774 -0.8679
vn 0.3935 0.2593 -0.8820
vn -0.7681 0.2036 -0.6071
vn -0.8700 -0.0023 -0.4930
vn -0.3786 0.8509 0.3642
vn -0.3835 0.8537 0.3524
vn 0.8971 0.1496 0.4157
vn 0.9281 -0.0572 0.3679
vn 0.3277 0.7316 -0.5979
vn -0.6219 0.6095 -0.4917
vn -0.6111 0.5798 0.5389
vn 0.0118 -0.9999 0.0061
vn 0.0148 -0.9998 0.0093
vn 0.7621 0.5437 0.3516
vn 0.4726 -0.8531 0.2211
vn 0.9752 0.2180 -0.0373
vn 0.9817 0.1863 -0.0384
vn 0.0066 0.9183 -0.3959
vn -0.1874 0.9363 -0.2969
vn -0.9668 -0.1739 0.1872
vn -0.9951 -0.0752 0.0639
vn 0.2451 -0.6725 0.6983
vn 0.8668 0.2104 0.4521
vn -0.0170 0.8328 0.5534
vn -0.5798 -0.3431 -0.7390
vn 0.2383 -0.8928 0.3824
vn -0.8644 -0.0245 0.5023
vn 0.9923 0.1234 0.0095
vn -0.0492 0.7671 0.6397
vn 0.2755 0.8243 0.4946
vn -0.9852 -0.1467 0.0882
vn -0.9735 -0.2141 0.0804
vn -0.2833 0.8134 -0.5081
vn 0.7783 0.1458 -0.6108
vn 0.0022 -0.5759 -0.8175
vn 0.1635 -0.8272 -0.5376
vn 0.9980 -0.0489 -0.0404
vn 0.0641 -0.3469 0.9357
vn 0.0854 -0.3611 0.9286
vn 0.1195 -0.8271 -0.5491
vn -0.7854 -0.0566 -0.6163
vn 0.0157 0.2592 -0.9657
vn 0.9530 0.2027 -0.2251
vn 0.9968 -0.0020 -0.0796
vn 0.1893 0.8508 0.4903
vn 0.1988 0.8536 0.4816
vn -0.9887 0.1497 -0.0017
vn -0.9967 -0.0571 -0.0582
vn 0.3268 0.5784 0.7475
vn 0.7722 0.6087 -0.1822
vn -0.0455 0.7316 -0.6803
vn -0.0179 -0.9998 0.0021
vn -0.0132 -0.9999 0.0002
vn -0.0085 0.2784 -0.9604
vn -0.8396 0.5432 -0.0025
usemtl pstalker.png
s off
f 19/1/1 1/2/1 2/3/1
f 1/2/2 3/4/2 2/3/2
f 2/3/3 3/4/3 10/5/3
f 3/4/4 4/6/4 10/5/4
f 10/5/5 4/6/5 5/7/5
f 4/6/6 15/8/6 5/7/6
f 1/9/7 6/10/7 3/4/7
f 6/10/8 7/11/8 3/4/8
f 3/4/8 7/11/8 4/6/8
f 7/11/9 8/12/9 4/6/9
f 4/6/10 8/12/10 15/8/10
f 8/12/11 9/13/11 15/8/11
f 2/3/12 10/5/12 11/14/12
f 10/5/13 12/15/13 11/14/13
f 11/14/14 12/15/14 13/16/14
f 12/15/15 14/17/15 13/16/15
f 13/16/16 14/17/16 9/13/16
f 14/17/17 15/8/17 9/13/17
f 10/5/18 5/7/18 12/15/18
f 5/7/19 15/8/19 12/15/19
f 12/15/20 15/8/20 14/17/20
f 18/18/21 16/19/21 17/20/21
f 16/19/21 11/14/21 17/20/21
f 17/20/14 11/14/14 13/16/14
f 18/21/22 19/1/22 16/22/22
f 19/1/23 2/3/23 16/22/23
f 16/22/24 2/3/24 11/14/24
f 1/2/25 19/1/25 20/23/25
f 6/10/7 1/9/7 20/24/7
f 8/12/26 7/11/26 9/13/26
f 30/25/27 34/26/27 21/27/27
f 34/26/28 22/28/28 21/27/28
f 21/27/29 22/28/29 23/29/29
f 22/28/30 24/30/30 23/29/30
f 23/29/31 24/30/31 29/31/31
f 24/30/32 32/32/32 29/31/32
f 34/26/33 25/33/33 26/34/33
f 25/33/34 27/35/34 26/34/34
f 26/34/35 27/35/35 28/36/35
f 27/35/36 29/31/36 28/36/36
f 28/36/37 29/31/37 32/32/37
f 22/28/38 31/37/38 24/30/38
f 31/37/39 32/38/39 24/30/39
f 25/33/40 34/26/40 30/25/40
f 28/36/41 31/37/41 26/34/41
f 31/37/42 34/39/42 26/34/42
f 27/35/43 33/40/43 29/31/43
f 32/38/44 31/37/44 28/36/44
f 29/31/45 33/40/45 23/29/45
f 34/39/46 31/37/46 22/28/46
f 44/41/47 38/42/47 43/43/47
f 38/42/48 37/44/48 43/43/48
f 43/43/49 37/44/49 35/45/49
f 37/44/50 36/46/50 35/45/50
f 37/47/51 38/48/51 39/49/51
f 38/48/52 44/50/52 39/49/52
f 39/49/53 44/50/53 40/51/53
f 36/52/54 41/53/54 42/54/54
f 41/53/55 43/55/55 42/54/55
f 42/54/56 43/55/56 35/56/56
f 41/57/57 36/46/57 40/58/57
f 36/46/58 37/44/58 40/58/58
f 44/41/59 43/43/59 41/59/59
f 44/60/60 41/57/60 40/58/60
f 39/49/61 40/51/61 37/47/61
f 42/54/62 35/56/62 36/52/62
f 53/61/63 55/62/63 45/63/63
f 55/62/63 54/64/63 45/63/63
f 45/63/64 54/64/64 46/65/64
f 54/64/65 57/66/65 46/65/65
f 46/65/66 57/66/66 52/67/66
f 57/66/67 47/68/67 52/67/67
f 51/69/68 53/61/68 50/70/68
f 53/61/69 45/63/69 50/70/69
f 50/70/70 45/63/70 48/71/70
f 45/63/71 46/65/71 48/71/71
f 48/71/72 46/65/72 49/72/72
f 46/65/73 52/67/73 49/72/73
f 50/73/74 48/74/74 51/75/74
f 48/74/75 49/76/75 51/75/75
f 51/75/76 49/76/76 52/77/76
f 47/78/77 55/62/77 52/79/77
f 55/62/78 53/61/78 52/79/78
f 51/75/79 52/77/79 53/80/79
f 56/81/80 57/82/80 54/83/80
f 56/81/81 54/83/81 55/84/81
f 56/81/82 55/84/82 47/85/82
f 56/81/83 47/85/83 57/82/83
f 58/86/84 59/87/84 65/88/84
f 59/87/85 67/89/85 65/88/85
f 65/88/86 67/89/86 60/90/86
f 67/89/87 62/91/87 60/90/87
f 60/90/88 62/91/88 61/92/88
f 65/88/89 64/93/89 58/86/89
f 64/93/90 61/94/90 58/86/90
f 58/86/91 61/94/91 62/95/91
f 60/96/92 61/97/92 63/98/92
f 61/97/93 64/99/93 63/98/93
f 63/98/94 64/99/94 65/100/94
f 59/101/95 58/102/95 66/103/95
f 58/102/96 62/104/96 66/103/96
f 66/103/97 62/104/97 67/105/97
f 65/100/98 60/96/98 63/98/98
f 67/105/99 59/101/99 66/103/99
f 74/106/100 73/107/100 79/108/100
f 73/107/101 68/109/101 79/108/101
f 79/108/101 68/109/101 77/110/101
f 68/109/102 69/111/102 77/110/102
f 77/110/103 69/111/103 70/112/103
f 69/111/104 74/113/104 70/112/104
f 70/112/104 74/113/104 80/114/104
f 73/107/105 71/115/105 68/109/105
f 71/115/106 76/116/106 68/109/106
f 68/109/107 76/116/107 69/111/107
f 76/116/108 72/117/108 69/111/108
f 69/111/109 72/117/109 74/113/109
f 73/118/110 74/119/110 75/120/110
f 74/119/111 72/121/111 75/120/111
f 75/120/112 72/121/112 76/122/112
f 75/120/113 76/122/113 71/123/113
f 79/108/114 80/124/114 74/106/114
f 71/115/115 73/107/115 75/125/115
f 77/126/116 70/127/116 78/128/116
f 79/129/117 77/126/117 78/128/117
f 80/130/118 79/129/118 78/128/118
f 70/127/119 80/130/119 78/128/119
f 88/131/120 86/132/120 81/133/120
f 86/132/121 82/134/121 81/133/121
f 81/133/122 82/134/122 83/135/122
f 82/134/123 84/136/123 83/135/123
f 83/135/124 84/136/124 85/137/124
f 84/136/125 89/138/125 85/137/125
f 85/137/126 89/138/126 86/139/126
f 81/140/127 83/141/127 87/142/127
f 83/141/128 85/143/128 87/142/128
f 87/142/129 85/143/129 88/144/129
f 82/134/130 86/132/130 84/145/130
f 86/132/131 89/146/131 84/145/131
f 85/137/132 86/139/132 88/147/132
f 87/142/133 88/144/133 81/140/133
f 90/148/134 98/149/134 95/150/134
f 98/149/135 94/151/135 95/150/135
f 95/150/136 94/151/136 96/152/136
f 94/151/137 91/153/137 96/152/137
f 96/152/138 91/153/138 92/154/138
f 98/155/139 92/156/139 93/157/139
f 92/156/140 91/158/140 93/157/140
f 93/157/141 91/158/141 94/159/141
f 90/160/142 97/161/142 92/154/142
f 97/161/143 96/152/143 92/154/143
f 95/162/144 96/163/144 90/164/144
f 96/163/145 97/165/145 90/164/145
f 90/160/146 92/154/146 98/166/146
f 93/157/147 94/159/147 98/155/147
f 99/167/148 100/168/148 101/169/148
f 100/168/149 102/170/149 101/169/149
f 101/169/150 102/170/150 103/171/150
f 102/170/151 104/172/151 103/171/151
f 103/171/152 104/172/152 105/173/152
f 104/172/153 107/174/153 105/173/153
f 105/173/154 107/174/154 99/175/154
f 107/174/155 100/176/155 99/175/155
f 99/175/156 101/169/156 106/177/156
f 101/169/157 103/171/157 106/177/157
f 106/177/158 103/171/158 105/173/158
f 107/178/159 104/172/159 100/179/159
f 104/172/160 102/170/160 100/179/160
f 106/177/161 105/173/161 99/175/161
f 112/180/162 108/181/162 109/182/162
f 108/181/163 115/183/163 109/182/163
f 109/182/164 115/183/164 110/184/164
f 115/183/165 111/185/165 110/184/165
f 110/184/166 111/185/166 114/186/166
f 111/185/167 112/187/167 114/186/167
f 114/186/168 112/187/168 116/188/168
f 116/189/169 109/190/169 113/191/169
f 109/190/170 110/192/170 113/191/170
f 113/191/171 110/192/171 114/193/171
f 111/185/172 115/194/172 112/187/172
f 115/194/172 108/195/172 112/187/172
f 116/196/173 112/180/173 109/182/173
f 114/193/174 116/189/174 113/191/174
f 117/197/175 118/198/175 125/199/175
f 118/198/176 119/200/176 125/199/176
f 125/199/177 119/200/177 120/201/177
f 119/200/178 121/202/178 120/201/178
f 120/201/179 121/202/179 123/203/179
f 119/204/180 118/205/180 122/206/180
f 118/205/181 117/207/181 122/206/181
f 122/206/182 117/207/182 121/208/182
f 123/209/183 117/197/183 124/210/183
f 117/197/184 125/199/184 124/210/184
f 120/211/185 123/212/185 125/213/185
f 123/212/186 124/214/186 125/213/186
f 117/197/187 123/209/187 121/215/187
f 121/208/188 119/204/188 122/206/188
f 130/216/189 126/217/189 132/218/189
f 126/217/190 127/219/190 132/218/190
f 132/218/191 127/219/191 128/220/191
f 127/219/192 129/221/192 128/220/192
f 128/220/193 129/221/193 133/222/193
f 129/221/194 134/223/194 133/222/194
f 133/222/195 134/223/195 130/224/195
f 129/221/196 127/219/196 131/225/196
f 127/219/197 126/217/197 131/225/197
f 131/225/198 126/217/198 134/223/198
f 132/218/199 128/220/199 130/226/199
f 128/220/200 133/227/200 130/226/200
f 126/217/201 130/216/201 134/228/201
f 134/223/202 129/221/202 131/225/202
