# Blender v2.82 (sub 7) OBJ File: 'garbage_camp.blend'
# www.blender.org
mtllib trader_npc.mtl
v -1.383137 1.156964 6.392157
v -1.229306 1.074179 6.265087
v -1.135321 0.901216 6.475056
v -1.248527 0.885186 6.278539
v -1.311338 0.643570 6.559587
v -1.149128 1.091618 6.399726
v -1.285958 1.000076 6.599704
v -1.406795 0.706217 6.638577
v -1.430589 0.571447 6.590738
v -1.620963 0.584588 6.580088
v -1.418752 0.905425 6.129190
v -1.539301 0.646955 6.281409
v -1.634759 0.709602 6.360397
v -1.594142 0.573876 6.391158
v -1.438272 0.464691 6.428916
v -1.387266 0.634205 6.389179
v -1.569389 1.004285 6.253838
v -1.450357 1.163453 6.247191
v -1.345340 1.094532 6.160293
v -1.254145 1.160539 6.486625
v -1.356721 1.110236 6.232402
v -1.361568 1.344644 6.217947
v -1.237794 1.117813 6.210603
v -1.238958 1.345118 6.182640
v -1.307739 1.116762 6.402590
v -1.308944 1.351655 6.400791
v -1.195565 1.123439 6.357327
v -1.186332 1.352129 6.365484
v -1.156067 1.133927 6.266011
v -1.378957 1.109335 6.331104
v -1.259670 1.412957 6.285130
v -1.152337 1.351078 6.256610
v -1.192510 1.081703 6.278502
v -1.376791 1.349470 6.321273
v -1.202512 0.773931 6.693573
v -1.085945 0.816525 6.696703
v -1.129396 1.009554 6.424336
v -1.121348 0.715083 6.662896
v -1.068550 0.782082 6.550879
v -1.236269 1.061622 6.449763
v -1.281880 0.958674 6.584367
v -1.154040 1.062294 6.552435
v -1.246612 0.883046 6.400734
v -1.183721 0.736661 6.540666
v -1.105988 0.832794 6.529011
v -0.970256 0.642323 6.505003
v -1.059966 0.579041 6.508735
v -1.209349 0.763936 6.526508
v -0.951732 0.615973 6.365090
v -0.904405 0.553848 6.428329
v -1.003210 0.483802 6.432134
v -1.051850 0.547489 6.364223
v -1.082996 0.607896 6.418162
v -0.991926 0.669664 6.419241
v -1.175141 0.823359 6.607478
v -1.178736 0.725312 6.647660
v -1.077224 0.796502 6.642848
v -1.518888 0.916672 6.278398
v -1.570368 0.747833 6.078373
v -1.319883 0.912101 6.245835
v -1.397564 0.726779 6.178122
v -1.421622 0.767945 6.063411
v -1.503181 0.664404 6.112926
v -1.553963 0.706784 6.194312
v -1.524111 1.027387 6.152749
v -1.429142 1.061715 6.236980
v -1.385288 1.024199 6.130034
v -1.354339 0.559111 5.977812
v -1.520513 0.701241 6.057748
v -1.338029 0.523020 6.080437
v -1.261494 0.475673 5.927987
v -1.190766 0.523721 6.064291
v -1.276976 0.609813 5.982370
v -1.256357 0.576546 6.085249
v -1.243221 0.435777 6.040903
v -1.393545 0.732206 6.180109
v -1.213350 0.560793 5.951121
v -1.502725 0.660652 6.173676
v -1.417877 0.768506 6.063796
v -1.488212 0.760538 6.141403
v -1.413535 0.389766 6.440539
v -1.387409 0.647390 6.410071
v -0.980624 0.622385 6.497544
v -1.041807 0.409142 6.527645
v -1.001110 0.613062 6.355856
v -0.897879 0.468065 6.393885
v -1.072882 0.391376 6.363171
v -1.479316 0.617423 6.647384
v -1.492944 0.482845 6.663348
v -1.061179 0.077606 6.393443
v -0.897410 0.517264 6.493456
v -1.083256 0.477601 6.533648
v -1.130935 0.445057 6.378210
v -1.005231 0.588756 6.447465
v -0.939397 0.484334 6.333566
v -1.201086 0.092824 6.530380
v -1.084166 0.082486 6.525715
v -1.227744 0.090669 6.440236
v -1.223446 0.076863 6.448447
v -1.247830 -0.017740 6.462730
v -1.196450 0.083784 6.538163
v -1.218601 -0.019511 6.560670
v -1.079075 0.083815 6.532825
v -0.908299 -0.019255 6.498195
v -1.056680 0.077424 6.400508
v -1.126165 0.159986 6.476329
v -0.893463 -0.017239 6.338595
v -1.465910 0.383999 6.416676
v -1.304896 0.617899 6.011723
v -1.402204 0.636665 6.416580
v -1.247468 0.374969 6.144092
v -1.379350 0.409613 6.045319
v -1.191124 0.453100 5.976207
v -1.188084 0.593990 6.091374
v -1.657305 0.632365 6.394901
v -1.690610 0.500272 6.394951
v -1.372977 0.445111 6.063420
v -1.134061 0.502754 6.044014
v -1.171920 0.079765 5.984169
v -1.252420 0.396675 6.166297
v -1.261075 0.549448 5.943701
v -1.281237 0.576609 6.076744
v -1.357097 0.043881 6.037481
v -1.289717 0.031836 6.101684
v -1.298906 0.076795 5.941012
v -1.374327 0.093041 6.028263
v -1.301820 0.092991 5.935889
v -1.174644 -0.010062 5.816996
v -1.181274 0.086565 5.994322
v -1.342737 -0.008437 6.113818
v -1.283172 0.169237 6.006842
v -1.405462 -0.010266 6.033297
v -1.036272 -0.008088 5.897393
v -1.316880 0.086127 6.102176
vt 0.979535 0.975022
vt 0.854474 0.884169
vt 0.954903 0.847184
vt 0.794685 0.788930
vt 0.927493 0.744636
vt 0.766618 0.610001
vt 0.868874 0.584931
vt 0.844022 0.495978
vt 0.760113 0.895498
vt 0.662170 0.785787
vt 0.682636 0.607882
vt 0.713626 0.553428
vt 0.602965 0.497074
vt 0.794685 0.788930
vt 0.766618 0.610001
vt 0.682636 0.607882
vt 0.713626 0.553428
vt 0.668090 0.893378
vt 0.760113 0.895498
vt 0.662170 0.785787
vt 0.871432 0.974583
vt 0.854474 0.884169
vt 0.871432 0.974583
vt 0.668090 0.893378
vt 0.534172 0.019081
vt 0.519668 0.319788
vt 0.660271 0.031712
vt 0.650208 0.325478
vt 0.830992 0.044967
vt 0.810034 0.331100
vt 0.948416 0.073768
vt 0.948832 0.331377
vt 0.660271 0.031712
vt 0.650208 0.325478
vt 0.830992 0.044967
vt 0.810034 0.331100
vt 0.744799 0.473021
vt 0.894215 0.441583
vt 0.576367 0.433602
vt 0.925375 0.018179
vt 0.087701 0.325815
vt 0.183504 0.318873
vt 0.182335 0.461811
vt 0.274996 0.314634
vt 0.299111 0.496595
vt 0.403172 0.494768
vt 0.111378 0.085905
vt 0.069870 0.109801
vt 0.077689 0.074432
vt 0.048020 0.059889
vt 0.090916 0.037601
vt 0.064389 0.019405
vt 0.125993 0.040816
vt 0.073013 0.057478
vt 0.084486 0.115281
vt 0.035378 0.070486
vt 0.512422 0.430607
vt 0.366707 0.313027
vt 0.033478 0.472407
vt 0.454326 0.285404
vt 0.338779 0.141681
vt 0.363315 0.286300
vt 0.270291 0.162081
vt 0.274567 0.313919
vt 0.184487 0.164394
vt 0.181192 0.318266
vt 0.111302 0.144485
vt 0.085925 0.288473
vt 0.343196 0.086301
vt 0.270992 0.074735
vt 0.179580 0.075366
vt 0.104572 0.089176
vt 0.490829 0.018934
vt 0.499521 0.109925
vt 0.417222 0.024823
vt 0.421499 0.117426
vt 0.364577 0.112729
vt 0.456970 0.270387
vt 0.421569 0.127100
vt 0.360791 0.028678
vt 0.066507 0.082095
vt 0.040079 0.106631
vt 0.044215 0.052092
vt 0.091183 0.056298
vt 0.089711 0.110697
vt 0.182978 0.460608
vt 0.301804 0.495981
vt 0.277281 0.310868
vt 0.407625 0.494197
vt 0.370469 0.309307
vt 0.518722 0.428876
vt 0.459570 0.281217
vt 0.184093 0.315327
vt 0.086818 0.322312
vt 0.031678 0.471383
vt 0.090013 0.029223
vt 0.046392 0.051814
vt 0.076637 0.066603
vt 0.068611 0.102570
vt 0.110895 0.078418
vt 0.033610 0.062590
vt 0.083474 0.108218
vt 0.071807 0.049511
vt 0.125683 0.032493
vt 0.062963 0.010719
vt 0.420383 0.126893
vt 0.338209 0.141423
vt 0.362611 0.284776
vt 0.270217 0.161584
vt 0.274597 0.312167
vt 0.185123 0.163879
vt 0.181925 0.316478
vt 0.112613 0.144204
vt 0.087376 0.287001
vt 0.270982 0.074892
vt 0.180326 0.075587
vt 0.105869 0.089283
vt 0.360108 0.029286
vt 0.363793 0.112572
vt 0.416003 0.025393
vt 0.420313 0.117300
vt 0.497621 0.109930
vt 0.489000 0.019622
vt 0.455491 0.268995
vt 0.342589 0.086432
vt 0.046081 0.052506
vt 0.041979 0.106524
vt 0.068189 0.082330
vt 0.092591 0.056677
vt 0.091200 0.110626
vt 0.049617 0.737374
vt 0.029784 0.897680
vt 0.138206 0.729705
vt 0.144023 0.890222
vt 0.200984 0.727696
vt 0.233722 0.931475
vt 0.287722 0.727220
vt 0.293698 0.931422
vt 0.376416 0.879592
vt 0.295391 0.722407
vt 0.283596 0.677399
vt 0.329504 0.693688
vt 0.342884 0.657777
vt 0.357482 0.709079
vt 0.121176 0.986109
vt 0.061411 0.990023
vt 0.360814 0.718810
vt 0.029785 0.556875
vt 0.049987 0.724204
vt 0.105516 0.562591
vt 0.139022 0.729623
vt 0.160307 0.543621
vt 0.201499 0.727603
vt 0.272106 0.680696
vt 0.343895 0.658819
vt 0.352715 0.709323
vt 0.320294 0.695281
vt 0.295904 0.721395
vt 0.285606 0.678085
vt 0.232195 0.495876
vt 0.198000 0.517507
vt 0.032889 0.548696
vt 0.063290 0.501789
vt 0.104383 0.551899
vt 0.108916 0.514698
vt 0.328621 0.634085
vt 0.333803 0.605495
vt 0.318795 0.569698
vt 0.373500 0.599192
vt 0.370784 0.557406
vt 0.422912 0.608106
vt 0.516686 0.585402
vt 0.448297 0.659398
vt 0.521805 0.662706
vt 0.382693 0.694011
vt 0.389413 0.732210
vt 0.408600 0.651598
vt 0.521213 0.507890
vt 0.371689 0.503990
vt 0.376316 0.880325
vt 0.294075 0.931699
vt 0.288081 0.728675
vt 0.234393 0.931805
vt 0.201897 0.729201
vt 0.145212 0.890684
vt 0.139480 0.731094
vt 0.031684 0.898309
vt 0.051403 0.738876
vt 0.357491 0.710691
vt 0.342978 0.659686
vt 0.329674 0.695285
vt 0.284084 0.679194
vt 0.295705 0.723890
vt 0.122496 0.986123
vt 0.063076 0.990014
vt 0.360804 0.720314
vt 0.274381 0.682804
vt 0.203403 0.729908
vt 0.161994 0.544908
vt 0.140597 0.731889
vt 0.106915 0.563977
vt 0.051093 0.726490
vt 0.030785 0.558380
vt 0.287903 0.680079
vt 0.298305 0.723717
vt 0.322823 0.697514
vt 0.355415 0.711482
vt 0.346499 0.660811
vt 0.234310 0.497011
vt 0.199787 0.518705
vt 0.033906 0.550109
vt 0.105677 0.553279
vt 0.064417 0.503004
vt 0.110283 0.515882
vt 0.331194 0.635996
vt 0.318913 0.570187
vt 0.373296 0.599491
vt 0.370594 0.557994
vt 0.422517 0.608393
vt 0.515799 0.585809
vt 0.447803 0.659485
vt 0.520787 0.662707
vt 0.382510 0.693812
vt 0.389195 0.731810
vt 0.408211 0.651691
vt 0.371599 0.504790
vt 0.520198 0.508704
vt 0.333808 0.605796
vn 0.2667 0.9227 -0.2783
vn 0.8590 -0.1333 -0.4943
vn 0.8643 -0.1226 -0.4879
vn 0.7110 -0.6039 -0.3603
vn 0.7671 -0.5611 -0.3110
vn 0.8640 -0.3458 -0.3660
vn 0.7174 0.3007 0.6285
vn 0.5792 -0.1318 0.8045
vn 0.4371 -0.3684 0.8205
vn 0.5458 -0.7111 0.4432
vn -0.0881 -0.8295 0.5514
vn 0.6467 -0.1194 -0.7533
vn 0.4858 -0.6006 -0.6351
vn -0.6764 -0.1131 -0.7278
vn -0.7229 -0.3512 -0.5951
vn -0.9439 -0.3089 -0.1165
vn -0.5679 -0.8224 -0.0340
vn 0.4490 -0.5564 -0.6992
vn 0.5245 -0.3407 -0.7803
vn -0.3357 -0.6980 -0.6325
vn -0.4716 0.3183 -0.8224
vn 0.4418 0.8817 -0.1654
vn 0.3363 0.9217 -0.1934
vn 0.6519 -0.1302 -0.7471
vn 0.2595 0.8844 -0.3878
vn -0.0750 -0.3218 0.9438
vn -0.9755 -0.0002 -0.2198
vn -0.9891 -0.0294 -0.1443
vn -0.1760 -0.0642 -0.9823
vn -0.2743 -0.1188 -0.9543
vn 0.5716 -0.0973 -0.8148
vn 0.6505 -0.0440 -0.7582
vn -0.7607 0.0011 0.6491
vn 0.3737 0.0090 0.9275
vn 0.2766 -0.0454 0.9599
vn 0.9187 -0.0511 0.3915
vn 0.9545 -0.0035 0.2981
vn -0.1665 0.8064 -0.5674
vn 0.3444 0.8134 -0.4688
vn -0.7098 0.0352 0.7035
vn 0.1437 0.8477 0.5106
vn -0.3810 0.8742 0.3010
vn 0.8152 -0.4982 0.2954
vn 0.5241 0.8373 0.1556
vn 0.5440 -0.5344 -0.6470
vn -0.5004 0.8583 -0.1138
vn -0.9156 -0.4019 -0.0145
vn -0.1844 0.4402 0.8787
vn -0.1606 0.4662 0.8700
vn 0.9523 0.2991 0.0601
vn 0.1015 -0.3462 0.9326
vn -0.5480 -0.8257 0.1339
vn 0.3709 -0.8635 -0.3417
vn -0.0971 0.2687 -0.9583
vn -0.9646 0.1203 -0.2348
vn -0.5124 0.7571 0.4054
vn 0.5015 -0.3143 -0.8061
vn 0.9580 0.2827 0.0475
vn -0.9153 -0.4027 -0.0099
vn 0.2989 -0.5892 -0.7507
vn 0.9031 -0.3811 0.1977
vn 0.3609 0.8848 -0.2948
vn 0.8130 0.5819 -0.0199
vn 0.3636 -0.4679 0.8055
vn 0.3659 -0.4673 0.8048
vn -0.7775 -0.6288 -0.0026
vn -0.7783 -0.6278 -0.0035
vn 0.7980 0.6026 -0.0052
vn 0.7981 0.6024 -0.0096
vn 0.3509 -0.4504 0.8210
vn 0.3518 -0.4504 0.8206
vn -0.8292 -0.5540 0.0744
vn -0.8641 -0.4996 0.0606
vn 0.3444 -0.5279 -0.7763
vn 0.3697 -0.5308 -0.7626
vn -0.3478 0.5183 -0.7813
vn -0.2501 0.4074 -0.8784
vn -0.2640 0.4046 -0.8756
vn -0.3467 0.5247 -0.7775
vn -0.2216 0.3767 0.8994
vn 0.1665 0.9509 0.2611
vn -0.5119 0.7813 -0.3572
vn -0.9455 0.1525 0.2875
vn -0.9812 0.1227 0.1489
vn -0.1490 0.2772 -0.9492
vn -0.1321 0.2669 -0.9546
vn 0.8722 0.0035 -0.4892
vn 0.9155 -0.2772 -0.2915
vn -0.9805 0.0948 0.1723
vn 0.1439 -0.3886 0.9101
vn 0.1399 -0.3910 0.9097
vn 0.6321 -0.6776 -0.3758
vn 0.1614 -0.8305 0.5332
vn -0.7466 -0.6533 -0.1257
vn -0.6559 0.5527 0.5142
vn 0.1629 0.1764 0.9707
vn 0.7983 0.5901 0.1203
vn -0.0367 -0.4075 -0.9125
vn -0.0346 0.9385 -0.3434
vn 0.7608 0.6465 0.0566
vn -0.1629 0.3321 -0.9291
vn -0.6823 -0.7169 -0.1437
vn -0.6818 -0.7167 -0.1463
vn 0.1952 -0.3792 0.9045
vn -0.1767 0.3522 -0.9191
vn -0.7012 -0.7003 -0.1339
vn -0.7008 -0.7004 -0.1349
vn 0.1050 -0.3136 0.9437
vn 0.1067 -0.2494 0.9625
vn 0.6415 0.7582 0.1166
vn 0.6455 0.7545 0.1184
vn 0.8507 -0.4252 -0.3091
vn 0.8654 -0.4118 -0.2856
vn 0.7622 0.6460 0.0422
vn -0.1803 0.3516 -0.9186
vn -0.9529 0.2094 0.2195
vn -0.4946 0.7877 -0.3674
vn 0.1782 0.9493 0.2590
vn -0.2704 0.3313 0.9039
vn -0.2215 0.0396 -0.9744
vn -0.1471 -0.1014 -0.9839
vn 0.0776 0.9940 -0.0766
vn 0.0314 0.9901 0.1372
vn 0.2869 0.0527 0.9565
vn 0.2994 0.0824 0.9506
vn -0.0392 -0.9269 0.3733
vn 0.8235 0.5457 -0.1550
vn 0.6991 -0.1007 0.7079
vn 0.3977 -0.9172 0.0239
vn -0.9334 0.0527 -0.3548
vn -0.9335 0.0525 -0.3546
vn 0.0279 -0.9944 0.1021
vn 0.2150 -0.1017 -0.9713
vn -0.2760 -0.0921 -0.9567
vn -0.2106 -0.0804 -0.9743
vn 0.9500 -0.2587 0.1746
vn 0.9035 -0.3996 -0.1550
vn 0.2154 -0.0201 0.9763
vn -0.7732 0.6252 0.1063
vn 0.0481 0.5907 0.8054
vn 0.6138 0.7258 -0.3107
vn -0.9223 0.2802 0.2661
vn 0.0381 -0.0201 0.9991
vn -0.0714 -0.9972 0.0244
vn -0.0860 -0.9951 0.0492
vn -0.9295 0.2931 0.2238
vn -0.2964 0.6125 -0.7328
vn -0.9257 0.2774 0.2571
vn -0.9242 0.2593 0.2805
vn 0.0444 0.2036 0.9780
vn 0.1974 -0.0023 0.9803
vn 0.5232 0.8509 0.0475
vn 0.5175 0.8537 0.0589
vn -0.2736 0.1496 -0.9501
vn -0.3300 -0.0572 -0.9422
vn -0.6664 0.7316 0.1441
vn 0.0359 0.6095 0.7919
vn 0.8075 0.5798 0.1087
vn -0.0031 -0.9999 -0.0129
vn -0.0027 -0.9998 -0.0173
vn -0.2336 0.5437 -0.8061
vn -0.4409 -0.8825 -0.1636
vn -0.7113 0.1791 -0.6797
vn -0.7248 0.1507 -0.6723
vn -0.0126 0.9987 -0.0493
vn 0.1990 0.9800 0.0024
vn 0.8054 -0.2029 0.5569
vn 0.7779 -0.0604 0.6254
vn 0.0626 -0.9127 -0.4038
vn -0.3382 -0.0308 -0.9406
vn 0.5511 0.5209 -0.6518
vn -0.0850 0.0218 0.9961
vn -0.1758 -0.9784 -0.1085
vn 0.9528 -0.2042 0.2247
vn -0.7564 0.0642 -0.6510
vn 0.6091 -0.0442 -0.7918
vn 0.3178 0.1049 -0.9423
vn 0.7740 -0.1561 0.6137
vn 0.7311 -0.1907 0.6551
vn 0.4241 0.8978 -0.1190
vn -0.7856 0.5720 -0.2358
vn -0.5459 0.3016 0.7817
vn -0.6948 -0.0737 0.7154
vn -0.8562 -0.0005 -0.5166
vn 0.1154 -0.9548 -0.2738
vn 0.0890 -0.9579 -0.2731
vn -0.6626 -0.0644 0.7462
vn 0.4059 0.4585 0.7906
vn -0.7648 0.2592 0.5899
vn -0.7702 0.2027 -0.6047
vn -0.6838 -0.0020 -0.7297
vn 0.2653 0.8508 -0.4537
vn 0.2526 0.8536 -0.4557
vn 0.6152 0.1497 0.7741
vn 0.5760 -0.0571 0.8155
vn 0.3806 0.5784 -0.7216
vn -0.6240 0.6087 -0.4901
vn -0.5035 0.7316 0.4597
vn 0.0128 -0.9998 0.0127
vn 0.0083 -0.9999 0.0102
vn -0.7456 0.2784 0.6055
vn 0.5216 0.5432 0.6580
usemtl pstalker.png
s off
f 1/1/1 6/2/1 2/3/1
f 6/2/2 3/4/2 2/3/2
f 2/3/3 3/4/3 4/5/3
f 3/4/4 5/6/4 4/5/4
f 4/5/5 5/6/5 16/7/5
f 5/6/6 15/8/6 16/7/6
f 6/9/7 7/10/7 3/4/7
f 7/10/8 8/11/8 3/4/8
f 3/4/8 8/11/8 5/6/8
f 8/11/9 9/12/9 5/6/9
f 5/6/10 9/12/10 15/8/10
f 9/12/11 10/13/11 15/8/11
f 2/3/12 4/5/12 11/14/12
f 4/5/13 12/15/13 11/14/13
f 11/14/14 12/15/14 13/16/14
f 12/15/15 14/17/15 13/16/15
f 13/16/16 14/17/16 10/13/16
f 14/17/17 15/8/17 10/13/17
f 4/5/18 16/7/18 12/15/18
f 16/7/19 15/8/19 12/15/19
f 12/15/20 15/8/20 14/17/20
f 18/18/21 19/19/21 17/20/21
f 19/19/21 11/14/21 17/20/21
f 17/20/14 11/14/14 13/16/14
f 18/21/22 1/1/22 19/22/22
f 1/1/23 2/3/23 19/22/23
f 19/22/24 2/3/24 11/14/24
f 6/2/25 1/1/25 20/23/25
f 7/10/7 6/9/7 20/24/7
f 9/12/26 8/11/26 10/13/26
f 30/25/27 34/26/27 21/27/27
f 34/26/28 22/28/28 21/27/28
f 21/27/29 22/28/29 23/29/29
f 22/28/30 24/30/30 23/29/30
f 23/29/31 24/30/31 29/31/31
f 24/30/32 32/32/32 29/31/32
f 34/26/33 25/33/33 26/34/33
f 25/33/34 27/35/34 26/34/34
f 26/34/35 27/35/35 28/36/35
f 27/35/36 29/31/36 28/36/36
f 28/36/37 29/31/37 32/32/37
f 22/28/38 31/37/38 24/30/38
f 31/37/39 32/38/39 24/30/39
f 25/33/40 34/26/40 30/25/40
f 28/36/41 31/37/41 26/34/41
f 31/37/42 34/39/42 26/34/42
f 27/35/43 33/40/43 29/31/43
f 32/38/44 31/37/44 28/36/44
f 29/31/45 33/40/45 23/29/45
f 34/39/46 31/37/46 22/28/46
f 44/41/47 35/42/47 41/43/47
f 35/42/48 36/44/48 41/43/48
f 41/43/49 36/44/49 42/45/49
f 36/44/50 37/46/50 42/45/50
f 36/47/51 35/48/51 38/49/51
f 35/48/52 44/50/52 38/49/52
f 38/49/53 44/50/53 39/51/53
f 37/52/54 43/53/54 40/54/54
f 43/53/55 41/55/55 40/54/55
f 40/54/56 41/55/56 42/56/56
f 43/57/57 37/46/57 39/58/57
f 37/46/58 36/44/58 39/58/58
f 44/41/59 41/43/59 43/59/59
f 44/60/60 43/57/60 39/58/60
f 38/49/61 39/51/61 36/47/61
f 40/54/62 42/56/62 37/52/62
f 54/61/63 45/62/63 46/63/63
f 45/62/63 57/64/63 46/63/63
f 46/63/64 57/64/64 47/65/64
f 57/64/65 56/66/65 47/65/65
f 47/65/66 56/66/66 53/67/66
f 56/66/67 48/68/67 53/67/67
f 49/69/68 54/61/68 50/70/68
f 54/61/69 46/63/69 50/70/69
f 50/70/70 46/63/70 51/71/70
f 46/63/71 47/65/71 51/71/71
f 51/71/72 47/65/72 52/72/72
f 47/65/73 53/67/73 52/72/73
f 50/73/74 51/74/74 49/75/74
f 51/74/75 52/76/75 49/75/75
f 49/75/76 52/76/76 53/77/76
f 48/78/77 45/62/77 53/79/77
f 45/62/78 54/61/78 53/79/78
f 49/75/79 53/77/79 54/80/79
f 55/81/80 56/82/80 57/83/80
f 55/81/81 57/83/81 45/84/81
f 55/81/82 45/84/82 48/85/82
f 55/81/83 48/85/83 56/82/83
f 58/86/84 65/87/84 59/88/84
f 65/87/85 67/89/85 59/88/85
f 59/88/86 67/89/86 62/90/86
f 67/89/87 60/91/87 62/90/87
f 62/90/88 60/91/88 61/92/88
f 59/88/89 64/93/89 58/86/89
f 64/93/90 61/94/90 58/86/90
f 58/86/91 61/94/91 60/95/91
f 62/96/92 61/97/92 63/98/92
f 61/97/93 64/99/93 63/98/93
f 63/98/94 64/99/94 59/100/94
f 65/101/95 58/102/95 66/103/95
f 58/102/96 60/104/96 66/103/96
f 66/103/97 60/104/97 67/105/97
f 59/100/98 62/96/98 63/98/98
f 67/105/99 65/101/99 66/103/99
f 74/106/100 73/107/100 79/108/100
f 73/107/101 68/109/101 79/108/101
f 79/108/101 68/109/101 69/110/101
f 68/109/102 70/111/102 69/110/102
f 69/110/103 70/111/103 78/112/103
f 70/111/104 74/113/104 78/112/104
f 78/112/104 74/113/104 76/114/104
f 73/107/105 71/115/105 68/109/105
f 71/115/106 75/116/106 68/109/106
f 68/109/107 75/116/107 70/111/107
f 75/116/108 72/117/108 70/111/108
f 70/111/109 72/117/109 74/113/109
f 73/118/110 74/119/110 77/120/110
f 74/119/111 72/121/111 77/120/111
f 77/120/112 72/121/112 75/122/112
f 77/120/113 75/122/113 71/123/113
f 79/108/114 76/124/114 74/106/114
f 71/115/115 73/107/115 77/125/115
f 69/126/116 78/127/116 80/128/116
f 79/129/117 69/126/117 80/128/117
f 76/130/118 79/129/118 80/128/118
f 78/127/119 76/130/119 80/128/119
f 87/131/120 81/132/120 85/133/120
f 81/132/121 82/134/121 85/133/121
f 85/133/122 82/134/122 83/135/122
f 82/134/123 88/136/123 83/135/123
f 83/135/124 88/136/124 84/137/124
f 88/136/125 89/138/125 84/137/125
f 84/137/126 89/138/126 81/139/126
f 85/140/127 83/141/127 86/142/127
f 83/141/128 84/143/128 86/142/128
f 86/142/129 84/143/129 87/144/129
f 82/134/130 81/132/130 88/145/130
f 81/132/131 89/146/131 88/145/131
f 84/137/132 81/139/132 87/147/132
f 86/142/133 87/144/133 85/140/133
f 98/148/134 93/149/134 90/150/134
f 93/149/135 95/151/135 90/150/135
f 90/150/136 95/151/136 97/152/136
f 95/151/137 91/153/137 97/152/137
f 97/152/138 91/153/138 92/154/138
f 93/155/139 92/156/139 94/157/139
f 92/156/140 91/158/140 94/157/140
f 94/157/141 91/158/141 95/159/141
f 98/160/142 96/161/142 92/154/142
f 96/161/143 97/152/143 92/154/143
f 90/162/144 97/163/144 98/164/144
f 97/163/145 96/165/145 98/164/145
f 98/160/146 92/154/146 93/166/146
f 94/157/147 95/159/147 93/155/147
f 99/167/148 100/168/148 101/169/148
f 100/168/149 102/170/149 101/169/149
f 101/169/150 102/170/150 103/171/150
f 102/170/151 104/172/151 103/171/151
f 103/171/152 104/172/152 105/173/152
f 104/172/153 107/174/153 105/173/153
f 105/173/154 107/174/154 99/175/154
f 107/174/155 100/176/155 99/175/155
f 99/175/156 101/169/156 106/177/156
f 101/169/157 103/171/157 106/177/157
f 106/177/158 103/171/158 105/173/158
f 107/178/159 104/172/159 100/179/159
f 104/172/160 102/170/160 100/179/160
f 106/177/161 105/173/161 99/175/161
f 108/180/162 116/181/162 112/182/162
f 116/181/163 115/183/163 112/182/163
f 112/182/164 115/183/164 109/184/164
f 115/183/165 110/185/165 109/184/165
f 109/184/166 110/185/166 114/186/166
f 110/185/167 108/187/167 114/186/167
f 114/186/168 108/187/168 111/188/168
f 111/189/169 112/190/169 113/191/169
f 112/190/170 109/192/170 113/191/170
f 113/191/171 109/192/171 114/193/171
f 110/185/172 115/194/172 108/187/172
f 115/194/172 116/195/172 108/187/172
f 111/196/173 108/180/173 112/182/173
f 114/193/174 111/189/174 113/191/174
f 117/197/175 121/198/175 125/199/175
f 121/198/176 118/200/176 125/199/176
f 125/199/177 118/200/177 119/201/177
f 118/200/178 120/202/178 119/201/178
f 119/201/179 120/202/179 124/203/179
f 118/204/180 121/205/180 122/206/180
f 121/205/181 117/207/181 122/206/181
f 122/206/182 117/207/182 120/208/182
f 124/209/183 117/197/183 123/210/183
f 117/197/184 125/199/184 123/210/184
f 119/211/185 124/212/185 125/213/185
f 124/212/186 123/214/186 125/213/186
f 117/197/187 124/209/187 120/215/187
f 120/208/188 118/204/188 122/206/188
f 130/216/189 126/217/189 132/218/189
f 126/217/190 127/219/190 132/218/190
f 132/218/191 127/219/191 128/220/191
f 127/219/192 129/221/192 128/220/192
f 128/220/193 129/221/193 133/222/193
f 129/221/194 134/223/194 133/222/194
f 133/222/195 134/223/195 130/224/195
f 129/221/196 127/219/196 131/225/196
f 127/219/197 126/217/197 131/225/197
f 131/225/198 126/217/198 134/223/198
f 132/218/199 128/220/199 130/226/199
f 128/220/200 133/227/200 130/226/200
f 126/217/201 130/216/201 134/228/201
f 134/223/202 129/221/202 131/225/202
